<svg xmlns="http://www.w3.org/2000/svg" width="178.457" height="107.971" viewBox="0 0 178.457 107.971">
  <g id="Group_108" data-name="Group 108" transform="translate(1030.752 -7544.23)">
    <g id="Group_106" data-name="Group 106" transform="translate(-1191 7200)">
      <path id="Path_745" data-name="Path 745" d="M259.146,374.375a1.5,1.5,0,0,0,1.471,1.177,1.42,1.42,0,0,0,1.055-2.4,2.068,2.068,0,0,0-1.182-.545,2.3,2.3,0,0,0-1.18.732,1.372,1.372,0,0,0-.164,1.036Z" fill="#75d1cb"/>
      <path id="Path_746" data-name="Path 746" d="M264.443,365.058a2.8,2.8,0,0,0,.848,1.248,2.422,2.422,0,0,0,2,.7,2.106,2.106,0,0,0,1.28-.229,2.873,2.873,0,0,0,.667-4.76,2.977,2.977,0,0,0-3.171-.475,2.735,2.735,0,0,0-1.71,2.519,3.317,3.317,0,0,0,.09,1Z" fill="#75d1cb"/>
      <path id="Path_747" data-name="Path 747" d="M271.608,372.038a1.285,1.285,0,0,0,1.323.544,1.434,1.434,0,0,0,1.328-.715,1.288,1.288,0,0,0-.366-1.672,1.443,1.443,0,0,0-1.916.2,1.187,1.187,0,0,0-.369,1.641Z" fill="#75d1cb"/>
      <path id="Path_748" data-name="Path 748" d="M277.119,363.757a2.692,2.692,0,0,0,1.091,1.176,3.5,3.5,0,0,0,.95.238,5.819,5.819,0,0,1,1.109.245,3.855,3.855,0,0,0,2.361-.076,3.729,3.729,0,0,0,1.542-1.475,3.887,3.887,0,0,0,0-2.64,3.788,3.788,0,0,0-1.524-1.472,3.342,3.342,0,0,0-3.037.26c-1.59.972-2.075,1.376-2.387,1.991a2.627,2.627,0,0,0-.1,1.753Z" fill="#75d1cb"/>
      <path id="Path_749" data-name="Path 749" d="M289.794,358.856a1.118,1.118,0,0,0,1.071.662,1.145,1.145,0,1,0,.016-2.29,1.115,1.115,0,0,0-1.087,1.628Z" fill="#75d1cb"/>
      <path id="Path_750" data-name="Path 750" d="M290.872,369.88a2.679,2.679,0,0,0,1.75,1.973,2.183,2.183,0,0,0,1.129.22,2.087,2.087,0,0,0,1.224-.266,2.829,2.829,0,0,0,1.39-1.4,2.757,2.757,0,0,0-.011-2.26,3.579,3.579,0,0,0-.576-.833,2.953,2.953,0,0,0-3.211-.57,3.335,3.335,0,0,0-1.44,1.318,3.752,3.752,0,0,0-.329,1.3c.007.052.04.28.074.514Z" fill="#75d1cb"/>
      <path id="Path_751" data-name="Path 751" d="M294.652,348.884a.681.681,0,0,0,.84.326,1.077,1.077,0,0,0,.39-.209,1.764,1.764,0,0,1,.461-.274.979.979,0,0,0,.62-.988,1.06,1.06,0,0,0-1.081-1.083,1.078,1.078,0,0,0-1.129,1.052,1.141,1.141,0,0,1-.1.452.768.768,0,0,0,0,.724Z" fill="#75d1cb"/>
      <path id="Path_752" data-name="Path 752" d="M297.427,355.171a1.438,1.438,0,0,0,1.5.873,1.273,1.273,0,0,0,.931-.228,1.648,1.648,0,0,0,.008-2.731,1.807,1.807,0,0,0-1.734-.089,1.759,1.759,0,0,0-.884,1.334,1.2,1.2,0,0,0,.18.841Z" fill="#75d1cb"/>
      <path id="Path_753" data-name="Path 753" d="M299.376,361.419a3.628,3.628,0,0,0,2.913,2.445,3.892,3.892,0,0,0,1.987-.252,12.432,12.432,0,0,0,2.322-1.725,3.466,3.466,0,0,0,.822-2.828,3.6,3.6,0,0,0-2.086-2.669,2.924,2.924,0,0,0-1.526-.29,3.824,3.824,0,0,0-3.26,1.27,4.118,4.118,0,0,0-1.172,4.049Z" fill="#75d1cb"/>
      <path id="Path_754" data-name="Path 754" d="M304.677,370.129a2.677,2.677,0,0,0,2.636,1.94,2.217,2.217,0,0,0,1.1-.212,2.667,2.667,0,0,0,.91-4.267,3.115,3.115,0,0,0-1.919-.859,2.671,2.671,0,0,0-2.8,2.51,2.574,2.574,0,0,0,.079.888Z" fill="#75d1cb"/>
      <path id="Path_755" data-name="Path 755" d="M304.9,348.962a3.168,3.168,0,0,0,1.7,1.587,2.973,2.973,0,0,0,2.973-.368,3.33,3.33,0,0,0,.877-3.79,3.184,3.184,0,0,0-.98-1.106c-.04,0-.072-.109-.072-.242a.905.905,0,0,0-.851-.8.617.617,0,0,0-.683.24,1.058,1.058,0,0,1-.676.336A3.029,3.029,0,0,0,305,346.415a2.42,2.42,0,0,0-.254,1.281,2.579,2.579,0,0,0,.156,1.266Z" fill="#75d1cb"/>
      <path id="Path_756" data-name="Path 756" d="M315.34,370.971a3.5,3.5,0,0,0,6.385.358,2.528,2.528,0,0,0,.347-1.324,2.663,2.663,0,0,0-.146-1.231,3.477,3.477,0,0,0-1.917-2.09,3.872,3.872,0,0,0-2.782.007,3.772,3.772,0,0,0-1.755,1.654,2.493,2.493,0,0,0-.289,1.356,2.645,2.645,0,0,0,.157,1.27Z" fill="#75d1cb"/>
      <path id="Path_757" data-name="Path 757" d="M315.693,359.807a2.036,2.036,0,0,0,1.891,1.215,1.873,1.873,0,0,0,1.476-.616,2.149,2.149,0,0,0-.689-3.349,2.109,2.109,0,0,0-2.681,1.044,3.411,3.411,0,0,0,0,1.706Z" fill="#75d1cb"/>
      <path id="Path_758" data-name="Path 758" d="M322.88,358.443a3.128,3.128,0,0,0,1.875,2.213,3.61,3.61,0,0,0,2.719.051,3.34,3.34,0,0,0,1.505-1.477,2.258,2.258,0,0,0,.244-1.348,2.43,2.43,0,0,0-.241-1.371,3.749,3.749,0,0,0-2.59-1.91,3.063,3.063,0,0,0-2.623.835,3.307,3.307,0,0,0-.889,3.007Z" fill="#75d1cb"/>
      <path id="Path_759" data-name="Path 759" d="M330.852,371.384a2.218,2.218,0,0,0,.645,1.231,2.68,2.68,0,0,0,1.812.809c.373.039.849.1,1.065.126a4.068,4.068,0,0,0,2.011-.436,3.545,3.545,0,0,0,1.773-3.787,3.6,3.6,0,0,0-6.777-.935,3.968,3.968,0,0,0-.374,1.208c-.042.327-.111.757-.155.962a3.09,3.09,0,0,0-.071.409c0,.021.037.21.071.413Z" fill="#75d1cb"/>
      <path id="Path_760" data-name="Path 760" d="M333.717,359.682a4.7,4.7,0,0,0,1.245,1.491,2.091,2.091,0,0,0,1.646.229,2.229,2.229,0,0,0,1.83-1.237,1.994,1.994,0,0,0-.367-2.469c-.727-.691-1.67-.73-2.966-.121a5.817,5.817,0,0,0-.977.549,1.528,1.528,0,0,0-.411,1.558Z" fill="#75d1cb"/>
    </g>
    <g id="Group_107" data-name="Group 107" transform="translate(-1132 7327)">
      <path id="Path_668" data-name="Path 668" d="M111.859,324.571c.11-.031.137-.007.11.1a.513.513,0,0,0,.1.344c.146.217.29.235.964.12a.531.531,0,0,1,.361.021,3.755,3.755,0,0,0,1.135-.1c.592-.1,1.172-.179,1.29-.182s.214-.035.214-.069.029-.059.073-.054c.2.023.416-.018.373-.07-.024-.03.1-.042.261-.027a4.956,4.956,0,0,0,1.026-.125c.9-.191,1.434-.293,1.65-.318a.525.525,0,0,0,.237-.081c.039-.033.018-.037-.045-.009-.17.075-.146,0,.036-.109.109-.068.14-.072.091-.012s0,.089.169.089a.442.442,0,0,0,.351-.151c.074-.1.131-.125.177-.069.085.1.516.043.862-.12.174-.081.209-.083.146-.007s-.05.081.06.017a1.851,1.851,0,0,1,.474-.138c.182-.03.442-.084.574-.12a2.28,2.28,0,0,1,.287-.065,1.263,1.263,0,0,0,.26-.107c.119-.059.214-.087.214-.062s.105-.006.242-.072.242-.1.242-.076.1,0,.214-.052a1.406,1.406,0,0,1,.36-.1c.274-.019.956-.26.908-.32-.027-.032.031-.05.122-.037a2.468,2.468,0,0,0,.721-.176,2.273,2.273,0,0,1,.547-.162c0,.021.082-.018.182-.086a.552.552,0,0,1,.31-.1c.219.034,1.514-.469,1.386-.538-.066-.036-.027-.046.1-.025a5.85,5.85,0,0,0,1.487-.452c1.55-.591,3.175-1.248,3.241-1.31a16.937,16.937,0,0,1,1.637-.722c.264-.1.469-.217.451-.255s.032-.069.114-.069a2.019,2.019,0,0,0,.856-.412c0-.03.07-.055.152-.055a.544.544,0,0,0,.31-.145.751.751,0,0,1,.373-.165,1.133,1.133,0,0,0,.438-.182c.119-.086.258-.136.3-.107s.046,0,.014-.062a.13.13,0,0,1,.055-.172c.073-.035.089-.025.046.028-.114.139.259.06.56-.119a1.314,1.314,0,0,1,.342-.164,1.349,1.349,0,0,0,.347-.178,1.188,1.188,0,0,1,.369-.179c.173,0,1-.452.95-.516-.034-.042-.024-.061.025-.049a1.418,1.418,0,0,0,.7-.24c0-.034.054-.063.118-.065.2,0,.564-.273.579-.424.008-.077.141-.193.306-.265a1.643,1.643,0,0,0,.4-.237c.089-.09.137-.094.255-.021s.152.062.177-.062c.034-.165.227-.2.208-.041-.006.053.34-.069.778-.275.492-.232.78-.412.765-.479s.06-.111.224-.12a.65.65,0,0,0,.346-.11.516.516,0,0,1,.247-.117.746.746,0,0,0,.3-.162.581.581,0,0,1,.246-.141,1.171,1.171,0,0,0,.36-.179c.447-.293.5-.319.557-.276.08.059.446-.205.446-.322,0-.054.11-.127.247-.166.319-.09.352-.087.269.021-.037.048.027.017.136-.065a1.385,1.385,0,0,1,.4-.2c.109-.028.191-.079.191-.12s.039-.055.092-.032.17-.03.269-.12a.8.8,0,0,1,.3-.183,2.044,2.044,0,0,0,.775-.46c0-.04.041-.05.1-.024s.1.018.1-.018a.938.938,0,0,1,.388-.192,1.109,1.109,0,0,0,.442-.234.2.2,0,0,1,.146-.1c.246,0,1.348-.671,1.243-.757-.034-.029-.007-.03.056,0a2.535,2.535,0,0,0,.908-.343c.729-.368,1.439-.779,1.139-.66-.1.04-.105.019-.018-.1a.335.335,0,0,1,.224-.148c.087.005.086.015-.005.044-.064.021-.093.068-.064.1s.224-.02.433-.124c.329-.165.362-.2.256-.307s-.1-.1.054-.013.189.09.26,0c.045-.055.062-.124.037-.155s.036-.087.146-.13c.155-.062.181-.056.136.031a.119.119,0,0,1-.155.062c-.052-.024-.069-.007-.036.034s.155.04.346-.042c.292-.126.4-.259.146-.186-.2.058-.182.009.064-.153.164-.108.19-.111.142-.015-.08.159.05.148.3-.025a.93.93,0,0,1,.264-.147,4.158,4.158,0,0,0,.957-.509c-.026-.02.037-.039.146-.045a4.669,4.669,0,0,0,.981-.437c.435-.235,1.408-.743,2.174-1.135s1.974-1.012,2.7-1.386,1.348-.678,1.391-.678a2.045,2.045,0,0,0,.46-.269c.383-.269.413-.282.657-.3.182-.012.877-.445.846-.527-.014-.038.02-.048.075-.022a3.657,3.657,0,0,0,1.148-.467,5.933,5.933,0,0,1,.666-.3,16.516,16.516,0,0,0,2.239-1.063.357.357,0,0,1,.241-.09c.21,0,.684-.162.684-.234,0-.031.055-.055.128-.055a.7.7,0,0,0,.31-.127,3.024,3.024,0,0,1,.615-.268,2.258,2.258,0,0,0,.492-.2.16.16,0,0,1,.119-.055,1.711,1.711,0,0,0,.369-.114c.17-.066.643-.209,1.044-.316.6-.161.774-.182.953-.114.255.1.677.7.563.8-.131.12.011.462.212.51s.183.226-.009.2c-.058-.01-.077.028-.046.09a.184.184,0,0,0,.146.106c.054,0,.056.049.005.118-.088.119-.068.192.231.86a1.636,1.636,0,0,1,.134.478,1.312,1.312,0,0,0,.159.468,1.79,1.79,0,0,1,.178.423,2.207,2.207,0,0,0,.123.382c.058.137.062.22.009.2s-.091-.007-.091.034a.088.088,0,0,0,.1.076.107.107,0,0,1,.1.114c0,.068.045.093.114.061s.086-.017.041.038a1.558,1.558,0,0,0-.009.63c.05.42.1.532.2.5.073-.02.137-.009.137.024a.528.528,0,0,0,.059.176c.036.069,0,.113-.082.113-.116,0-.123.052-.041.286.055.158.131.272.169.254s.065.073.062.2a1.5,1.5,0,0,0,.316,1.084c.219.153.239.244.064.289-.084.022-.066.076.064.186.145.124.159.175.068.258s-.081.119-.014.151a.353.353,0,0,1,.1.279c0,.158.027.2.086.131s.106-.073.182.038a2.661,2.661,0,0,1,.263.853.2.2,0,0,0,.125.165c.059.015.11.11.11.206s-.041.161-.1.131-.047.021.022.1c.117.138.134.14.2.028.051-.093.069-.073.072.079,0,.131-.032.185-.1.151s-.03.035.059.138.129.189.087.189-.034.035.027.083a.163.163,0,0,1,.051.192c-.038.076-.021.1.054.06.1-.048.161.043.124.2a.521.521,0,0,0,.141.241c.083.1.129.225.1.278s-.01.1.046.1.074.062.041.145c-.046.11-.018.144.114.144s.15-.011.027-.069c-.082-.039-.1-.069-.046-.07a.486.486,0,0,1,.383.435c0,.131.049.179.183.179.182,0,.386.282.288.4-.027.033.031.051.122.038.125-.018.178.024.191.148.01.092.027.254.037.351s.06.179.109.179.07-.083.046-.179c-.037-.145-.02-.164.086-.1a.272.272,0,0,1,.133.179.094.094,0,0,0,.1.1c.055,0,.092.023.087.055a.246.246,0,0,0,.012.11,2.631,2.631,0,0,1,.085.419c.007.043.122.107.259.145s.225.108.2.165.05.153.168.221a.861.861,0,0,1,.367.715c0,.1.029.105.135.041.073-.044.114-.127.088-.179-.077-.151.021-.117.138.048.078.111.075.14-.012.124a.15.15,0,0,0-.155.069c-.023.049.018.089.091.089a1.48,1.48,0,0,1,.513.31,7.437,7.437,0,0,0,1.753,1.1c.274.038.392.1.392.206a4.422,4.422,0,0,0,1.532.535.658.658,0,0,1,.337.112,4.3,4.3,0,0,0,1.359.358c.064-.011.119.011.119.048,0,.059.291.128.857.2a2.035,2.035,0,0,1,.392.094,6.908,6.908,0,0,0,1.486.175c.593.035.6.019.082-.222-.25-.117-.128-.182.237-.126.2.031.294.081.264.141s.01.078.092.055a.169.169,0,0,1,.187.062c.037.074.214.094.7.076,1.1-.042,1.2-.053,1.242-.148.033-.074.07-.069.153.02s.164.1.374.043c.365-.1.739-.1.739.012,0,.062.022.066.073.011a2.484,2.484,0,0,1,.774-.11c.52-.023.735-.063.826-.155a.465.465,0,0,1,.3-.121c.169,0,.168.007-.014.069-.147.05-.091.066.237.068.447,0,.717-.074.66-.188-.017-.034.165-.064.411-.066.347,0,.432.019.392.1s.005.091.133.062c.1-.023.3-.063.447-.09.273-.05.338-.143.136-.2-.064-.017-.08-.061-.036-.1s.124-.006.173.062c.084.117.1.118.246.014a.482.482,0,0,1,.324-.079.208.208,0,0,0,.219-.069c.027-.056.159-.1.287-.1a7.429,7.429,0,0,0,1.82-.365c-.028-.034.168-.059.432-.055a1.747,1.747,0,0,0,.73-.113,1,1,0,0,1,.41-.109c.237.017.592-.081.592-.163,0-.04.083-.05.192-.024s.191.012.191-.031a.063.063,0,0,1,.073-.064,2.588,2.588,0,0,0,.739-.151,10.037,10.037,0,0,1,1.979-.538c.069.033.084.02.041-.035s-.01-.089.082-.093.194-.015.246-.024.131-.022.178-.028a1.437,1.437,0,0,0,.351-.209c.146-.109.237-.159.2-.111s-.047.09-.023.09a2.125,2.125,0,0,0,.73-.3c0-.029.109-.055.237-.055s.237-.039.237-.086.028-.065.064-.038a.192.192,0,0,0,.182-.026,6.76,6.76,0,0,1,1.122-.428,2.561,2.561,0,0,0,.465-.187c.342-.163.811-.365,1.477-.636a1.21,1.21,0,0,0,.236-.119,5.511,5.511,0,0,1,.885-.372c.146-.049.265-.116.265-.148s.045-.059.109-.059a2.749,2.749,0,0,0,.62-.288,5.058,5.058,0,0,1,.556-.29,20.721,20.721,0,0,0,2.235-1.176.783.783,0,0,1,.318-.183,4.246,4.246,0,0,0,1.256-.739c.247-.193.467-.324.5-.3s.057.017.054-.024a2.211,2.211,0,0,1,.474-.458,2.383,2.383,0,0,0,.484-.464c0-.042.031-.054.064-.028s.186-.055.346-.186.649-.519,1.085-.863a7.8,7.8,0,0,0,.8-.678.648.648,0,0,1,.192-.2,11.118,11.118,0,0,0,1.632-1.465c0-.034.132-.129.287-.207s.287-.188.287-.24c0-.087.145-.228.684-.661a5.929,5.929,0,0,0,.941-.991c0-.039.1-.142.24-.237s.241-.2.241-.238a1.49,1.49,0,0,1,.388-.351c.209-.152.362-.312.333-.347s-.01-.086.054-.116a8.008,8.008,0,0,0,1.232-1.449.1.1,0,0,1,.086-.1.2.2,0,0,0,.146-.11c.04-.075.022-.1-.06-.065-.066.025-.054,0,.028-.053.2-.135.455-.51.41-.6-.021-.044.046-.133.155-.21s.192-.173.192-.224a.14.14,0,0,1,.1-.117.2.2,0,0,0,.128-.141,1.016,1.016,0,0,1,.194-.313c.195-.227.265-.543.121-.543-.056,0-.056-.035,0-.09.129-.124.224-.42.135-.42-.041,0-.072-.048-.072-.11s.055-.093.127-.072a.105.105,0,0,0,.143-.086c.054-.447.047-.57-.041-.653-.05-.049-.065-.111-.034-.135s.06-.01.06.038a.082.082,0,0,0,.086.083c.05,0,.066-.062.037-.145s-.087-.144-.137-.144-.134-.079-.2-.183c-.074-.124-.133-.154-.182-.1s0,.165.073.255.1.168.05.168-.117.062-.146.145a.144.144,0,0,1-.2.1c-.082-.023-.124-.084-.1-.138.078-.151-.052-.274-.2-.184a.192.192,0,0,1-.182.026c-.034-.026-.064,0-.064.055,0,.084-.019.083-.1-.007s-.093-.062-.066.11c.038.248-.21.33-.29.1-.024-.069-.091-.11-.141-.086s-.068-.021-.023-.124c.068-.158.063-.161-.091-.045-.171.129-.393.1-.282-.041a.971.971,0,0,0,.045-.544c0-.031-.093.024-.2.127-.152.145-.191.156-.191.055,0-.068.044-.127.1-.127s.1-.072.1-.162c0-.13-.018-.141-.1-.054-.055.061-.1.071-.1.024s-.06-.1-.133-.121c-.092-.026-.118,0-.086.1.025.076,0,.138-.06.138s-.1-.027-.092-.055c.033-.152-.026-.235-.167-.235-.1,0-.136-.037-.1-.106a.408.408,0,0,0-.036-.3c-.08-.165-.111-.177-.242-.093s-.132.107.023.2c.137.081.141.094.018.062a.4.4,0,0,0-.278.044c-.091.064-.105.062-.055-.007s.014-.092-.068-.092a.429.429,0,0,1-.255-.107c-.1-.088-.091-.1.036-.063a.406.406,0,0,0,.431-.223c.015-.043.094-.066.185-.055.141.019.141.012-.005-.058a.321.321,0,0,1-.169-.262c0-.158-.035-.176-.241-.137-.274.051-.323,0-.415-.41-.068-.3-.258-.411-.424-.24-.043.045-.095.01-.128-.087s-.093-.143-.141-.12-.087-.031-.087-.113-.05-.142-.118-.124a.134.134,0,0,0-.091.158c.014.069-.017.107-.069.082a.133.133,0,0,0-.155.028.215.215,0,0,1-.15.072c-.049,0-.02-.082.064-.179.143-.165.141-.177-.019-.152-.465.071-1.089.378-1.092.538,0,.036-.066.086-.139.106-.091.026-.118,0-.082-.065s-.009-.078-.264.024a2.054,2.054,0,0,0-.442.234c-.111.1-.132.1-.217,0s-.11-.1-.134.069a.08.08,0,0,1-.092.066.361.361,0,0,0-.2.12.225.225,0,0,1-.219.079c-.055-.024-.125.024-.155.107a.151.151,0,0,1-.191.113c-.083-.022-.18.035-.247.145s-.16.167-.228.148c-.164-.048-.547.073-.547.172,0,.058.051.053.169-.017.155-.092.158-.09.037.024a.455.455,0,0,1-.251.124.432.432,0,0,0-.242.11.178.178,0,0,1-.251.031c-.1-.062-.211-.014-.51.22-.229.179-.429.278-.5.247s-.094-.01-.05.08c.057.117.046.12-.1.03-.109-.066-.139-.069-.091-.01s.027.09-.027.09-.1.034-.1.075c0,.112-.21.248-.383.248-.082,0-.136.036-.123.083s-.11.176-.265.285-.287.163-.287.117a.1.1,0,0,1,.1-.086c.061,0,.076-.034.036-.082s-.024-.063.037-.035a.145.145,0,0,0,.159-.02c.033-.042.019-.086-.036-.111s-.2.059-.338.183-.246.2-.246.168-.1.007-.214.083-.166.09-.095.02c.147-.143.063-.208-.256-.2-.146,0-.183.02-.091.038.2.04.118.294-.128.394-.273.111-.411.009-.211-.157.091-.076.145-.153.12-.172-.1-.079-.374.055-.427.214a.177.177,0,0,1-.22.134.4.4,0,0,0-.3.093c-.124.112-.119.119.054.075.146-.036.193-.015.2.09s-.04.125-.146.1c-.127-.035-.132-.025-.028.069.126.115.07.344-.085.344-.055,0-.074-.022-.047-.055.056-.068-.573-.068-.665,0-.036.028.019.032.128.01a.292.292,0,0,1,.255.042c.038.046.019.079-.045.079s-.085.048-.054.11c.065.13-.05.142-.211.02-.1-.073-.118-.072-.118,0a.056.056,0,0,1-.082.055c-.045-.021-.059-.131-.032-.241.044-.179.031-.191-.1-.1-.082.053-.132.129-.1.162s-.018.062-.1.062-.141.04-.129.089a.392.392,0,0,1-.286.43c-.091.006-.283.007-.429,0s-.264.032-.264.08-.041.037-.093-.025c-.1-.122-.334-.041-.544.193-.11.124-.108.144.017.144.082,0,.146-.027.146-.061,0-.106.173-.055.237.068.035.069.033.1,0,.073s-.123,0-.192.072c-.173.172-.171.264,0,.213.217-.062.174.01-.063.1-.146.059-.182.058-.133,0s-.013-.072-.177-.049c-.137.019-.247,0-.247-.037s-.039-.054-.091-.03c-.132.061-.119-.064.017-.167.227-.171-.108-.083-.363.1-.137.1-.3.157-.356.131s-.073-.015-.041.024-.132.145-.369.234c-.447.169-.482.218-.32.451.072.1.072.171,0,.237-.052.049-.079.11-.055.128s-.014.034-.1.034-.116-.029-.082-.069-.05-.015-.187.052a.8.8,0,0,0-.31.244c-.057.112-.071.11-.146-.02s-.082-.127-.086-.021a.145.145,0,0,1-.155.124c-.082,0-.124.033-.091.072s.02.072-.032.072a.19.19,0,0,1-.146-.11.12.12,0,0,0-.155-.063c-.164.075.073.321.264.275.137-.033.141-.027.023.036a.244.244,0,0,1-.255,0c-.073-.046-.136-.045-.174,0s-.013.076.041.076.1.032.1.072-.069.072-.151.072-.129.025-.1.055-.1.051-.278.045-.3.014-.278.044c.04.049-.237.168-.328.141s-.186.181-.109.216c.05.024.009.083-.092.132-.155.076-.174.071-.132-.038s.032-.11-.1.007c-.082.076-.187.115-.241.09s-.14.017-.2.1c-.113.159-.011.2.167.068.064-.048.144-.069.173-.047s-.091.125-.273.23c-.274.158-.371.177-.584.115-.328-.1-.37-.094-.289.006.035.043-.016.119-.117.175-.118.067-.135.1-.05.1s.041.056-.1.141a.412.412,0,0,1-.387.071c-.246-.1-.3-.075-.161.066.069.069.088.1.042.072-.113-.073-.46.073-.387.162.1.124-.076.076-.2-.055-.1-.108-.116-.1-.084.09.02.117.013.155-.014.085s-.09-.108-.137-.085-.056.1-.023.158c.049.088.023.105-.1.069-.092-.026-.149-.023-.125.006.059.074-.017.162-.263.307-.164.1-.176.1-.123-.011a.238.238,0,0,0-.087-.251c-.082-.075-.12-.1-.086-.045s0,.09-.087.09c-.191,0-.191.119,0,.2s.109.129-.629.422a3.433,3.433,0,0,0-.593.279c-.035.038-.093-.02-.13-.13-.077-.234-.047-.271.24-.286.127-.006.182-.047.15-.11a.492.492,0,0,1-.05-.131c0-.017-.1-.029-.214-.027-.174,0-.187.018-.073.079s.086.067-.1.039c-.255-.04-.629.119-.539.229.032.04,0,.086-.086.11s-.141,0-.141-.065c0-.085-.041-.078-.2.038-.109.077-.243.127-.287.106s-.082,0-.082.038-.055.076-.128.076c-.186,0-.426.234-.4.385.037.18.058.188.313.113.146-.043.194-.094.146-.154-.118-.145-.118-.283,0-.25.064.017.1.061.091.105s.055.066.146.052.194-.027.232-.031a.082.082,0,0,0,.069-.082.045.045,0,0,0-.069-.045.5.5,0,0,1-.259-.028c-.18-.054-.178-.058.022-.062.119,0,.215-.038.215-.082s.1-.033.241.038c.183.088.251.1.279.027.125-.3.136-.311.141-.179,0,.069.05.11.1.086s.072,0,.041.066-.083.11-.119.11a1.123,1.123,0,0,0-.31.172,3.49,3.49,0,0,1-1.276.571.755.755,0,0,0-.173-.059l-.142-.02c-.038-.006.009-.053.11-.107.155-.084.157-.1.018-.1-.091,0-.16.025-.16.058s-.045.059-.1.059-.079-.025-.055-.055-.072-.051-.209-.045c-.192.008-.248.042-.224.138.019.075-.008.107-.068.079a.53.53,0,0,0-.57.192l-.132.166.228-.16a1.064,1.064,0,0,1,.939-.063c.082.039.151.031.173-.018.039-.089.31-.035.31.062,0,.036-.059.044-.141.02s-.143-.008-.146.038-.091.079-.2.079-.169.033-.127.083.013.069-.069.048a5.113,5.113,0,0,0-1.332.461c-.1.089-.571.118-.572.034,0-.062-.018-.062-.07,0a.3.3,0,0,1-.237.062c-.091-.011-.145.007-.118.038s-.037.08-.146.107-.2.078-.2.117-.029.063-.073.056a1.012,1.012,0,0,0-.572.219c-.069.062-.1.077-.075.031s-.01-.073-.137-.048c-.11.022-.192.076-.192.127,0,.11-.488.288-.567.207a.509.509,0,0,0-.445-.006.568.568,0,0,1-.26.054c-.155,0-.166-.019-.065-.11.171-.156-.04-.138-.249.02a.8.8,0,0,1-.383.131.935.935,0,0,0-.347.079,2.677,2.677,0,0,1-.392.158c-.21.069-.264.068-.264,0,0-.049-.064-.028-.142.048s-.17.116-.205.089c-.079-.06-.319.131-.319.255,0,.055-.082.1-.191.1s-.192-.023-.192-.055.06-.055.132-.055a.226.226,0,0,0,.189-.11c.059-.116-.047-.132-.4-.059-.146.031-.179.064-.1.1s0,.05-.16.044a.712.712,0,0,1-.351-.082c-.048-.049-.073-.045-.073.01s-.127.1-.282.129c-.274.045-.411.181-.183.181.064,0,.087.018.055.044s-.173-.025-.31-.106a.59.59,0,0,0-.342-.11c-.052.024-.087.023-.087,0s.1-.072.215-.106c.168-.049.127-.06-.192-.052-.228.006-.39.042-.369.082a.29.29,0,0,1-.041.217c-.052.1-.081.108-.087.035s-.118-.116-.364-.128a.781.781,0,0,1-.388-.082c-.018-.037-.087-.049-.16-.028-.1.03-.116-.027-.077-.247s.014-.3-.109-.331a.2.2,0,0,0-.251.117c-.075.133-.084.117-.05-.089.024-.152,0-.273-.073-.306s-.064-.056.054-.059c.092,0,.169-.035.169-.072s-.064-.051-.146-.028c-.1.03-.146,0-.146-.113,0-.083.045-.134.1-.11s.071-.007.041-.069-.084-.114-.118-.114-.074-.079-.087-.182.025-.182.087-.182.081-.022.041-.052a.352.352,0,0,0-.183-.052c-.064,0-.128-.075-.146-.171s.009-.154.06-.131.072-.035.045-.138-.092-.179-.146-.179-.073-.02-.041-.044,0-.088-.082-.148a.3.3,0,0,1-.132-.224c.006-.076.027-.087.057-.031.071.135.2.11.177-.034a.831.831,0,0,0-.343-.537c-.21-.158-.238-.324-.064-.377.073-.022.078-.039.013-.043s-.09-.106-.068-.258c.029-.2,0-.251-.132-.251s-.138-.015-.041-.062.109-.068,0-.1-.1-.043,0-.048.091-.042-.041-.152c-.165-.137-.164-.144.01-.144s.173-.005.009-.1c-.11-.063-.137-.118-.073-.148a.172.172,0,0,0,.1-.134c0-.062-.019-.063-.068,0s-.1.061-.183-.007-.064-.111.11-.183c.127-.053.2-.134.173-.189a.116.116,0,0,0-.151-.052c-.063.029-.078,0-.041-.075s.021-.121-.032-.121a.09.09,0,0,0-.091.079c0,.042-.045.058-.1.035s-.073-.076-.041-.117,0-.12-.055-.176a.333.333,0,0,1-.05-.316c.034-.124.017-.232-.041-.258s-.1-.007-.1.041-.026.068-.059.045-.024-.083.022-.138c.093-.11.124-.344.047-.348a.863.863,0,0,1-.224-.1c-.139-.079-.151-.131-.072-.289.094-.186-.033-.275-.136-.1-.029.05-.026,0,.008-.121.04-.144.025-.193-.051-.158s-.089.014-.05-.062.014-.114-.041-.114-.088-.082-.073-.185c.02-.138-.008-.175-.109-.145-.073.022-.111.01-.082-.027s.013-.088-.041-.114a.22.22,0,0,1-.1-.185.143.143,0,0,0-.141-.141c-.109,0-.121-.042-.05-.179s.058-.179-.051-.179c-.089,0-.141-.069-.141-.186s-.043-.166-.1-.141-.1-.024-.1-.107-.041-.133-.091-.11-.083-.048-.073-.158c.016-.165-.016-.2-.182-.179s-.2-.021-.2-.2a.489.489,0,0,0-.205-.368c-.109-.079-.205-.18-.205-.217a6.673,6.673,0,0,0-1.231-.938,1.138,1.138,0,0,1-.3-.173,1.2,1.2,0,0,0-.365-.189.414.414,0,0,1-.21-.11.3.3,0,0,0-.255-.072c-.073.021-.109.01-.081-.024.067-.082-.963-.393-1.136-.343a.292.292,0,0,1-.242-.056,1.325,1.325,0,0,0-.524-.145.861.861,0,0,1-.471-.151c-.055-.111-.34-.069-.469.068-.1.111-.863-.509-.818-.667.018-.066-.07-.2-.189-.286s-.2-.187-.182-.216-.059-.2-.183-.379c-.352-.509-.526-.823-.495-.894.014-.034-.074-.091-.193-.124s-.219-.1-.219-.145.064-.065.137-.044c.1.027.123,0,.087-.1s-.077-.12-.151-.065c-.166.124-.295.09-.153-.041.117-.107.112-.118-.034-.079-.109.029-.16.014-.146-.042s-.031-.078-.1-.069c-.157.023-.146-.023.036-.161.135-.1.128-.115-.1-.179-.137-.038-.246-.089-.246-.114s.036-.028.091,0a.143.143,0,0,0,.159-.048c.037-.048.035-.067,0-.04-.1.066-.438-.063-.438-.167,0-.04.055-.052.119-.024s0-.033-.155-.144c-.274-.2-.274-.2-.1-.351.158-.138.159-.144.009-.059s-.16.08-.1-.027.018-.118-.118-.1-.183-.02-.183-.13a.471.471,0,0,0-.168-.293c-.093-.076-.136-.165-.1-.2s-.046,0-.192.069c-.237.118-.3.1-.263-.062.01-.038-.118-.172-.288-.3s-.28-.266-.246-.307-.023-.088-.133-.11a.285.285,0,0,0-.269.069c-.062.086-.136.064-.383-.113-.164-.119-.278-.221-.246-.221s.008-.048-.059-.11a.356.356,0,0,0-.228-.1c-.255.023-.347-.017-.347-.154,0-.154-.291-.377-.528-.4-.1-.01-.143.039-.137.142s.029.123.055.076.127-.066.228-.046c.309.061.209.141-.192.152-.21.006-.383-.023-.383-.065s.035-.058.078-.038.077-.01.077-.065c0-.075-.1-.1-.365-.079-.282.019-.364,0-.364-.093,0-.076-.027-.088-.075-.034-.08.089-.409.1-.409.013,0-.03-.145-.009-.319.045-.228.071-.347.078-.419.024-.131-.1-1.1-.007-1.019.1.034.042-.034.038-.153-.01-.146-.058-.194-.061-.15-.007s-.014.079-.132.079-.2.026-.2.059-.142.066-.306.076a.759.759,0,0,0-.383.1c-.043.048-.077.062-.077.031s-.1-.015-.215.034a.714.714,0,0,1-.287.072.06.06,0,0,0-.073.062c0,.045-.077.069-.178.055a.585.585,0,0,0-.337.076.9.9,0,0,1-.4.1c-.136,0-.21.032-.173.076s0,.057-.091.031a.205.205,0,0,0-.21.041c-.029.046-.035.013-.013-.069.027-.1,0-.143-.082-.12a.205.205,0,0,1-.187-.045.4.4,0,0,0-.274-.073c-.2.007-.2.01-.018.069.155.051.16.063.027.066a.312.312,0,0,1-.219-.066.209.209,0,0,0-.2-.027c-.11.031-.118.067-.032.144.061.055.09.121.064.141s-.1-.007-.164-.068c-.1-.093-.142-.086-.324.051-.219.165-.3.337-.155.337.052,0,.091-.031.091-.072s.123-.072.269-.072a.946.946,0,0,0,.46-.134.417.417,0,0,1,.4-.076c.118.033.209.091.209.134,0,.106-.163.1-.229-.013-.03-.052-.043-.028-.03.055.018.119-.023.14-.242.123-.146-.011-.265.009-.265.045s-.2.106-.433.155a1.445,1.445,0,0,0-.492.165c-.039.049,0,.056.123.019.4-.126.546-.123.228,0a.72.72,0,0,1-.552.063c-.2-.068-.2-.079-.041-.179a.734.734,0,0,0,.233-.227c.046-.094.018-.112-.128-.083-.1.021-.187.091-.187.152s-.027.092-.059.065-.114-.014-.187.031c-.137.084-.182.216-.064.187a.752.752,0,0,1,.31.107c.214.112.164.169-.118.137-.044,0-.068.014-.061.048.032.145-.03.141-.258-.02a.769.769,0,0,0-.356-.159c-.155.021-.356.164-.356.254a.17.17,0,0,1-.109.127c-.073.035-.084.021-.032-.041s.041-.076-.032-.041-.09.076-.064.11-.045.077-.155.1-.172.073-.132.12.114.052.224-.015a.561.561,0,0,1,.465-.066c.035.005-.06.09-.215.191-.182.12-.215.165-.1.131s.161-.026.113.034a.368.368,0,0,1-.259.086c-.11,0-.17.025-.142.059s0,.06-.068.062a1.89,1.89,0,0,0-.214.02,1.774,1.774,0,0,1-.283.011c-.164-.006-.17-.02-.046-.114a.839.839,0,0,1,.351-.131.7.7,0,0,0,.288-.086c.04-.032.018-.037-.046-.01s-.123.017-.123-.021-.082-.06-.191-.044c-.274.039-.393.107-.329.186.031.039-.013.068-.105.068a.656.656,0,0,0-.346.179.526.526,0,0,1-.3.162c-.062-.009-.128.079-.146.2-.024.158-.053.187-.114.11s-.136-.058-.351.121a2.877,2.877,0,0,1-.579.357c-.173.075-.31.172-.31.22s-.055.1-.118.124-.055.04.045.043a.172.172,0,0,1,.073.327c-.055.025-.079.072-.055.1s-.041.05-.15.045a.43.43,0,0,1-.274-.107c-.051-.064-.136-.076-.255-.035-.162.057-.159.065.032.09a.659.659,0,0,1,.316.124c.134.122-.216.363-.435.3-.132-.038-.123-.065.069-.186.118-.075.168-.142.105-.144s-.119.028-.119.065-.059.052-.123.035a.514.514,0,0,0-.31.072c-.173.1-.174.107-.014.11.092,0,.143.039.11.079s-.027.07.018.064q.3-.043.091.115c-.154.117-.463.1-.417-.028.014-.039-.016-.069-.071-.069s-.084.032-.068.073-.014.053-.068.027-.216.055-.356.172a1.1,1.1,0,0,1-.337.217,2.186,2.186,0,0,0-.488.289c-.228.161-.358.289-.292.289s.119-.029.119-.062c0-.144.437-.144.629,0,.164.124.167.138.023.1-.092-.027-.169-.087-.169-.131s-.038-.038-.091.024-.067.135-.032.175,0,.043-.078.005c-.155-.073-.665-.087-.665-.018a8.942,8.942,0,0,1-1.432,1.066c-.109,0-.634.485-.6.557.041.1.306.083.418-.02a.391.391,0,0,1,.19-.1c.043,0-.027.085-.16.2-.2.165-.264.183-.41.117-.128-.059-.2-.058-.283,0-.152.112-.137.2.037.2.115,0,.086.055-.11.213-.145.117-.285.2-.31.179s0-.069.064-.117c.137-.1.148-.275.018-.275a1.579,1.579,0,0,0-.674.509c0,.038-.082.069-.183.069-.182,0-.333.18-.243.289.029.034,0,.084-.062.113s-.09.022-.046-.031c.1-.116-.08-.11-.209.007a.278.278,0,0,0-.114.262c0,.039-.083.052-.192.031-.246-.049-.381.182-.173.3.176.1.036.237-.237.237-.156,0-.156-.007-.008-.131.23-.192.044-.163-.293.046-.155.1-.254.2-.219.226s.064.01.064-.038.055-.048.164.035c.157.118.155.129-.055.258-.118.072-.187.134-.15.134s-.032.066-.16.151-.164.127-.082.1.11-.026.064.011a.485.485,0,0,1-.242.072l-.378.017c-.119.006-.192.045-.16.086s.119.052.228.007c.128-.052.169-.044.169.034,0,.056-.077.1-.169.1a.508.508,0,0,0-.318.158c-.15.159-.2.1-.154-.158.014-.076-.056-.055-.23.068-.219.157-.23.188-.091.245s.133.077.027.127-.109.075.01.141.1.071-.06.034-.218,0-.273.121a.534.534,0,0,0-.059.22c.007.031-.146.112-.347.182a1.513,1.513,0,0,0-.392.179.241.241,0,0,1-.169.052c-.073,0-.131.026-.124.055.035.158-.021.239-.131.19-.081-.036-.079-.015.009.068s.1.16.05.213.078-.006.26-.124.3-.237.255-.261,0-.091.087-.145.137-.061.1-.017-.026.093.032.108c.129.032-.729.567-.966.6a1.308,1.308,0,0,0-.47.267c-.238.2-.3.222-.383.131s-.1-.089-.114.034a1.385,1.385,0,0,0,0,.272.107.107,0,0,1-.091.128c-.062,0-.087.072-.06.175.038.147.005.175-.205.172a3.875,3.875,0,0,0-.579.052c-.3.05-.31.06-.109.116.241.068.182.225-.073.192-.082-.01-.162.023-.169.07s-.02.126-.027.169-.1.061-.2.041a.312.312,0,0,0-.242.028.381.381,0,0,1-.237.065.267.267,0,0,0-.241.144c-.034.083-.1.145-.146.145s-.059.055-.028.117a.127.127,0,0,1-.027.165,2.2,2.2,0,0,0-.292.248c-.2.192-.207.194-.267.055-.083-.193-.3-.2-.316-.007a.123.123,0,0,0,.137.144c.118,0,.127.022.041.1a.58.58,0,0,1-.338.1c-.228,0-.673.271-.6.364.024.031-.016.1-.089.148-.091.064-.132.067-.132.007s-.046-.057-.146.007c-.119.076-.124.1-.028.152.135.067,0,.1-.328.071-.2-.015-.224.07-.055.2.092.068.092.088,0,.088a.113.113,0,0,0-.118.11c0,.086-.037.1-.164.041s-.224-.033-.4.072a.6.6,0,0,1-.351.107c-.067-.019-.182.066-.264.2s-.182.216-.224.2-.093.031-.112.107c-.04.158-.193.319-.293.31-.21-.02-.3.034-.3.178a.356.356,0,0,1-.4.337.5.5,0,0,0-.314.217c-.081.117-.174.217-.2.217s-.024-.031.009-.073-.045-.072-.182-.072c-.173,0-.226.031-.187.11.049.1-.064.145-.282.115-.045-.006-.054.023-.019.064s.019.076-.036.076-.09.028-.078.062c.03.083-.57.516-.716.516-.063,0-.082.019-.045.047.1.078-.237.311-.456.311s-.874.455-.79.557c.029.034-.022.067-.113.072-.465.029-.735.085-.745.155l-.025.176c-.009.061-.037.066-.082.013a.366.366,0,0,0-.237-.079c-.11,0-.139.028-.082.079s.031.134-.06.224-.159.116-.186.058-.114-.069-.206-.048-.073-.019.073-.11c.128-.08.212-.167.183-.189s-.178.039-.333.141c-.228.149-.253.2-.137.251a.321.321,0,0,0,.242.024c.054-.024.05,0-.009.045a.259.259,0,0,1-.288.021.659.659,0,0,0-.419,0c-.146.044-.193.086-.119.107a.375.375,0,0,0,.265-.052c.116-.071.151-.065.2.031.08.162.007.2-.385.218-.337.013-.612.112-.31.112.17,0,.2.124.074.276-.069.079-.094.075-.142-.021a.13.13,0,0,0-.151-.076.1.1,0,0,0-.041.141.118.118,0,0,1-.068.155c-.079.037-.092.021-.037-.048s-.023-.038-.15.041-.255.157-.283.172.055.007.192-.021c.218-.043.223-.04.05.038a3.353,3.353,0,0,0-.4.227.409.409,0,0,1-.328.086c-.073-.033-.094-.026-.054.021s-.055.133-.2.2a3.435,3.435,0,0,0-.529.334c-.194.151-.278.181-.314.11a.231.231,0,0,0-.187-.1c-.092,0-.108.026-.051.079s.037.13-.05.22-.137.107-.137.069a.294.294,0,0,1,.114-.162c.071-.055.076-.09.014-.09a1.117,1.117,0,0,0-.543.455.338.338,0,0,1-.3.123c-.155,0-.258.051-.3.145a.921.921,0,0,1-.733.379c-.091-.011-.173.016-.173.058s.045.058.109.027.083-.017.046.032a.185.185,0,0,1-.192.044.171.171,0,0,0-.187.079.129.129,0,0,1-.15.076c-.052-.024-.119.021-.155.1s-.1.128-.146.107-.243.093-.447.258a2.3,2.3,0,0,1-.583.361c-.119.036-.2.094-.169.127s-.055.1-.191.148c-.155.056-.218.118-.174.176s.033.064-.009.034a.219.219,0,0,0-.21.028c-.072.045-.132.059-.132.031s-.114.015-.251.1a1.092,1.092,0,0,1-.446.148c-.11,0-.168.021-.132.048.087.066-.411.4-.52.345-.049-.022-.115.023-.142.1a.682.682,0,0,1-.387.241,1.017,1.017,0,0,0-.433.234.219.219,0,0,1-.219.1c-.069-.021-.218.055-.337.172s-.259.19-.315.165-.071-.01-.037.031c.078.093-.455.447-.674.447-.082,0-.125.023-.091.048.1.075-.128.241-.329.241-.1,0-.182.033-.182.073s-.055.072-.119.072a.423.423,0,0,0-.246.151c-.116.138-.109.147.082.1.146-.034.191-.025.146.03a.363.363,0,0,1-.237.079.659.659,0,0,0-.333.131.591.591,0,0,1-.369.117c-.246-.016-.606.189-.456.26.051.024-.045.1-.219.17s-.238.084-.136.021.138-.123.077-.151-.148.017-.219.1a.381.381,0,0,1-.2.145c-.127,0-.541.342-.474.392s-.191.072-.447.052c-.091-.006-.11.01-.05.044a.311.311,0,0,1,.123.159c.024.091.009.091-.137,0s-.158-.091-.109.013c.042.089,0,.112-.173.1a.428.428,0,0,0-.283.044c-.028.034,0,.069.068.073s-.009.051-.164.1a.793.793,0,0,1-.373.055c-.051-.024-.059-.007-.019.041s0,.083-.114.083c-.228,0-.541.249-.451.358.047.057-.014.067-.2.034s-.243-.022-.2.034.018.068-.082.038c-.082-.024-.151-.009-.151.035a.1.1,0,0,1-.1.079.569.569,0,0,0-.251.117c-.123.1-.127.128-.018.182s.1.066-.014.066a.494.494,0,0,1-.25-.076c-.077-.055-.146-.046-.256.034a.615.615,0,0,1-.273.114c-.08,0-.064.037.045.1.156.088.151.1-.068.13-.128.019-.214.006-.187-.027s-.018-.062-.1-.062a.376.376,0,0,0-.265.186.261.261,0,0,1-.278.154c-.118-.022-.149,0-.109.086a.431.431,0,0,0,.155.169c.055.028.071.074.036.1s-.123.012-.205-.038a.327.327,0,0,0-.337-.007c-.164.066-.186.059-.137-.041.041-.083.018-.11-.073-.086a.2.2,0,0,0-.128.189c0,.083-.031.155-.072.155s-.078.045-.078.107c0,.081-.091.1-.383.082-.41-.026-.6.069-.374.187.093.048.06.055-.1.019a.718.718,0,0,1-.31-.13c-.042-.049-.07-.028-.073.055s-.051.119-.127.1a.485.485,0,0,0-.306.062c-.164.09-.166.1-.018.1.091,0,.164.027.164.062s-.132.055-.287.048c-.237-.011-.278.01-.233.12s.02.124-.1.09a.163.163,0,0,0-.2.065.235.235,0,0,1-.242.086c-.1-.013-.164,0-.137.034s-.164.1-.428.148a1.122,1.122,0,0,0-.479.152c0,.033.077.041.169.017s.135-.018.086.021a.633.633,0,0,1-.31.065c-.127,0-.232.032-.237.072s-.073.1-.146.131-.136.092-.136.131.05.047.1.02q.1-.051-.009.114c-.1.138-.089.158.032.124Zm.547.349a.16.16,0,0,1,.091.129c0,.054-.035.045-.093-.024-.118-.138-.117-.162,0-.1Zm1.473.029a.186.186,0,0,1,.1.072c.033.04.014.073-.041.073s-.1-.033-.1-.073.017-.072.041-.072Zm1.358-.774a.115.115,0,0,1,.01.141c-.03.057-.054.038-.06-.045s.019-.12.05-.1Zm.178-.526c.082,0,.146.013.146.031s-.064.049-.146.072-.146.01-.146-.031.064-.072.146-.072Zm1.322-.523c.073-.02.128.005.128.058s-.055.077-.128.055-.127-.046-.127-.058.054-.035.127-.055Zm1.5-.2c.055,0,.1.031.1.072s-.041.073-.1.073-.1-.031-.1-.073.041-.072.1-.072Zm2.663-2.68c.155-.091.158-.09.039.024s-.208.163-.208.1a.585.585,0,0,1,.169-.127Zm13.772-7.765c.082-.007.12.006.087.031a.5.5,0,0,1-.205.059c-.082.007-.12-.006-.087-.031a.508.508,0,0,1,.205-.059Zm6.98-4.2c.027.022-.027.064-.118.09-.137.039-.147.031-.05-.042.063-.048.141-.07.168-.048Zm.192,7.28c.038,0,.016.048-.05.11a.4.4,0,0,1-.21.11c-.051,0-.03-.048.05-.11a.5.5,0,0,1,.21-.11Zm1.923-8.945c.117-.1.01.131-.113.248-.141.132-.142.13-.032-.042a1.843,1.843,0,0,1,.145-.206Zm1.118-.215c.205-.03.2.011-.019.164-.173.12-.181.12-.159-.007a.21.21,0,0,1,.178-.157Zm.31,7.4c.091-.026.13-.015.095.027a.212.212,0,0,1-.15.073c-.138,0-.11-.053.055-.1Zm.957-8.67c.091-.026.131-.015.1.028a.217.217,0,0,1-.151.072c-.138,0-.109-.053.055-.1Zm1.532-1.156c.091-.026.13-.015.1.028a.217.217,0,0,1-.151.072c-.138,0-.109-.053.055-.1Zm2.229,7.576c.027.02,0,.079-.068.127-.1.073-.106.066-.05-.038.037-.068.091-.109.118-.089Zm.41-9.286c.055,0,.071.031.037.072a.217.217,0,0,1-.155.073c-.055,0-.07-.031-.037-.073a.222.222,0,0,1,.155-.072Zm2.262,7.8c.155-.092.158-.09.039.024s-.208.163-.208.1a.551.551,0,0,1,.169-.127Zm-.073-10.036c.054,0,.1.031.1.072s-.042.073-.1.073-.1-.031-.1-.073.041-.072.1-.072Zm.456,9.671c.155-.092.158-.09.039.024s-.208.163-.208.1a.551.551,0,0,1,.169-.127Zm1.928-11.26a.216.216,0,0,1,.151.117c.048.1.033.1-.087.027-.173-.105-.19-.144-.064-.144Zm.388-.324c.049-.023.065.021.036.1-.059.172-.123.194-.123.042a.177.177,0,0,1,.087-.145Zm.387-.074a.165.165,0,0,1,.1.116c0,.036-.063.024-.136-.026-.153-.105-.128-.167.036-.09Zm.21-.3c.146.027.179.015.109-.038-.135-.1-.045-.264.2-.361.2-.077.2-.076.018.076-.1.082-.14.155-.091.155.133,0,.1.268-.046.378-.085.064-.109.055-.109-.041a.136.136,0,0,0-.146-.124c-.082,0-.146-.018-.146-.041s.091-.025.21,0Zm2.019-1.582c.033-.025.049.007.037.069a.307.307,0,0,1-.082.158c-.032.024-.049-.007-.037-.069a.31.31,0,0,1,.082-.158Zm.721-.489c-.082-.025-.084-.04-.005-.043.192-.009.219.123.046.225-.146.086-.151.083-.041-.024s.1-.128,0-.158Zm.5-.341c.055,0,.1.015.1.035s-.041.053-.1.079-.1.007-.1-.034a.092.092,0,0,1,.1-.08Zm.329-.213a.186.186,0,0,1,.1.072c.032.04.014.073-.041.073s-.1-.033-.1-.073.017-.072.041-.072Zm.145.213c.055,0,.1.015.1.035s-.041.053-.1.079-.095.007-.095-.034a.092.092,0,0,1,.095-.08Zm.625-.933a.314.314,0,0,1,.251-.033c.064.029.088.018.054-.024s0-.112.064-.152c.1-.058.126-.041.137.076.016.172-.34.422-.524.368-.162-.047-.155-.128.018-.235Zm.383.215c.082-.053.146-.06.146-.018s-.064.094-.146.117-.146.031-.146.018a.478.478,0,0,1,.146-.117Zm.556-.486.31-.013-.237.1c-.237.1-.389.088-.385-.021,0-.027.139-.054.312-.062Zm2.02-1.592c.073.051.117.1.1.12-.053.042-.23-.069-.23-.145,0-.038.059-.027.132.025Zm1.062-.686c.128-.018.25,0,.264.032s.128-.005.247-.088c.21-.148.276-.115.126.064a1.023,1.023,0,0,1-.518.113c-.456.018-.534-.061-.119-.121Zm2.179-1.073c.168.124.018.172-.209.066-.165-.076-.173-.1-.046-.117a.4.4,0,0,1,.255.051Zm.023-.233c.082.024.141.071.141.113s-.059.035-.141-.017a.438.438,0,0,1-.141-.114c0-.014.059-.006.141.018Zm5.525-1.47c.074.023.051.04-.059.042s-.155-.015-.123-.038a.269.269,0,0,1,.182,0Zm1.231-.313a.079.079,0,0,1,.087.073c0,.04-.064.072-.146.072s-.12-.032-.086-.072a.2.2,0,0,1,.145-.073Zm.333.434c.073,0,.137.026.137.055s-.082.055-.182.055-.162-.025-.137-.055a.289.289,0,0,1,.182-.055Zm.83.3c.356.089.4.153.118.183-.072.008-.136-.017-.136-.053s-.082-.069-.183-.069a1.514,1.514,0,0,1-.355-.051c-.343-.1.155-.11.556-.01Zm.7-.421c.073,0,.137.029.137.062,0,.076-.128.084-.215.014s-.086-.076.078-.076Zm.771.626c.082,0,.123.033.091.072a.214.214,0,0,1-.151.073.081.081,0,0,1-.091-.073c0-.039.068-.072.151-.072Zm1.144.2c.082.024.126.058.1.078a.178.178,0,0,1-.146-.014c-.157-.074-.127-.115.046-.064Zm.465-.053a.229.229,0,0,1,.187.1c.035.072-.005.092-.132.066-.21-.043-.251-.169-.055-.169Zm.045,10.077a.379.379,0,0,1,.13.223c.054.212-.076.145-.147-.076-.027-.082-.05-.153-.056-.165s.024-.005.073.018Zm.529-9.788a.574.574,0,0,1,.169.127c.121.117.119.119-.032.03s-.216-.157-.137-.157Zm.347.474a.318.318,0,0,0,.26-.048c.136-.082.147-.081.073.011s-.06.09.059.018c.161-.1.273-.056.273.1,0,.051-.063.1-.136.1a1.376,1.376,0,0,1-.63-.185c0-.023.046-.02.1.006Zm.925,15.042a.222.222,0,0,1,0,.182c-.028.053-.05.014-.05-.089s.022-.144.05-.093Zm.269,1.1a1.189,1.189,0,0,1,.128.361c0,.06-.059-.006-.128-.144a1.237,1.237,0,0,1-.127-.361c0-.059.057.007.127.144Zm5.886-10.7a.093.093,0,0,1,.1.079c0,.041-.046.058-.1.035s-.1-.06-.1-.08.041-.034.1-.034Zm1.445,1.773a.16.16,0,0,1,.091.129c0,.054-.035.045-.093-.024-.118-.137-.117-.162,0-.105Zm.187-.906c.055,0,.1.031.1.072s-.041.072-.1.072-.1-.03-.1-.072.041-.072.1-.072Zm2.817,7.012a.179.179,0,0,1,.1.072c.032.039.013.072-.041.072s-.1-.033-.1-.072.018-.072.041-.072Zm.593,1.462a.113.113,0,0,1,.009.141c-.029.056-.054.037-.059-.045s.018-.12.05-.1Zm.958-.145a.116.116,0,0,1,.009.141c-.03.056-.054.038-.06-.044s.019-.121.051-.1Zm.341.152c.075.022.051.039-.059.041s-.159-.016-.128-.038a.254.254,0,0,1,.187,0Zm.844,2.645c.055,0,.1.031.1.072s-.041.073-.1.073-.1-.031-.1-.073.041-.072.1-.072Zm.948.764c.05-.024.065.02.037.1-.059.172-.123.194-.123.041a.177.177,0,0,1,.086-.144Zm1.632,9.9c.053-.024.1-.01.1.031a.088.088,0,0,1-.1.075c-.054,0-.1-.013-.1-.03s.041-.051.1-.076Zm4.272-10.753c.082.024.126.058.1.078a.178.178,0,0,1-.146-.014c-.156-.074-.127-.115.046-.064Zm.374,10.35c.082,0,.146.032.146.073s-.064.072-.146.072-.146-.032-.146-.072.064-.073.146-.073Zm-.055-10.141a.13.13,0,0,1,.151.03c.033.041-.005.072-.087.072-.164,0-.191-.042-.064-.1Zm.862-.476c.1,0,.091.029-.046.107a.851.851,0,0,1-.328.107c-.1,0-.091-.029.046-.107a.851.851,0,0,1,.328-.107Zm3.547-1.734c.054,0,.1.014.1.031s-.041.05-.1.076-.1.01-.1-.031a.088.088,0,0,1,.1-.076Zm.611-.567.136.137c.09.09.088.114-.009.114a.148.148,0,0,1-.136-.138c-.008-.075,0-.126.009-.113Zm10.426-4.873c.091-.024.164-.013.164.025s.05.069.1.069.085-.026.064-.055.037-.117.132-.193c.156-.123.179-.126.234-.02.087.165.023.359-.124.38-.073.011-.085,0-.028-.016s.1-.065.1-.1-.118-.022-.273.038a.575.575,0,0,1-.342.059c-.037-.026-.035.017.005.092.067.131.059.134-.11.035-.1-.059-.152-.068-.114-.021a.079.079,0,0,1-.023.128.171.171,0,0,1-.18-.083c-.1-.133.025-.237.39-.335Zm.976-.271c.173,0,.278.122.155.18-.052.025-.1,0-.1-.045,0-.066-.027-.062-.1.013-.083.093-.1.09-.1-.02a.135.135,0,0,1,.137-.128Zm1.1-.739c.109-.022.182,0,.169.044s.032.075.1.065c.191-.029.137.083-.091.19-.2.1-.208.093-.086-.017.075-.069.106-.124.073-.127s-.1-.015-.156-.025l-.141-.026c-.1-.021-.036-.07.137-.1Zm1.053-.2c.055,0,.1.013.1.031s-.041.05-.1.075-.1.011-.1-.031a.088.088,0,0,1,.1-.075Zm.141-.406a.132.132,0,0,1,.087.148c-.012.1.009.107.146.031s.121-.059-.014.051-.19.12-.251.045c-.106-.131-.085-.307.032-.275Zm5.339-2.6c.074.023.05.04-.059.041s-.156-.015-.123-.037a.268.268,0,0,1,.182,0Zm.173-.206c.052-.024.1-.011.1.031a.088.088,0,0,1-.1.075c-.054,0-.1-.013-.1-.03s.042-.051.1-.076Zm4.1-1.636c.146-.084.149-.081.032.029a.568.568,0,0,1-.169.124c-.079,0-.027-.058.137-.153Zm.355-.23c.174.05.185.141.028.215-.064.03-.083.018-.046-.028a.082.082,0,0,0-.036-.126c-.146-.068-.11-.108.054-.061Zm1.87,5.331c.143-.066.222.013.151.151a.13.13,0,0,1-.161.068c-.122-.059-.118-.16.01-.219Zm.237-4.105c.091-.026.13-.015.1.028a.213.213,0,0,1-.15.072c-.138,0-.109-.053.055-.1Zm.761,4.311c.082,0,.12.026.091.062a.188.188,0,0,1-.141.062c-.055,0-.091-.025-.091-.062s.059-.062.141-.062Zm.15-.454c.048,0,.06.044.028.106a.181.181,0,0,1-.137.107c-.048,0-.059-.045-.027-.107a.178.178,0,0,1,.136-.106Zm.294-1.487c.121-.172.174-.212.135-.1s-.076.228-.091.286a.192.192,0,0,1-.137.132c-.146.034-.14.016.093-.315Zm.121.8c.073-.055.161-.078.2-.052.115.088.054-.1-.064-.192-.067-.055-.071-.077-.009-.052s.134-.024.162-.106c.076-.219.238-.1.194.137-.033.179-.027.184.055.045a.608.608,0,0,1,.191-.2.084.084,0,0,0,.037-.127c-.043-.053-.019-.06.073-.021.109.047.112.038.013-.045s-.134-.09-.205,0c-.045.055-.1.072-.131.038-.065-.081,0-.165.259-.318.164-.1.176-.1.118.029s-.036.12.073.051.151-.068.205,0,.029.068-.041.035-.109,0-.109.075a.446.446,0,0,1-.155.258c-.122.1-.13.154-.037.238.069.062.1.109.083.113l-.219.035a.467.467,0,0,0-.256.117c-.068.082-.565.155-.565.082,0-.019.059-.079.132-.134Zm.351-1.145c.05.022.065-.011.032-.073s-.016-.113.037-.113a.21.21,0,0,1,.155.113.131.131,0,0,0,.177.062c.064-.028.09-.028.055,0a.1.1,0,0,1-.105.028c-.023-.014-.109.018-.2.075-.11.069-.16.073-.16.014s-.048-.063-.109-.034-.081.017-.041-.031a.135.135,0,0,1,.159-.041Zm.985.147c.082.024.155.076.155.111s-.082.026-.182-.022c-.217-.1-.2-.155.027-.089Z" fill="#75d1cb"/>
      <path id="Path_669" data-name="Path 669" d="M123.5,318.667a.22.22,0,0,0,.155-.072c.034-.041.019-.073-.036-.073a.221.221,0,0,0-.155.073c-.034.041-.018.072.036.072Z" fill="#75d1cb"/>
      <path id="Path_670" data-name="Path 670" d="M128.139,315.743c.128,0,.21-.028.183-.062-.073-.089.278-.255.451-.214.091.022.11.012.05-.027a1.184,1.184,0,0,1-.15-.114c-.03-.027-.219.057-.411.183-.337.222-.343.234-.123.234Z" fill="#75d1cb"/>
      <path id="Path_671" data-name="Path 671" d="M129.06,315.412c.055,0,.1-.031.1-.072s-.041-.072-.1-.072-.1.031-.1.072.041.072.1.072Z" fill="#75d1cb"/>
      <path id="Path_672" data-name="Path 672" d="M129.06,315.161c.055-.025.1-.058.1-.075s-.041-.031-.1-.031a.087.087,0,0,0-.1.075c0,.042.043.056.1.031Z" fill="#75d1cb"/>
      <path id="Path_673" data-name="Path 673" d="M129.717,314.766a.219.219,0,0,0,.155-.073c.034-.041.018-.072-.037-.072a.222.222,0,0,0-.155.072c-.034.042-.018.073.037.073Z" fill="#75d1cb"/>
      <path id="Path_674" data-name="Path 674" d="M133.1,312.811a.32.32,0,0,0,.222-.075c.1-.123-.008-.139-.2-.029-.164.094-.166.1-.022.1Z" fill="#75d1cb"/>
      <path id="Path_675" data-name="Path 675" d="M134.517,312.02a.488.488,0,0,0,.192-.1c0-.016-.082-.011-.192.01s-.191.066-.191.1.082.033.191-.011Z" fill="#75d1cb"/>
      <path id="Path_676" data-name="Path 676" d="M135.014,311.731a.261.261,0,0,0,.21-.117c.051-.1.036-.1-.109-.02-.092.052-.188.106-.21.117s.027.02.109.02Z" fill="#75d1cb"/>
      <path id="Path_677" data-name="Path 677" d="M138.251,309.815c.055-.026.1-.058.1-.076s-.041-.031-.1-.031a.089.089,0,0,0-.1.076c0,.041.044.055.1.031Z" fill="#75d1cb"/>
      <path id="Path_678" data-name="Path 678" d="M140.435,308.841c.119,0,.251-.136.182-.186-.025-.019-.1.014-.164.076s-.081.11-.018.11Z" fill="#75d1cb"/>
      <path id="Path_679" data-name="Path 679" d="M141.023,308.043a.088.088,0,0,0,.1-.075c0-.042-.044-.056-.1-.032s-.1.059-.1.076.041.031.1.031Z" fill="#75d1cb"/>
      <path id="Path_680" data-name="Path 680" d="M142.363,315.45a.152.152,0,0,0,.1-.117c0-.041-.041-.053-.1-.027a.152.152,0,0,0-.1.117c0,.041.041.053.1.027Z" fill="#75d1cb"/>
      <path id="Path_681" data-name="Path 681" d="M142.819,315.278c.119-.047.215-.138.215-.2s-.011-.1-.023-.086-.107.107-.214.2l-.192.172.214-.086Z" fill="#75d1cb"/>
      <path id="Path_682" data-name="Path 682" d="M142.938,306.781c.055-.026.1-.059.1-.076s-.041-.031-.1-.031a.088.088,0,0,0-.1.075c0,.042.044.056.1.032Z" fill="#75d1cb"/>
      <path id="Path_683" data-name="Path 683" d="M144.511,306.091c.082.052.158.06.191.019s-.027-.086-.137-.108c-.218-.044-.231-.024-.054.089Z" fill="#75d1cb"/>
      <path id="Path_684" data-name="Path 684" d="M146.476,304.506c.109,0,.2-.031.2-.072s-.064-.072-.137-.072a.3.3,0,0,0-.2.072c-.033.041.027.072.137.072Z" fill="#75d1cb"/>
      <path id="Path_685" data-name="Path 685" d="M146.886,304.678c.052-.024.065-.057.032-.082s.012-.117.091-.206c.128-.145.128-.161,0-.126-.151.042-.156.05-.189.3-.012.09.017.141.066.117Z" fill="#75d1cb"/>
      <path id="Path_686" data-name="Path 686" d="M148,303.35a.211.211,0,0,0,.15-.116c.049-.1.034-.1-.086-.028-.174.105-.191.144-.064.144Z" fill="#75d1cb"/>
      <path id="Path_687" data-name="Path 687" d="M149.58,302.236a2.592,2.592,0,0,1,.4-.344c.155-.112.241-.207.187-.207a1.372,1.372,0,0,0-.673.565c-.017.105,0,.1.089-.014Z" fill="#75d1cb"/>
      <path id="Path_688" data-name="Path 688" d="M150.5,301.6c.11-.053.192-.135.192-.192,0-.076-.046-.069-.192.031-.109.074-.191.157-.191.192s.082.022.191-.031Z" fill="#75d1cb"/>
      <path id="Path_689" data-name="Path 689" d="M151.258,300.925a.391.391,0,0,0,.467-.23l.107-.2-.05.217c-.038.165-.025.191.055.11a.416.416,0,0,0,.1-.238.2.2,0,0,1,.141-.171c.082-.024.142-.068.142-.1,0-.113-.562.179-.609.317-.027.075-.083.122-.125.1a.227.227,0,0,0-.2.062c-.067.055-.083.113-.036.134Z" fill="#75d1cb"/>
      <path id="Path_690" data-name="Path 690" d="M153.086,299.556c.055-.026.1-.058.1-.076s-.041-.031-.1-.031a.089.089,0,0,0-.1.076c0,.041.044.055.1.031Z" fill="#75d1cb"/>
      <path id="Path_691" data-name="Path 691" d="M153.378,299.487c.055-.026.072-.074.041-.114-.081-.1-.137-.082-.137.049,0,.062.042.09.1.065Z" fill="#75d1cb"/>
      <path id="Path_692" data-name="Path 692" d="M153.72,299.227c.164-.1.183-.235.027-.2a.219.219,0,0,0-.137.154c-.022.1,0,.112.11.043Z" fill="#75d1cb"/>
      <path id="Path_693" data-name="Path 693" d="M168.847,289.186c.182-.008.481-.132.328-.136a.674.674,0,0,0-.287.068c-.082.042-.1.07-.041.068Z" fill="#75d1cb"/>
      <path id="Path_694" data-name="Path 694" d="M169.394,289.259c.091,0,.164-.034.164-.076s.037-.057.082-.034.156-.021.255-.1c.17-.141.169-.144-.041-.144-.118,0-.189.031-.158.069.085.1-.074.1-.229-.014-.106-.074-.118-.069-.073.028a.172.172,0,0,1-.055.2c-.079.057-.064.079.055.079Z" fill="#75d1cb"/>
      <path id="Path_695" data-name="Path 695" d="M170.187,288.822c.109,0,.133-.019.059-.041a.269.269,0,0,0-.182,0c-.033.023.023.04.123.038Z" fill="#75d1cb"/>
      <path id="Path_696" data-name="Path 696" d="M170.953,288.781c.073-.021.113-.067.086-.1-.074-.091-.113-.083-.171.034-.035.069-.006.091.085.066Z" fill="#75d1cb"/>
      <path id="Path_697" data-name="Path 697" d="M171.441,288.7c.1-.028.287-.1.415-.145.227-.089.228-.092.022-.092-.118,0-.214.033-.214.075s-.068.067-.16.055a.194.194,0,0,0-.2.069c-.027.06.018.072.137.038Z" fill="#75d1cb"/>
      <path id="Path_698" data-name="Path 698" d="M176.56,289.066c.064-.048.094-.108.064-.131s-.085.021-.118.09c-.051.1-.039.112.054.041Z" fill="#75d1cb"/>
      <path id="Path_699" data-name="Path 699" d="M177.22,299.738c.114.133.113.021,0-.179-.055-.1-.085-.109-.088-.038a.375.375,0,0,0,.09.217Z" fill="#75d1cb"/>
      <path id="Path_700" data-name="Path 700" d="M177.363,289.408c.125.078.137.074.086-.029a.2.2,0,0,0-.15-.12c-.127,0-.109.04.064.149Z" fill="#75d1cb"/>
      <path id="Path_701" data-name="Path 701" d="M179.642,291.426a.543.543,0,0,0,.169-.124c.118-.11.114-.113-.032-.029-.164.1-.216.153-.137.153Z" fill="#75d1cb"/>
      <path id="Path_702" data-name="Path 702" d="M182.077,312.87c.118-.006.21-.037.21-.072,0-.076-.11-.07-.283.015-.107.053-.091.065.073.057Z" fill="#75d1cb"/>
      <path id="Path_703" data-name="Path 703" d="M182.291,313.283c.055.025.078.068.055.1s0,.1.036.148.1.063.137.02-.028-.151-.128-.241-.189-.146-.191-.12.036.067.091.093Z" fill="#75d1cb"/>
      <path id="Path_704" data-name="Path 704" d="M182.842,314.009a.33.33,0,0,0,.128.182.27.27,0,0,1,.111.182.571.571,0,0,0,.564.452c.211-.023.205-.033-.087-.132-.173-.058-.314-.143-.314-.189a2.444,2.444,0,0,0-.429-.75c-.046,0-.041.041.027.255Z" fill="#75d1cb"/>
      <path id="Path_705" data-name="Path 705" d="M184.042,315.505c.146.022.26.011.26-.024,0-.1-.128-.122-.329-.067-.168.047-.159.058.069.091Z" fill="#75d1cb"/>
      <path id="Path_706" data-name="Path 706" d="M183.937,315.336c.219.008.305-.111.118-.164-.082-.024-.121-.013-.091.024s0,.082-.068.1-.059.036.041.04Z" fill="#75d1cb"/>
      <path id="Path_707" data-name="Path 707" d="M191.569,303.784a.215.215,0,0,0,.15-.072c.033-.041,0-.054-.087-.03-.164.048-.2.1-.063.1Z" fill="#75d1cb"/>
      <path id="Path_708" data-name="Path 708" d="M191.669,305.009c.053,0,.068-.045.036-.107s-.07-.106-.091-.106-.036.044-.036.106a.1.1,0,0,0,.091.107Z" fill="#75d1cb"/>
      <path id="Path_709" data-name="Path 709" d="M193.018,308.408c.055,0,.074-.033.041-.072a.178.178,0,0,0-.1-.073c-.023,0-.041.031-.041.073s.046.072.1.072Z" fill="#75d1cb"/>
      <path id="Path_710" data-name="Path 710" d="M195.836,308.26c.109.069.156.058.232-.052s.069-.134-.141-.106c-.273.036-.276.041-.091.158Z" fill="#75d1cb"/>
      <path id="Path_711" data-name="Path 711" d="M196.4,308.181c.155-.051.222-.1.155-.121a.375.375,0,0,0-.273.09c-.145.112-.137.114.118.031Z" fill="#75d1cb"/>
      <path id="Path_712" data-name="Path 712" d="M197.527,308.043a.073.073,0,0,0,.078-.072c0-.041.082-.072.191-.072.192,0,.329-.1.237-.164s-.583.1-.583.205c0,.055.036.1.077.1Z" fill="#75d1cb"/>
      <path id="Path_713" data-name="Path 713" d="M198.316,307.732c.137.039.629-.169.629-.267,0-.031-.082-.039-.191-.017s-.192.067-.192.107-.041.049-.1.024-.1-.007-.1.034-.046.058-.1.034-.1-.025-.1,0,.064.064.137.085Z" fill="#75d1cb"/>
      <path id="Path_714" data-name="Path 714" d="M201.22,306.9a.117.117,0,0,0-.009-.137c-.033-.025-.055.017-.05.093s.029.1.059.044Z" fill="#75d1cb"/>
      <path id="Path_715" data-name="Path 715" d="M201.608,306.811a.437.437,0,0,0,.31.007.362.362,0,0,1,.237-.02c.054.022.027-.017-.06-.086a.279.279,0,0,0-.346-.048.36.36,0,0,1-.251.031c-.038-.029-.064-.029-.064,0s.082.08.174.116Z" fill="#75d1cb"/>
      <path id="Path_716" data-name="Path 716" d="M202.237,306.67c.219.009.446-.161.446-.333,0-.2-.093-.2-.132,0a.461.461,0,0,1-.209.223c-.1.058-.149.108-.1.11Z" fill="#75d1cb"/>
      <path id="Path_717" data-name="Path 717" d="M204.311,305.58c.137,0,.188-.017.118-.038a.492.492,0,0,0-.241,0c-.067.021-.014.038.123.038Z" fill="#75d1cb"/>
      <path id="Path_718" data-name="Path 718" d="M206.978,304.575a.187.187,0,0,0,.141-.089c.041-.073.067-.072.137,0s.11.072.2,0,.059-.094-.15-.083c-.146.008-.292.018-.333.023a.075.075,0,1,0,.009.149Z" fill="#75d1cb"/>
      <path id="Path_719" data-name="Path 719" d="M207.051,304.739a.563.563,0,0,0,.269-.012c.182-.047.183-.05.014-.1s-.433.046-.283.111Z" fill="#75d1cb"/>
      <path id="Path_720" data-name="Path 720" d="M207.516,304.286a.138.138,0,0,0,.146-.117c0-.1-.026-.1-.146-.024a.513.513,0,0,0-.146.117c0,.014.064.024.146.024Z" fill="#75d1cb"/>
      <path id="Path_721" data-name="Path 721" d="M207.717,304.644c.109,0,.133-.022.059-.045a.263.263,0,0,0-.183.007c-.032.025.023.042.124.038Z" fill="#75d1cb"/>
      <path id="Path_722" data-name="Path 722" d="M207.954,304.073a.939.939,0,0,0,.337-.138c.182-.11.2-.145.087-.179-.082-.023-.142,0-.142.066s-.057.107-.137.107a.291.291,0,0,0-.195.072c-.035.042-.014.072.05.072Z" fill="#75d1cb"/>
      <path id="Path_723" data-name="Path 723" d="M209.093,303.514c.11.021.182,0,.169-.046s.032-.075.1-.065c.118.017.264-.259.173-.328-.03-.022-.055.011-.055.072s-.127.149-.282.192c-.329.09-.35.128-.1.175Z" fill="#75d1cb"/>
      <path id="Path_724" data-name="Path 724" d="M210.051,302.952c.246-.036.383-.1.383-.179,0-.035-.128-.014-.283.044-.337.127-.373.175-.1.135Z" fill="#75d1cb"/>
      <path id="Path_725" data-name="Path 725" d="M210.917,302.376c.133.061.327-.058.273-.168-.022-.048-.1-.04-.209.021s-.139.112-.064.147Z" fill="#75d1cb"/>
      <path id="Path_726" data-name="Path 726" d="M211.35,302.484c.082,0,.124-.033.091-.073a.215.215,0,0,0-.15-.072c-.052,0-.091.031-.091.072s.068.073.15.073Z" fill="#75d1cb"/>
      <path id="Path_727" data-name="Path 727" d="M211.382,302.222a.137.137,0,0,0,.16-.028c.083-.106.013-.149-.133-.08-.082.038-.091.077-.027.108Z" fill="#75d1cb"/>
      <path id="Path_728" data-name="Path 728" d="M211.929,301.906a1.222,1.222,0,0,0,.255-.08c.174-.068.192-.062.137.045s-.035.107.064.045c.073-.045.147-.066.173-.048s.052-.028.06-.1-.034-.126-.1-.116c-.347.054-.814.258-.593.258Z" fill="#75d1cb"/>
      <path id="Path_729" data-name="Path 729" d="M212.72,301.679c.056.066.1.041.188-.1.116-.193.108-.2-.122-.136-.168.049-.181.095-.066.233Z" fill="#75d1cb"/>
      <path id="Path_730" data-name="Path 730" d="M213.306,301.437c.178.12.24.1.2-.054-.007-.032.028-.056.083-.056s.1-.029.1-.068c0-.058-.465-.035-.547.027-.016.012.054.077.164.151Z" fill="#75d1cb"/>
      <path id="Path_731" data-name="Path 731" d="M213.826,301.021a.488.488,0,0,1,.3.024.206.206,0,0,0,.2.018c.119-.037.122-.057.018-.107s-.082-.063.064-.065l.192,0-.192-.062a.366.366,0,0,0-.282,0,.525.525,0,0,1-.256.065.339.339,0,0,0-.232.083c-.047.056.013.07.187.044Z" fill="#75d1cb"/>
      <path id="Path_732" data-name="Path 732" d="M216.657,299.989a.152.152,0,0,0,.1-.117c0-.041-.041-.053-.1-.027a.153.153,0,0,0-.1.117c0,.041.041.053.1.027Z" fill="#75d1cb"/>
      <path id="Path_733" data-name="Path 733" d="M217.8,299.162c.319-.168.436-.279.356-.339s-.626.282-.633.392c0,.065.086.048.277-.053Z" fill="#75d1cb"/>
      <path id="Path_734" data-name="Path 734" d="M219.3,298.382c.274.038.295,0,.1-.2-.126-.128-.131-.127-.234.017s-.077.152.132.182Z" fill="#75d1cb"/>
      <path id="Path_735" data-name="Path 735" d="M221.038,297.288a.812.812,0,0,0,.155,0c.047-.006.057.021.023.062a.064.064,0,0,0,.018.107c.044.019.157-.055.261-.172a1.118,1.118,0,0,1,.856-.381c.109.009.149,0,.087-.022a.1.1,0,0,1-.064-.141.114.114,0,0,1,.141-.062c.078.034.125-.069.094-.206-.006-.03.052-.055.125-.055a.223.223,0,0,0,.182-.09c.035-.069.048-.069.053,0,.011.13.2.11.2-.02s-.119-.133-.52.045c-.219.1-.347.207-.347.3,0,.117-.027.127-.141.055s-.152-.069-.2.027a.245.245,0,0,1-.192.117c-.073,0-.132.033-.132.072s-.155.121-.338.178c-.319.1-.421.173-.264.19Z" fill="#75d1cb"/>
      <path id="Path_736" data-name="Path 736" d="M223.254,296.153a.217.217,0,0,0,.209-.065c.069-.062.083-.107.032-.107s-.023-.031.06-.072.1-.073.045-.073c-.155,0-.45.269-.346.317Z" fill="#75d1cb"/>
      <path id="Path_737" data-name="Path 737" d="M224.074,295.771c.152-.1.234-.031.193.155-.015.069.015.111.063.088a.2.2,0,0,0-.037-.348c-.093-.028-.091-.037.009-.041.146-.006.447-.208.383-.256a1.728,1.728,0,0,0-.748.42c0,.036.064.028.137-.018Z" fill="#75d1cb"/>
      <path id="Path_738" data-name="Path 738" d="M225.314,295.548c.02,0,.064-.052.1-.114s.018-.094-.032-.071c-.091.043-.14.185-.064.185Z" fill="#75d1cb"/>
      <path id="Path_739" data-name="Path 739" d="M225.889,294.825a.477.477,0,0,0,.155-.11c.1-.091.091-.1-.037-.065s-.228.175-.118.175Z" fill="#75d1cb"/>
      <path id="Path_740" data-name="Path 740" d="M229.481,293.814a.431.431,0,0,0,.214-.121c.122-.11.114-.113-.086-.033-.219.088-.274.154-.128.154Z" fill="#75d1cb"/>
      <path id="Path_741" data-name="Path 741" d="M229.878,293.883c.055,0,.076-.035.045-.073a.18.18,0,0,0-.1-.072c-.026,0-.046.031-.046.072s.05.073.105.073Z" fill="#75d1cb"/>
      <path id="Path_742" data-name="Path 742" d="M230.2,294.224a.558.558,0,0,1,.174.182c.036.077.072.075.178-.007s.1-.089.009-.048-.143,0-.178-.1a.227.227,0,0,0-.183-.151c-.164,0-.164.012,0,.121Z" fill="#75d1cb"/>
      <path id="Path_743" data-name="Path 743" d="M230.443,294.787c.055.026.1.014.1-.027a.153.153,0,0,0-.1-.117c-.055-.026-.1-.014-.1.028a.152.152,0,0,0,.1.116Z" fill="#75d1cb"/>
      <path id="Path_744" data-name="Path 744" d="M231.02,295.039c.076.089.093.079.093-.052,0-.09-.04-.162-.091-.162-.117,0-.118.076,0,.214Z" fill="#75d1cb"/>
    </g>
    <path id="Path_962" data-name="Path 962" d="M359.808,363.222c.426-.084,1.1-.21,1.485-.273a5.909,5.909,0,0,0,1.08-.28,1.976,1.976,0,0,1,.563-.163,6.207,6.207,0,0,0,1.1-.379c1.1-.454,3-1.13,3.718-1.32a8.621,8.621,0,0,0,1.3-.53,5.511,5.511,0,0,1,1.285-.468,11.924,11.924,0,0,0,1.6-.453,8.108,8.108,0,0,1,1.345-.379,3.692,3.692,0,0,0,.9-.263,10.18,10.18,0,0,1,2.908-.844,6.935,6.935,0,0,0,1.264-.179c.4-.1,1.109-.218,1.583-.273a7.6,7.6,0,0,0,1.352-.272,3.845,3.845,0,0,1,1.12-.161c.343.007,1.447-.06,2.449-.148a62.147,62.147,0,0,1,7.856-.045,13.76,13.76,0,0,0,3.2-.01,3.714,3.714,0,0,1,1.116.01,27.741,27.741,0,0,0,3.75-.04c1.576-.079,3.876-.163,5.1-.186,2.718-.052,2.8-.081,4.676-1.575a1.941,1.941,0,0,1,.631-.376,2.808,2.808,0,0,0,1.2-.577c.162-.138.482-.379.709-.535a8.589,8.589,0,0,0,1.987-2.11,5.607,5.607,0,0,0,.473-2.843,7.839,7.839,0,0,0-.221-1.358,7.435,7.435,0,0,1-.219-1.253,5.428,5.428,0,0,0-1.679-3.777,5.348,5.348,0,0,1-1.122-1.536c-.327-.706-.611-1.057-2.188-2.7a13.267,13.267,0,0,0-2.3-1.932,7,7,0,0,1-1-.741,9.973,9.973,0,0,0-1.029-.807c-.36-.245-.91-.654-1.21-.9a29.524,29.524,0,0,0-5.619-3.435c-.8-.394-.893-.444-1.625-.869a8.377,8.377,0,0,0-1.518-.523,9.949,9.949,0,0,1-1.468-.471,7.275,7.275,0,0,0-2.712-.46,8.335,8.335,0,0,1-1.609-.215,13.554,13.554,0,0,0-4.482.2c-.459.114-1.3.31-1.87.436s-1.318.322-1.663.438a9.008,9.008,0,0,1-1.256.309,12.313,12.313,0,0,1-5.166-.738,11.368,11.368,0,0,0-1.618-.58,15.492,15.492,0,0,1-2.186-.847c-2.113-1.048-4.931-2.334-5.451-2.487a7.188,7.188,0,0,1-1.13-.486,4.108,4.108,0,0,0-.986-.4c-.21-.035-.7-.153-1.09-.26a9.478,9.478,0,0,0-1.46-.257,11.931,11.931,0,0,1-1.252-.173,6.667,6.667,0,0,0-3.248.49,10.086,10.086,0,0,0-4,3.419,7.213,7.213,0,0,1-.6.839,5.718,5.718,0,0,0-.52.7c-.185.29-.507.731-.728,1a12.5,12.5,0,0,1-2.1,1.971,1.722,1.722,0,0,0-.512.282,6.659,6.659,0,0,1-2.333.86l-1.35.389c-.2.059-.757.213-1.242.344-3.364.906-5.577,1.873-6.667,2.911a2.851,2.851,0,0,1-.6.488,12.968,12.968,0,0,0-2.151,3.247.969.969,0,0,1-.14.361,2.353,2.353,0,0,0-.213.619c-.039.213-.133.589-.211.845a10.206,10.206,0,0,0,.579,5.184,8.714,8.714,0,0,0,1.018,1.909,3.207,3.207,0,0,1,.334.522,16.685,16.685,0,0,0,2.243,2.638,36.217,36.217,0,0,0,5.362,4.644c.75.508,1.641,1.172,1.989,1.479a5.776,5.776,0,0,0,1,.73,8.962,8.962,0,0,1,.942.558c.318.216,1.064.651,1.672.978s1.239.666,1.416.763c.343.184,2.56,1.134,3.238,1.384.229.086.608.226.837.314a13.318,13.318,0,0,0,2.932.592c.517.047,1.1.107,1.3.134a4.831,4.831,0,0,0,1.145-.106Z" transform="matrix(0.966, 0.259, -0.259, 0.966, -1259.014, 7152.725)" fill="#75d1cb"/>
  </g>
</svg>
