<svg xmlns="http://www.w3.org/2000/svg" width="170.813" height="135.632" viewBox="0 0 170.813 135.632">
  <g id="Group_104" data-name="Group 104" transform="translate(1029.359 -7536.398)">
    <g id="Group_101" data-name="Group 101">
      <g id="Group_100" data-name="Group 100" transform="translate(-957 7156)">
        <path id="Path_164" data-name="Path 164" d="M42.85,414.555a3.5,3.5,0,0,0,3.935,1.178,2.845,2.845,0,0,0,1.621-1.427,2.042,2.042,0,0,0,.308-1.477A1.79,1.79,0,0,0,48.2,411.5a3.5,3.5,0,0,0-2.348-1.079,4.144,4.144,0,0,0-3.146,1.8,2.707,2.707,0,0,0,.143,2.328Z" transform="translate(0 13.235)" fill="#71887f"/>
        <path id="Path_165" data-name="Path 165" d="M49.13,414.768a3.149,3.149,0,0,0,5.267-.087c1.17-2.12-.7-4.145-3.416-3.694a3.435,3.435,0,0,0-1.951,1.479,2.9,2.9,0,0,0,.1,2.3Z" transform="translate(3.48 13.511)" fill="#71887f"/>
        <path id="Path_166" data-name="Path 166" d="M50.556,398.622a2.614,2.614,0,0,0,3.887.938,1.989,1.989,0,0,0,.932-1.764,2.119,2.119,0,0,0-1.186-1.844,1.957,1.957,0,0,0-1.4-.262,2.188,2.188,0,0,0-2.066,1.093,2.014,2.014,0,0,0-.167,1.84Z" transform="translate(4.342 5.126)" fill="#71887f"/>
        <path id="Path_167" data-name="Path 167" d="M51.65,408.083a3.082,3.082,0,0,0,2.9,1.617c2.869,0,4.2-3.246,1.993-4.858a3.33,3.33,0,0,0-4.848.888,2.843,2.843,0,0,0-.045,2.353Z" transform="translate(4.899 9.796)" fill="#71887f"/>
        <path id="Path_168" data-name="Path 168" d="M55.025,422.345a2.358,2.358,0,0,0,3.954.074c.854-1.111-.067-2.753-1.663-2.965a2.3,2.3,0,0,0-2.711,1.665c-.062.487,0,.674.42,1.226Z" transform="translate(6.641 18.188)" fill="#71887f"/>
        <path id="Path_169" data-name="Path 169" d="M60.688,404.3a3.453,3.453,0,0,0,1.606,1.6,3.916,3.916,0,0,0,3.746-.82,2.418,2.418,0,0,0-.679-3.672,4.6,4.6,0,0,0-2.869-.451,2.718,2.718,0,0,0-2.08,2.5,2.451,2.451,0,0,0,.276.851Z" transform="translate(9.846 7.987)" fill="#71887f"/>
        <path id="Path_170" data-name="Path 170" d="M61.745,413.455a4.818,4.818,0,0,0,1.462,2.156,9.527,9.527,0,0,0,1.372.76,3.9,3.9,0,0,0,2.168.414,4.292,4.292,0,0,0,1.958-.3,4.661,4.661,0,0,0,2.328-2.006,2.855,2.855,0,0,0,.456-1.778,4.015,4.015,0,0,0-2.784-3.946,4.52,4.52,0,0,0-2.551-.5,4.044,4.044,0,0,0-2,.281,4.193,4.193,0,0,0-2.409,4.913Z" transform="translate(10.487 12.046)" fill="#71887f"/>
        <path id="Path_171" data-name="Path 171" d="M63.52,397.116a3.392,3.392,0,0,0,1.641,1.851,3.6,3.6,0,0,0,4.084-.711,2.778,2.778,0,0,0-.325-4.033,3.21,3.21,0,0,0-3.435-.446,3.046,3.046,0,0,0-1.9,1.838,1.907,1.907,0,0,0-.067,1.5Z" transform="translate(11.487 3.916)" fill="#71887f"/>
        <path id="Path_172" data-name="Path 172" d="M64.477,390.455c1.361,2.131,5,1.3,5-1.139a2.9,2.9,0,0,0-.169-.969,8.922,8.922,0,0,1-.332-.9,1.838,1.838,0,0,0-2.509-.939,5.47,5.47,0,0,0-2.091,1.716,2.366,2.366,0,0,0,.1,2.227Z" transform="translate(11.9)" fill="#71887f"/>
        <path id="Path_173" data-name="Path 173" d="M64.719,419.8a4.416,4.416,0,0,0,2.681,2.624,5.062,5.062,0,0,0,6.268-2.024,2.939,2.939,0,0,0,.409-1.871,3.1,3.1,0,0,0-.37-1.784,4.873,4.873,0,0,0-4.371-2.427c-2.6,0-4.614,1.685-4.758,3.98a4,4,0,0,0,.141,1.5Z" transform="translate(12.13 15.377)" fill="#71887f"/>
        <path id="Path_174" data-name="Path 174" d="M68.85,404.947a3.9,3.9,0,0,0,4.362,2.229,3.4,3.4,0,0,0,3-3.218,2.906,2.906,0,0,0-.987-2.316,3.59,3.59,0,0,0-2.785-1.082c-2.545.009-4.422,2.306-3.585,4.386Z" transform="translate(14.375 7.812)" fill="#71887f"/>
        <path id="Path_175" data-name="Path 175" d="M71.356,408.612a.2.2,0,1,0-.22-.2.207.207,0,0,0,.22.2Z" transform="translate(15.743 12.02)" fill="#71887f"/>
        <path id="Path_176" data-name="Path 176" d="M74.1,397.484a3.461,3.461,0,0,0,2.855,1.628,3.314,3.314,0,0,0,3.077-2.2,2.466,2.466,0,0,0-.914-2.613,3.314,3.314,0,0,0-4.211-.138,2.693,2.693,0,0,0-.806,3.326Z" transform="translate(17.22 3.911)" fill="#71887f"/>
        <path id="Path_177" data-name="Path 177" d="M75.062,408.32a3.26,3.26,0,0,0,1.744,1.562,2.745,2.745,0,0,0,3.788-2.35,2.794,2.794,0,1,0-5.532.787Z" transform="translate(17.861 10.296)" fill="#71887f"/>
      </g>
    </g>
    <g id="Group_102" data-name="Group 102" transform="translate(-998.97 7176.142) rotate(13)">
      <path id="Path_761" data-name="Path 761" d="M109.384,463.662a.773.773,0,0,0,.247-.238c.033-.073.054-.053.056.052.005.221.628.236.675.017.042-.193.246-.159.249.04s.1.2.448.057c.153-.064.266-.063.295,0,.074.167.2.1.153-.075-.044-.153-.033-.153.123,0,.215.211.4.216.342.008-.034-.122.015-.149.221-.122.147.019.246-.009.223-.065s-.013-.1.031-.1.091.063.115.147c.047.168.442.316.44.165,0-.06.031-.076.076-.037s.077.021.076-.042.109-.087.256-.054a.326.326,0,0,0,.38-.124c.129-.19.241-.231.173-.064-.027.065.04.116.15.115.206,0,.263-.163.092-.26-.055-.032-.037-.06.043-.067s.116-.063.09-.121a.076.076,0,0,1,.076-.111c.066,0,.146.078.171.167s.092.168.152.167a.11.11,0,0,1,.108.11.119.119,0,0,0,.122.11.075.075,0,0,0,.07-.116c-.082-.185.2-.13.359.069.143.182.151.18.191-.051.052-.306.135-.309.284-.013.118.234.322.188.235-.054-.026-.071,0-.052.06.042a.282.282,0,0,0,.535-.1c.05-.21.078-.228.169-.106a.381.381,0,0,1,.08.257c-.015.06.079.115.2.12s.231-.042.23-.1.039-.062.1.009a.142.142,0,0,0,.206.025.2.2,0,0,1,.208-.038c.057.032.13-.048.162-.174.076-.3.166-.338.263-.1.052.129.131.175.226.13a.242.242,0,0,1,.242.016c.171.151.442.136.44-.025,0-.184.372-.111.728.141.177.126.233.13.279.021.071-.169.3-.242.306-.1a.121.121,0,0,0,.137.1c.117-.005.12-.02.017-.111s-.054-.158.1-.121c.037.009.106-.031.156-.09a.135.135,0,0,1,.2-.008c.156.138.487.133.425-.006-.074-.166.116-.14.257.035.179.222.474.335.472.181,0-.076.061-.1.157-.059s.173.007.2-.106.07-.141.146-.053c.117.135.231-.049.147-.238-.04-.089-.008-.088.11.005a.428.428,0,0,0,.306.092.323.323,0,0,1,.269.115c.1.112.13.116.128.015s.025-.106.114,0,.137.1.236-.044c.141-.211.336-.242.338-.054,0,.073.06.051.139-.052.173-.225.246-.232.249-.024,0,.244.24.2.282-.054.021-.127.068-.222.11-.222s.058.04.035.1a.285.285,0,0,0,.091.246c.116.131.125.12.079-.1a.438.438,0,0,1,.018-.31c.04-.037.069-.011.07.062a.1.1,0,0,0,.137.094.739.739,0,0,1,.346.045.534.534,0,0,0,.4-.028c.138-.078.214-.064.283.051.124.209.261.208.2,0-.05-.178.06-.24.133-.074.065.145.615.133.677-.015.037-.088.1-.064.213.078.09.114.16.148.159.078a.141.141,0,0,1,.149-.127.219.219,0,0,0,.192-.112.1.1,0,0,1,.15-.053.113.113,0,0,0,.157-.059.229.229,0,0,1,.2-.117c.088,0,.134.047.107.11s.035.11.145.109a.229.229,0,0,0,.222-.138c.025-.11.068-.109.223.008.2.15.45.139.53-.023.063-.126,1.147-.2,1.148-.08,0,.051.181.084.393.071s.408.015.427.061.1.025.186-.054c.123-.111.166-.107.227.025s.087.138.144.009.119-.128.289-.048a.7.7,0,0,0,.491.008.88.88,0,0,1,.674-.048c.14.029.269.006.293-.053.065-.161.338-.118.388.06.067.238.239.2.373-.086.065-.137.116-.183.117-.106,0,.233.213.146.258-.106.028-.158.067-.21.105-.138a1.326,1.326,0,0,0,.319.3c.23.162.272.164.371.019a.32.32,0,0,0,.059-.279c-.076-.169.02-.116.169.093a.473.473,0,0,0,.256.2,2.3,2.3,0,0,1,.371.088c.162.05.25.036.249-.039a.11.11,0,0,1,.112-.116.106.106,0,0,1,.115.1c0,.06.053.078.118.042a.266.266,0,0,0,.1-.242.193.193,0,0,1,.133-.217c.1-.023.119,0,.063.052s-.032.13.1.22c.162.111.211.1.314-.08.152-.264.245-.284.249-.054,0,.094.053.168.119.167s.117-.037.116-.085.2-.085.454-.086.438.035.419.081c-.065.156.1.084.2-.085.125-.224.215-.216.585.047.17.121.32.173.331.116s.073-.076.132-.043.11,0,.109-.075c0-.11.02-.111.117,0s.127.1.162-.033c.053-.21.275-.353.246-.159-.011.074.015.137.057.136s.073-.084.069-.189c-.01-.233.068-.25.3-.064.252.2,1.147.182,1.27-.03.074-.126.109-.134.14-.032a1.34,1.34,0,0,0,.162.3c.145.2.348.029.31-.265-.012-.094.022-.174.073-.17.294.027.332.046.292.147-.025.062,0,.086.063.052a.115.115,0,0,1,.162.057c.027.063.091.085.132.046s.107-.016.137.047.17.094.33.056c.22-.052.267-.106.235-.27-.022-.115-.065-.182-.1-.152-.073.065-.179-.284-.115-.377.024-.035.077.02.119.125.165.409.444.742.566.674a.274.274,0,0,0,.122-.216c0-.2.012-.2.456.1.325.221.391.236.426.1.029-.113.105-.142.245-.1a.3.3,0,0,0,.3-.054.238.238,0,0,1,.278-.043,2.476,2.476,0,0,0,1.35.01c.064-.075.131-.067.213.027.1.112.11.1.069-.043-.033-.115-.008-.178.071-.179s.144.105.175.241c.045.2.07.214.141.083a.3.3,0,0,1,.306-.122.279.279,0,0,0,.292-.113c.055-.114.062-.1.032.042-.057.274.091.363.249.151.072-.1.162-.15.189-.111s.074-.011.1-.106c.059-.232.183-.246.186-.022,0,.247.118.2.2-.086.04-.136.062-.178.05-.094-.054.368.489.593.649.269.053-.106.1-.136.1-.069s.123.12.269.119c.2,0,.256-.042.223-.159-.048-.168.09-.213.162-.053.023.05.174.081.328.066a1.671,1.671,0,0,1,.555.06.5.5,0,0,0,.388-.008.214.214,0,0,1,.253.009c.074.058.133.063.132.01a2.97,2.97,0,0,1,1.518-.017.234.234,0,0,0,.257.038.242.242,0,0,1,.283.066c.1.118.135.11.193-.048.076-.211.4-.262.486-.077.089.2.179,0,.147-.326-.026-.252-.008-.313.078-.269a.127.127,0,0,1,.075.142c-.056.137.18.51.251.4a.1.1,0,0,0-.035-.144c-.1-.051-.049-.361.061-.361.037,0,.048.073.024.168-.03.122-.009.15.079.1.065-.037.12-.011.121.057s.034.1.078.058.077-.016.078.047c0,.25.162.1.355-.329.109-.242.23-.44.269-.437s-.019.173-.123.374c-.236.453-.235.489.005.422.139-.039.184-.1.151-.218s-.023-.136.058-.043a.278.278,0,0,0,.283.051.2.2,0,0,1,.265.082.436.436,0,0,0,.274.183c.1.017.164,0,.135-.043s.009-.139.082-.216c.108-.116.159-.11.268.03a.356.356,0,0,1,.084.294c-.027.068.019.035.106-.074.136-.173.166-.177.252-.033s.119.133.249-.044.188-.183.336-.091a.306.306,0,0,0,.37-.008c.138-.091.2-.087.224.015.051.178.84.219.911.047.033-.079.126-.062.289.051.222.153.244.15.282-.044.022-.116.079-.211.125-.211s.048.063-.013.168c-.1.179-.1.179.14.215.1.014.15-.016.127-.07s.039-.1.134-.111l.406-.039a.319.319,0,0,1,.291.1c.042.084.078.084.118,0a.242.242,0,0,1,.229-.106c.1.008.172-.025.172-.074a.089.089,0,0,1,.083-.09c.047,0,.065.073.042.168-.072.284.2.332.336.061l.124-.243.147.23c.153.242.445.212.647-.066.088-.121.141-.117.29.024s.182.153.179-.017c0-.1.04-.166.094-.137a.172.172,0,0,1,.086.147c-.005.053.086.1.21.105.228.011.3-.112.13-.21-.055-.031-.023-.06.072-.066a.356.356,0,0,1,.284.156c.066.094.139.167.168.167.08,0,.259-.307.215-.369-.02-.028.021-.085.086-.121s.107-.03.088.015a.329.329,0,0,0,.284.4c.111.018.185-.016.16-.072-.049-.11.293-.059.537.08.128.073.139.048.086-.183s-.043-.246.049-.142c.179.2.549.288.61.143.033-.078.1-.1.161-.046.126.111.452.132.493.032.019-.047.156-.012.3.076s.27.114.269.057c0-.116.316-.3.385-.223a.2.2,0,0,1,.013.152c-.013.062.045.02.131-.1.137-.182.169-.187.275-.039.067.094.1.2.069.236s.078.068.232.067.281-.059.28-.128.054-.092.135-.042a.927.927,0,0,0,.441.06c.176-.013.331.037.368.119.052.113.087.1.175-.07a.494.494,0,0,0,.062-.331c-.028-.068.036-.01.148.136.187.241.2.244.28.056.051-.127.1-.162.139-.1a.311.311,0,0,0,.528-.076c.027-.127.075-.171.132-.119.119.108.744.106.7,0-.02-.046.018-.084.083-.085s.123.094.124.22.038.221.084.22.06-.048.035-.105a.145.145,0,0,1,.027-.168c.044-.038.091-.022.119.041.047.108.132.094.409-.069.2-.116.556-.115.557,0,0,.052.1.08.214.062a.451.451,0,0,1,.3.046.083.083,0,0,0,.138-.043c.032-.084.076-.086.143-.007a.339.339,0,0,0,.247.1,1.027,1.027,0,0,1,.349.061c.163.059.214.026.28-.18.071-.221.082-.227.088-.043s.016.194.168-.038c.089-.137.183-.217.21-.18s0,.115-.064.179c-.09.09-.082.108.042.1a.56.56,0,0,1,.191,0,1.509,1.509,0,0,0,.835-.013q.176-.095.129.015c-.025.061.05.162.168.225.185.1.232.083.343-.117s.162-.213.347-.108a1.7,1.7,0,0,0,.505.166c.227.032.277.006.24-.123-.029-.1,0-.163.071-.163s.111-.079.1-.185a.241.241,0,0,1,.085-.231c.073-.036.088.041.059.3-.034.3-.021.34.1.263.155-.1.233-.1.725-.021.206.034.367.019.366-.034,0-.168.3-.2.4-.044.127.213.228.188.173-.043-.034-.14,0-.126.111.052.191.293.247.3.367.061.078-.158.127-.169.29-.065.148.094.2.092.231-.007s.038-.089.044.016.067.081.212-.084c.26-.3.441-.3.392-.015-.034.2-.005.217.274.178a.6.6,0,0,0,.39-.192c.107-.2.435-.256.511-.087.037.084.115.1.2.046a.354.354,0,0,1,.211-.07c.038.011.1-.042.127-.116.075-.18.33.187.261.377-.026.074.039-.016.141-.2.139-.242.168-.37.107-.473s-.049-.124.054-.069.126.157.1.388c-.045.358,0,.393.186.145a.594.594,0,0,1,.767-.159c.134.1.18.092.253-.051s.119-.152.282-.033.25.113.52-.017c.364-.176.459-.317.331-.493-.1-.144-.115-.3-.019-.3.037,0,.084.094.108.22.047.242.288.3.289.072,0-.074.037-.048.081.057a.332.332,0,0,0,.339.193c.147,0,.279.058.3.134s.027-.031.008-.241a1.49,1.49,0,0,1,.015-.494,1.031,1.031,0,0,0,.047-.327.223.223,0,0,1,.169-.248c.124-.027.173.014.178.147s.025.156.1.046c.123-.18.262-.159.265.041,0,.084-.026.133-.057.1s-.077.058-.1.185c-.031.2-.057.214-.163.1s-.124-.1-.1.216c.033.473.087.5.3.156.1-.158.134-.256.078-.21-.073.058-.1.037-.071-.068a.2.2,0,0,1,.2-.146c.184.008.205-.07.07-.254-.073-.1-.064-.132.039-.133s.114-.051.075-.142c-.046-.109-.031-.107.066,0s.141.111.176.026a.089.089,0,0,1,.143-.048c.051.04.064.031.028-.022-.069-.1-.107-.118-.328-.142a.128.128,0,0,1-.115-.128c0-.061.043-.081.087-.043s.112.01.143-.064c.039-.1.1-.1.2-.025.156.117.747-.15.678-.306-.046-.105.321-.4.385-.307.028.039-.005.158-.07.253-.164.241-.128.279.3.314.337.027.352.016.348-.26,0-.232-.019-.256-.079-.121s-.084.148-.15.006a.5.5,0,0,1-.008-.347.358.358,0,0,0,.011-.268c-.032-.046-.016-.051.036-.01s.11,0,.128-.07c.028-.115.036-.116.042-.005.012.2.217.178.214-.022,0-.1-.046-.168-.1-.168s-.121-.094-.15-.22-.085-.209-.131-.193-.1-.036-.119-.11c-.066-.237.108-.149.377.191.141.179.272.292.3.257s0-.085-.053-.111c-.155-.077-.121-.246.075-.377s.2-.576,0-.466a.068.068,0,0,1-.111-.06.12.12,0,0,0-.115-.125c-.071,0-.1.058-.067.163s.009.168-.038.169-.086-.1-.088-.216c0-.156-.046-.2-.163-.17-.212.059-.382-.043-.385-.231,0-.2.151-.19.211.02.043.148.063.149.171.012.159-.2.531-.3.593-.164.032.072.011.082-.056.027-.086-.071-.087-.058-.006.068s.109.137.161,0,.068-.126.1,0,.065.121.136.025.053-.145-.08-.2-.165-.146-.14-.346a.518.518,0,0,0-.034-.326c-.037-.031-.066.037-.064.153,0,.154-.048.21-.188.211-.2,0-.254-.123-.113-.248.05-.045-.02-.15-.169-.249-.251-.17-.253-.174-.092-.331s.154-.17.032-.336-.116-.181.074-.217c.22-.041.272-.183.106-.29-.054-.034-.015-.032.088.006.126.046.168.029.132-.054a.082.082,0,0,1,.068-.126c.108-.005.109.02.007.252a.527.527,0,0,0-.058.342c.029.044-.01.047-.084.006-.113-.062-.134-.036-.109.132s.113.216.436.239c.235.017.4-.019.4-.086s-.028-.11-.06-.1c-.248.056-.391-.36-.213-.621.122-.179.137-.6.021-.6a.525.525,0,0,0-.233.14c-.123.111-.166.107-.224-.02s-.093-.132-.176-.031-.1.08-.1-.12.07-.259.348-.312c.19-.036.309-.074.27-.086s-.026-.1.034-.205c.089-.159.081-.176-.057-.121a.359.359,0,0,1-.412-.312c.006-.05,0-.216,0-.352-.01-.218-.04-.247-.2-.19-.233.085-.315-.066-.128-.236.11-.1.165-.083.275.084.256.394.442.229.262-.232-.127-.325-.031-.652.193-.653.149,0,.183-.054.183-.285,0-.263-.009-.271-.122-.107-.13.186-.219.225-.154.067.024-.059-.027-.122-.115-.142s-.159-.084-.16-.146a1.144,1.144,0,0,0-.111-.341,2.761,2.761,0,0,1-.166-.629c-.033-.231-.1-.4-.166-.4s-.113-.089-.117-.194-.022-.139-.045-.057-.079.1-.127.064-.063-.034-.028.021c.061.093-.069.386-.172.389-.033,0-.077-.093-.1-.219-.05-.252-.293-.3-.29-.062,0,.1-.032.169-.075.169s-.068-.063-.057-.136-.027-.124-.078-.11-.119-.047-.146-.141c-.066-.236-.234-.209-.276.044-.047.276-.4.191-.508-.124-.082-.234-.087-.23-.17.117s-.245.47-.347.244a.581.581,0,0,0-.219-.2c-.125-.066-.19-.037-.266.123-.094.2-.111.2-.289.038s-.193-.155-.231,0a.219.219,0,0,1-.188.17.159.159,0,0,0-.144.174c0,.1-.035.14-.08.1a.348.348,0,0,1-.036-.283c.044-.211-.105-.3-.219-.136a.475.475,0,0,1-.262.107c-.117.018-.223.085-.236.149a.157.157,0,0,1-.146.116c-.1,0-.1-.031-.017-.189.075-.137.078-.166.01-.1-.052.047-.2.01-.335-.082l-.241-.167.056.289c.046.241.034.277-.074.216a.518.518,0,0,0-.24-.067c-.061,0-.11-.068-.112-.162,0-.184-.2-.115-.365.128-.08.118-.127.111-.231-.036-.12-.168-.133-.167-.154.012s-.031.179-.125,0c-.071-.137-.133-.164-.21-.093a.319.319,0,0,1-.473-.013c-.034-.063-.083-.042-.124.053-.054.126-.112.134-.289.038a.946.946,0,0,0-.335-.118,1,1,0,0,1-.291-.072c-.1-.04-.176-.025-.175.032a.106.106,0,0,1-.113.106.114.114,0,0,1-.115-.12c0-.067-.054-.01-.119.127-.111.234-.133.239-.384.091-.148-.086-.283-.114-.305-.061-.038.091-.384.051-.511-.06-.03-.027-.086.016-.116.09-.038.1-.074.053-.111-.136-.052-.262-.059-.265-.115-.057-.1.368-.246.535-.393.443a.44.44,0,0,0-.276-.055c-.1.018-.126-.022-.094-.121.027-.079-.005-.047-.068.069s-.119.168-.12.111c0-.115-.737-.139-.814-.026-.028.041-.128.032-.224-.02s-.2-.051-.238,0c-.083.122-.418.024-.42-.123a.107.107,0,0,0-.118-.094c-.1,0-.145.127-.115.358.005.045-.041.084-.1.085a.621.621,0,0,0-.245.075c-.087.048-.118.033-.086-.042.049-.118-.178-.245-.442-.247a.363.363,0,0,1-.252-.2c-.1-.177-.1-.168-.1.105a.67.67,0,0,1-.076.369c-.043.039-.076.026-.077-.031s-.087-.157-.2-.23-.179-.172-.156-.226c.073-.175-.43-.06-.519.119-.115.232-.712.236-.681,0a.308.308,0,0,0-.074-.241c-.132-.113-.418.055-.415.244a.219.219,0,0,1-.177.185c-.125.027-.162,0-.123-.1s.013-.12-.111-.073c-.094.037-.15.025-.128-.025s-.049-.111-.152-.136-.174-.01-.154.033-.028.1-.115.137a.3.3,0,0,0-.15.3c0,.227-.012.221-.236-.093-.27-.378-.467-.354-.461.056,0,.157-.041.263-.107.263s-.094-.063-.07-.157c.042-.168-.279-.172-.533-.008-.1.062-.174.012-.285-.177-.123-.209-.173-.234-.247-.126-.115.167-.452.186-.455.026,0-.106-.125-.078-.438.1-.05.028-.1-.031-.1-.126,0-.267-.2-.209-.372.108s-.336.374-.269.106c.063-.252-.2-.333-.363-.112-.148.2-.151.194-.159-.121,0-.179-.023-.267-.043-.2s-.112.1-.208.074a.386.386,0,0,0-.353.186c-.1.13-.217.233-.264.233s-.056-.027,0-.084.02-.155-.107-.288c-.193-.2-.193-.2-.139.027.072.3-.2.529-.342.286-.118-.2-.279-.208-.34-.019-.025.074-.032.021-.015-.116.028-.242-.076-.347-.125-.125-.015.066-.082.087-.155.048a.2.2,0,0,1-.089-.225c.064-.245-.118-.178-.32.117s-.252.289-.754.094c-.088-.034-.127-.011-.1.058.07.16-.185.266-.305.126-.067-.078-.111-.077-.145,0-.067.159-.274.012-.28-.2,0-.15-.017-.147-.083.022-.057.147-.1.168-.178.08s-.114-.073-.15.064c-.044.165-.06.163-.158-.026-.087-.167-.137-.184-.25-.082s-.186.094-.327-.01a.46.46,0,0,0-.669.236c-.076.146-.1.138-.142-.062-.051-.22-.195-.322-.193-.135,0,.115-.45.023-.506-.1s-.27-.123-.257-.009c.029.244-.026.319-.2.273-.111-.029-.191,0-.19.076s-.083.1-.223.07c-.176-.045-.234-.009-.273.17-.033.157-.075.2-.137.126a.2.2,0,0,0-.242-.009c-.117.069-.122.092-.025.1s.116.073.088.231c-.038.21-.051.213-.187.038-.082-.106-.145-.15-.144-.1s-.066,0-.155-.11a.984.984,0,0,1-.162-.54c0-.21-.028-.287-.065-.2s-.225.152-.423.165-.362.076-.361.139-.119.126-.273.138c-.264.022-.273.011-.235-.277.023-.168.022-.237,0-.158s-.079.107-.12.07-.058.016-.023.173c.049.22.038.234-.1.126-.222-.172-.27-.156-.205.07.03.1.029.154,0,.111s-.1.006-.148.111c-.078.158-.114.165-.22.043a.821.821,0,0,1-.134-.435c-.006-.242-.02-.258-.082-.1s-.119.166-.274.083c-.244-.13-.264-.129-.239.015a.256.256,0,0,1-.146.222c-.138.078-.2.043-.333-.2s-.178-.265-.236-.135a.867.867,0,0,0-.069.326c0,.117-.042.09-.141-.088-.14-.252-.146-.253-.327-.04-.166.2-.192.2-.272.049s-.3-.093-.228.075c.021.046-.021.092-.094.1-.293.046-.515.013-.54-.08-.016-.063-.1-.064-.209,0-.146.081-.174.069-.141-.062.025-.1,0-.163-.046-.162a.092.092,0,0,0-.086.105c0,.058-.117.035-.265-.053-.347-.206-.347-.206-.291.077.042.21.031.218-.117.085-.09-.079-.141-.2-.114-.262s0-.053-.069.022-.143.1-.172.064c-.055-.078-.075.116-.046.452.017.189.006.193-.1.038a.669.669,0,0,1-.124-.268.508.508,0,0,0-.1-.225c-.074-.1-.122-.093-.23.048s-.165.147-.242.054c-.059-.071-.124-.1-.151-.056s-.173-.035-.328-.163c-.334-.274-.43-.29-.427-.069,0,.2-.033.2-.241.049-.089-.066-.142-.075-.117-.021s-.124.1-.329.1a.621.621,0,0,0-.525.2c-.087.114-.2.176-.255.143-.081-.045-.083-.059-.008-.068a.119.119,0,0,0,.093-.122c0-.062-.085-.08-.194-.04-.146.052-.225.007-.322-.183l-.128-.251-.062.253c-.053.21-.082.23-.175.116s-.137-.1-.237.049c-.117.171-.137.171-.279-.009-.124-.156-.193-.171-.361-.076a.422.422,0,0,1-.362.033c-.3-.16-.492-.109-.458.119.038.252-.154.391-.219.159a.48.48,0,0,1-.005-.268c.023-.055-.031-.1-.119-.1a.168.168,0,0,1-.163-.168c0-.094-.03-.168-.065-.167s-.057.11-.052.236-.035.252-.088.269-.06,0-.018-.026c.174-.126.063-.237-.149-.148-.138.058-.25.048-.305-.028s-.129-.064-.23.07c-.151.2-.363.237-.434.076-.051-.115-.5-.1-.5.013,0,.042-.066.1-.153.133a.256.256,0,0,0-.151.237c0,.266-.112.211-.129-.062-.022-.347-.168-.525-.257-.314-.04.1-.074.12-.077.058s-.047-.036-.1.059c-.15.263-.421.444-.476.318a.275.275,0,0,1,0-.2.148.148,0,0,0-.032-.168c-.041-.038-.1.058-.12.216-.057.347-.079.35-.267.033-.08-.136-.149-.193-.15-.125s-.09.151-.192.18-.173.012-.154-.036a.135.135,0,0,0-.039-.152.24.24,0,0,1-.036-.216.245.245,0,0,0-.047-.225c-.052-.044-.084.016-.082.153,0,.157-.034.2-.119.158a.141.141,0,0,0-.19.085c-.046.106-.068.111-.069.016s-.1-.126-.277-.108c-.219.022-.266.067-.235.222s0,.182-.167.127a.62.62,0,0,1-.3-.224c-.121-.212-.177-.178-.139.085.024.168,0,.214-.085.168a.5.5,0,0,0-.195-.061c-.044,0-.057-.047-.031-.111s-.053-.1-.206-.077c-.2.026-.247.076-.228.232.015.126-.012.183-.075.153a.41.41,0,0,1-.129-.288c-.016-.137-.076-.241-.139-.241a1.172,1.172,0,0,1-.165-.01c-.029-.005-.069.054-.086.127-.02.089.013.113.093.068.144-.08.155-.027.052.257-.045.127-.121.186-.19.149a.126.126,0,0,1-.075-.152.707.707,0,0,0-.027-.326c-.064-.232-.067-.231-.168.053-.055.158-.147.264-.2.233a.1.1,0,0,0-.146.048c-.027.063-.146.038-.294-.061-.237-.159-.241-.159-.091.016s.145.181-.134.122c-.162-.034-.29-.015-.289.044s-.065.1-.153.106-.155-.051-.156-.12a.221.221,0,0,1,.152-.18c.19-.073.2-.25.018-.266a.812.812,0,0,0-.671.226c-.254.215-.423.2-.426-.043,0-.084-.038-.157-.079-.157s-.076.116-.074.263c.005.308-.163.409-.443.268-.17-.086-.458.039-.413.179a.057.057,0,0,1-.038.079c-.033.009-.1-.1-.154-.246-.084-.231-.1-.24-.143-.073-.069.273-.183.243-.194-.051-.005-.137-.026-.19-.046-.116-.059.223-.312.17-.443-.092-.11-.218-.337-.2-.239.023.028.063.076.079.119.041s.073-.011.074.052c0,.112-.049.14-.211.115-.027,0-.074.087-.1.192-.042.173-.057.158-.109-.1-.07-.357-.164-.38-.339-.082a.573.573,0,0,1-.314.248.392.392,0,0,0-.242.144c-.05.1-.093-.189-.051-.336.01-.035-.041-.11-.115-.168-.236-.184-.43.108-.392.591.022.284,0,.418-.089.463s-.108.018-.076-.105c.051-.2-.071-.322-.2-.2-.2.184-.27.137-.184-.131.047-.148.108-.264.139-.264s.054-.058.053-.121-.038-.088-.078-.052-.077.016-.077-.047a.112.112,0,0,0-.116-.115c-.064,0-.112.074-.111.169a.157.157,0,0,1-.152.169c-.109,0-.153.069-.15.237,0,.126.026.2.053.163.059-.086.333.24.335.4,0,.058-.084.025-.188-.072a.631.631,0,0,0-.332-.177c-.114,0-.138-.062-.118-.314.023-.286,0-.315-.209-.309-.132,0-.22.039-.2.08s-.082.125-.228.19-.26.085-.256.044c.02-.242-.027-.452-.1-.451-.049,0-.132.084-.188.19-.1.18-.1.179-.106-.01-.006-.17-.043-.15-.244.128-.151.208-.293.306-.389.27-.118-.044-.129-.078-.05-.152s.069-.1-.034-.1a.127.127,0,0,0-.134.112c0,.061-.08.034-.184-.062-.126-.117-.2-.134-.236-.051-.027.066-.134.09-.237.054-.133-.048-.187-.025-.186.079s-.015.112-.058.022c-.064-.137-.229-.138-.382,0-.05.046-.109.03-.139-.037s-.082-.08-.147,0a.663.663,0,0,1-.376.144c-.168.017-.281.087-.28.175s-.034.116-.083.074a.445.445,0,0,1-.056-.32c.019-.158-.007-.247-.073-.247a.094.094,0,0,0-.1.09.414.414,0,0,1-.162.217c-.131.1-.177.1-.232-.025s-.067-.118-.066-.01a.143.143,0,0,1-.152.142c-.161,0-.206.161-.077.273.108.094-.083.375-.208.307-.07-.038-.052-.168.067-.483a1.14,1.14,0,0,0,.114-.5c-.027-.038-.082.058-.124.216-.072.272-.108.285-.461.168a.4.4,0,0,1-.186-.149c-.041-.067-.081-.057-.1.027-.038.143-.261.065-.352-.124-.066-.136-.451-.2-.449-.071,0,.054-.064.12-.152.154a.191.191,0,0,0-.129.2c.015.088-.057.146-.189.154-.117.006-.212-.021-.213-.062s-.067-.1-.156-.13c-.184-.068-.213.114-.034.21.1.053.075.115-.113.29s-.261.193-.329.1-.064-.121.024-.126.043-.088-.083-.236a.657.657,0,0,1-.18-.3c.009-.037-.027-.068-.078-.068a.194.194,0,0,1-.148-.1c-.03-.059-.074.027-.1.2s-.082.3-.125.3-.055-.084-.031-.178c.053-.211-.1-.517-.208-.42-.044.039-.031.132.033.237.092.151.075.165-.131.115a.475.475,0,0,0-.661.41,1.16,1.16,0,0,0,.027.525c.094.241.043.746-.076.747-.042,0-.075-.094-.076-.22,0-.148-.052-.221-.15-.22-.176,0-.27-.174-.192-.356.038-.09.067-.074.1.052.076.3.211.061.251-.443.036-.442.026-.48-.111-.431-.08.029-.15.008-.151-.046s-.034-.1-.078-.1-.076.074-.075.168-.047.169-.111.169a.125.125,0,0,0-.116.137c0,.078-.036.043-.081-.083a.868.868,0,0,0-.284-.356c-.17-.113-.219-.1-.3.054a.923.923,0,0,0-.1.306c0,.136-.378.426-.44.339a.569.569,0,0,1,.083-.305c.135-.285.148-.422.039-.421-.044,0-.08.09-.078.2,0,.184,0,.184-.107-.005s-.357-.156-.355.044c0,.135-.283.128-.343-.008-.029-.066-.112-.067-.221,0a.618.618,0,0,1-.322.081c-.105-.015-.153.058-.169.258a3.254,3.254,0,0,1-.063.442.746.746,0,0,0-.026.258.519.519,0,0,1-.074.252c-.065.116-.066.159,0,.158.048,0,.089.12.091.268a.6.6,0,0,0,.071.325c.191.166.136.835-.07.836-.109,0-.068-.2.048-.241.194-.064-.076-.749-.3-.752-.161,0-.165-.015-.049-.146a.256.256,0,0,0,.056-.3c-.116-.261-.4.2-.352.58.021.178,0,.326-.059.357s-.107-.083-.129-.325c-.024-.262,0-.378.065-.378s.1-.1.1-.222.038-.2.1-.163.1-.022.063-.242c-.025-.168-.012-.27.029-.232s.078-.032.083-.147-.028-.216-.069-.216-.059-.044-.035-.1a.162.162,0,0,0-.038-.174c-.047-.038-.081,0-.08.08,0,.177-.444.244-.578.086a.352.352,0,0,0-.483.053c-.073.066-.094.06-.063-.017s-.034-.089-.209-.032c-.344.112-.432.2-.436.425,0,.106-.037.032-.08-.168-.081-.378-.228-.494-.224-.177,0,.147-.019.155-.117.043s-.148-.1-.27.059c-.108.14-.152.155-.154.054,0-.074-.022-.112-.045-.079-.062.092.087.437.175.4.131-.05.233.324.129.477-.077.115-.1.111-.164-.025-.041-.1-.1-.127-.133-.078a.127.127,0,0,0,.021.161c.119.111.195.448.117.517-.037.033-.087-.038-.116-.163s-.112-.22-.194-.22a.2.2,0,0,1-.185-.151c-.026-.093.005-.146.079-.137s.129-.1.146-.332c.022-.316,0-.352-.218-.4-.272-.056-.624.131-.576.307.017.063-.035.123-.115.132s-.147-.021-.148-.067c0-.159-.229-.083-.351.117a.516.516,0,0,0-.067.395c.051.184.059.183.162-.017.144-.282.144-.137,0,.273-.1.285-.1.321.026.363.075.025,0,.052-.171.059-.2.008-.272-.022-.207-.083s.082-.113.009-.179-.069-.1-.006-.157a.267.267,0,0,0,.033-.258c-.031-.105-.082-.159-.119-.126s-.047-.015-.023-.11c.051-.2-.115-.536-.219-.445-.034.031-.132.008-.206-.048-.173-.13-.286-.028-.283.256,0,.262.192.366.282.156.045-.106.064-.109.066-.011,0,.2-.249.55-.361.5a.293.293,0,0,1-.1-.239.614.614,0,0,0-.119-.33.3.3,0,0,1-.073-.263c.024-.069-.009-.031-.072.085-.092.168-.137.185-.226.08-.135-.158-.245.017-.15.237.038.086.007.079-.082-.02-.127-.14-.149-.14-.216,0s-.067.121-.034-.036c.027-.127,0-.2-.072-.194a.11.11,0,0,1-.115-.11c0-.063-.067-.052-.154.027a.48.48,0,0,0-.149.327c0,.283-.155.365-.207.106-.048-.241-.185-.327-.182-.114,0,.063-.034.084-.076.047a.158.158,0,0,1-.036-.173c.024-.059-.071-.1-.217-.1-.233,0-.268.044-.326.4-.079.484-.3.737-.416.486-.058-.121-.065-.073-.023.168.083.483.11.52.24.324.063-.094.142-.142.168-.1a.091.091,0,0,1-.046.126.132.132,0,0,0-.042.168c.035.08-.024.092-.172.038a1.163,1.163,0,0,1-.234-.1,2.5,2.5,0,0,1-.139-.777.314.314,0,0,1,.2-.075c.088-.006.117-.035.065-.064a.128.128,0,0,1-.057-.152c.023-.058.087-.074.153-.037s.114.009.113-.064c0-.221-.256-.264-.358-.061-.053.1-.128.161-.169.125-.082-.072-.237.151-.214.308.008.052-.062.137-.157.19-.153.086-.163.074-.1-.115.106-.3.1-.311-.143-.484-.229-.164-.4-.125-.4.088,0,.14-.166.187-.643.179-.278-.005-.293.009-.192.183.073.126.077.161.013.106s-.1-.028-.1.037-.039.121-.083.121-.07-.094-.05-.22c.027-.179.01-.2-.09-.122a.414.414,0,0,1-.314.124c-.045,0-.079.1-.077.227s-.032.2-.075.158a.149.149,0,0,1-.039-.163.539.539,0,0,0-.011-.273c-.038-.137-.075-.15-.155-.057-.058.067-.141.091-.186.054s-.081-.01-.08.053-.032.091-.069.058-.086-.025-.11.032c-.045.108-.509.035-.51-.081,0-.136-.381-.33-.427-.218-.024.057.011.105.077.105.1,0,.1.036-.03.236-.107.169-.178.206-.247.129-.112-.126-.6-.059-.6.081,0,.054-.073.075-.168.049a.193.193,0,0,0-.23.09c-.042.1-.061.1-.062.011s-.064-.1-.159-.067a.177.177,0,0,0-.114.221c.034.13-.009.146-.208.081a1.126,1.126,0,0,0-.968.021c-.182.094-.308.106-.37.034a.326.326,0,0,0-.272-.077.4.4,0,0,1-.276-.051c-.06-.052-.1-.021-.094.084s-.042.145-.116.106-.117-.007-.116.064c0,.166-.206.159-.247-.009-.052-.209-.213,0-.21.274l0,.242-.136-.246c-.114-.208-.171-.229-.368-.137-.452.211-.5.246-.493.4,0,.2-.124.19-.183-.02-.036-.128-.083-.14-.2-.049-.189.147-.316.149-.162,0,.065-.062.076-.11.024-.11a.331.331,0,0,0-.188.138.527.527,0,0,1-.31.17c-.183.028-.212-.006-.216-.246,0-.157-.037-.278-.08-.278s-.076.127-.074.274a.5.5,0,0,1-.159.4c-.116.091-.148.091-.111,0,.09-.216-.146-.247-.451-.059-.16.1-.309.151-.332.116s-.085.032-.144.159c-.108.23-.156.2-.536-.3-.135-.177-.193-.175-.191.007a.978.978,0,0,1-.094.342c-.091.194-.107.2-.3.018-.127-.117-.222-.144-.251-.073a.1.1,0,0,1-.142.063c-.162-.09-.376.351-.329.676.029.2.016.248-.044.163a.928.928,0,0,1-.094-.409c-.005-.189-.056-.3-.147-.318-.17-.036-.251.229-.132.43.059.1.04.136-.07.137a.157.157,0,0,1-.152-.152c0-.1-.053-.132-.155-.093a.241.241,0,0,1-.266-.1c-.154-.217-.2-.2-.145.064.056.282-.011.281-.228,0-.171-.225-.171-.225-.193,0s-.323.3-.326.086c0-.06-.066-.02-.153.1-.115.153-.172.171-.241.075-.149-.208-.234-.156-.175.106l.055.242-.242-.246-.241-.245-.077.31c-.067.274-.085.288-.154.122-.1-.247-.214-.25-.394-.01a.471.471,0,0,1-.419.167.376.376,0,0,0-.419.218c-.081.137-.144.188-.145.117a.145.145,0,0,0-.16-.125.605.605,0,0,1-.309-.114c-.1-.078-.151-.078-.15,0s-.076.089-.179.053c-.131-.044-.238.016-.39.22-.215.291-.42.375-.422.174,0-.119-.384-.142-.573-.034a.281.281,0,0,0-.122.217c0,.176-.325.323-.5.226a.15.15,0,0,1-.069-.186c.032-.079-.013-.108-.129-.083a.226.226,0,0,0-.178.2.241.241,0,0,1-.1.206c-.063.031-.081-.015-.051-.131.051-.19-.047-.232-.168-.073a.674.674,0,0,1-.28.165c-.168.056-.2.038-.166-.094.024-.094.006-.163-.043-.162s-.083.069-.082.163a.174.174,0,0,1-.151.18c-.088.009-.195.022-.249.031-.154.023-.168.513-.015.512.086,0,.118.072.1.241-.036.409-.166.285-.305-.293-.11-.451-.141-.5-.2-.34-.048.126-.094.151-.131.069s-.1-.094-.2-.015a.258.258,0,0,1-.253.052c-.167-.09-.306.241-.242.577.048.252.033.285-.106.232-.1-.04-.161-.005-.16.095,0,.084-.025.158-.056.158s-.055-.194-.05-.436c.008-.4,0-.425-.129-.309a.411.411,0,0,0-.109.332c.016.115,0,.18-.035.147s-.1.011-.149.1c-.074.132-.119.13-.327-.014-.185-.128-.216-.191-.135-.273s.01-.077-.166-.025a.572.572,0,0,0-.319.2c-.033.078-.068.058-.1-.057-.054-.191-.379-.176-.545.025-.051.061-.107.076-.135.036s-.1-.008-.157.059-.139.119-.175.11c-.154-.038-.259.022-.215.124a.076.076,0,0,1-.071.116c-.066,0-.12.077-.119.169,0,.226.125.2.29-.065l.146-.232,0,.284c0,.168-.04.284-.1.284a.1.1,0,0,0-.105.09c0,.048-.1.068-.23.043s-.232-.094-.233-.151.032-.076.077-.037.077.015.076-.058a.188.188,0,0,0-.339-.119c-.072.088-.125.094-.158.017s-.082-.087-.121-.052a.132.132,0,0,0-.035.153.407.407,0,0,1-.11.279c-.139.179-.151.174-.2-.088-.035-.189-.1-.273-.2-.261-.146.017-.2.195-.063.194.041,0,.074.073.075.167,0,.153-.085.2-.283.168-.059-.011-.076.055-.046.171.043.16.017.177-.167.111-.14-.05-.236-.032-.27.049-.075.182-.357.023-.407-.228a.246.246,0,0,0-.473-.019c-.019.074-.07.137-.112.138s-.059-.068-.035-.163.014-.162-.024-.16a.7.7,0,0,0-.341.4c0,.054-.082.08-.192.059-.169-.03-.188,0-.14.2.043.189.026.229-.089.2a.2.2,0,0,1-.146-.193c0-.232-.155-.26-.272-.051-.087.156-.082.174.042.141.105-.027.152.047.177.278.026.252.008.3-.092.247a.6.6,0,0,0-.2-.067c-.044,0-.057-.047-.031-.11a.075.075,0,0,0-.075-.11.13.13,0,0,1-.122-.135c0-.1-.025-.085-.076.031-.1.232-.085.468.03.4s.4.206.305.292a.791.791,0,0,1-.385.035q-.319-.024-.357.123c-.046.181-.165.1-.277-.2-.076-.2-.059-.217.169-.19.183.022.253-.016.251-.138,0-.281-.509-.218-.7.088-.158.253-.3.345-.214.138.025-.059-.007-.077-.073-.042a.186.186,0,0,0-.074.211c.023.078.093.12.152.088s.11-.014.11.037c0,.115-.307.169-.312.054a1.1,1.1,0,0,0-.116-.283c-.09-.168-.136-.181-.228-.067a.275.275,0,0,0-.078.226c.02.046-.049.168-.15.266-.225.217-.27.221-.221.021a.209.209,0,0,0-.09-.216c-.155-.084-.291.015-.225.165.044.1-.13.137-.636.14-.191,0-.249.05-.247.207,0,.115-.038.212-.092.221l-.172.032a1,1,0,0,0-.251.155c-.094.074-.206.109-.244.075s-.1.016-.142.121c-.048.127-.088.145-.127.059-.074-.167-.374-.156-.332.012a1.465,1.465,0,0,0,1.08.282.183.183,0,0,1,.213.017,1.268,1.268,0,0,0,.89.212.2.2,0,0,1,.239.011,1.94,1.94,0,0,0,.695.159,8.591,8.591,0,0,1,.959.152c.242.06.365.048.4-.04s.054-.091.055-.042.073.029.168-.043c.138-.1.159-.1.122.041s.046.174.493.2a1.147,1.147,0,0,0,.608-.067c.039-.057.113-.048.173.022.119.139.994.137.932,0-.075-.168.065-.1.158.083.077.145.13.154.29.046a.265.265,0,0,1,.359-.013c.111.082.178.085.209.009s.1-.074.176-.011a1.875,1.875,0,0,0,.745.074,4.3,4.3,0,0,1,.888.042.834.834,0,0,0,.484-.04c.131-.066.248-.064.308,0a4.729,4.729,0,0,0,1.394.086,5.615,5.615,0,0,1,1.332.06c.02.05.06.061.1.027a3.352,3.352,0,0,1,1.039-.178c.088.01.195.024.25.032a.072.072,0,0,1,.06.1.139.139,0,0,0,.042.152c.041.036.077-.016.076-.111,0-.115.031-.148.094-.092.126.112.9.114.9,0,0-.047.05-.084.116-.085a.128.128,0,0,1,.119.136c0,.1.233.134.907.126a2.474,2.474,0,0,1,.955.094c.028.06.092.064.15.01a1.393,1.393,0,0,1,.644-.062,6.373,6.373,0,0,0,.7.016c.41-.047.674-.012.772.1.059.069.122.076.147.015a.438.438,0,0,1,.254-.169,2.236,2.236,0,0,0,.346-.139c.1-.056.124-.031.09.105-.03.116,0,.178.076.178a.117.117,0,0,0,.119-.116c0-.066.073-.043.169.051.186.182.5.048.407-.171-.029-.064.052-.039.186.057.259.189,1.786.319,1.784.152,0-.052.087-.036.2.036.155.1.232.1.344-.007s.146-.105.148.025.045.139.2.057a.31.31,0,0,1,.36.016,4.458,4.458,0,0,0,2.124-.174c.046-.042.164-.023.253.041a1.7,1.7,0,0,0,.692.133c.286.007.508.053.488.1s.1.089.28.088.3-.046.266-.112.014-.077.14-.012c.155.081.2.056.269-.143l.081-.242.007.252c.005.168.056.252.154.251a.688.688,0,0,1,.268.062c.079.04.121,0,.12-.117,0-.135.031-.154.134-.08a.328.328,0,0,0,.254.059c.5-.171.533-.175.535-.047,0,.091.078.115.232.072.131-.037.23-.02.231.04s.122.086.276.062.292,0,.314.051c.038.091.314.045.569-.1.233-.128.34-.124.419.016.065.116.122.121.274.025Zm5.221-1.078c0-.084.028-.118.073-.079a.514.514,0,0,1,.081.31c0,.2-.01.213-.073.079a.963.963,0,0,1-.081-.31Zm2.771.188c0-.063.014-.11.035-.11s.058.047.086.11.009.11-.035.11-.085-.052-.086-.11Zm-5.114.031c-.027-.06-.013-.11.031-.11s.082.049.083.11-.013.11-.032.11-.054-.047-.082-.11Zm6.731-.282c0-.063.032-.081.077-.042a.265.265,0,0,1,.079.178c0,.063-.032.081-.076.042a.263.263,0,0,1-.08-.178Zm-6.088-.163c0-.063.014-.11.035-.111s.058.047.086.11.009.111-.035.111-.085-.052-.086-.11Zm20.4-.238c0-.061.035-.111.079-.111s.06.049.035.11-.06.111-.079.111-.034-.047-.035-.11Zm32.48-.811c0-.024.047-.042.113-.043a.108.108,0,0,1,.116.105c0,.061-.047.079-.114.043s-.114-.08-.115-.105Zm-9.65-.047a.149.149,0,0,1,.119-.143c.088-.024.136.026.137.142,0,.189-.227.19-.256,0Zm-.726-.253c.009-.2.05-.3.11-.269a.207.207,0,0,1,.1.157,1.024,1.024,0,0,1-.207.429,1.657,1.657,0,0,1,0-.317Zm-6.871.252c0-.063.013-.111.032-.111s.054.047.082.11.012.11-.032.111-.081-.05-.082-.11Zm8.314-.1a.214.214,0,0,1,.075-.116c.042-.038.077-.016.078.047s-.033.115-.075.116-.077-.02-.078-.047Zm-4.261-.09c.024-.1.074-.163.118-.164s.038.068-.016.163a.494.494,0,0,1-.119.164c-.014,0-.008-.068.017-.163Zm-4.62.028c.025-.1.07-.164.108-.164s.049.068.024.163-.069.163-.107.164-.049-.068-.025-.163Zm10.045-.108c-.1-.089-.064-.344.046-.34a.283.283,0,0,1,.218.317c-.06.145-.123.15-.264.023Zm-3.556.016c0-.057.038-.11.082-.111s.063.053.039.11-.062.111-.083.111-.038-.047-.038-.11Zm28.945-.29c0-.063.014-.11.035-.11s.058.047.086.109.009.111-.035.111-.085-.052-.086-.11Zm-41.7.293a.12.12,0,0,1,.147-.011c.06.034.041.062-.047.069s-.125-.02-.1-.058Zm43.724-.541c-.009-.168.012-.205.069-.122a.288.288,0,0,1,.031.237c-.072.163-.086.147-.1-.115Zm-1.747.021c.022-.055-.006-.105-.057-.105-.073,0-.076-.034-.009-.131s.113-.1.172-.018c.1.133.029.513-.075.423a.148.148,0,0,1-.031-.169Zm-10.094.071c.026-.063.084-.085.129-.048s.045.1-.02.16c-.116.106-.174.047-.109-.112Zm-7.89.158c0-.058.039-.111.083-.111s.062.052.038.11-.062.111-.083.111-.037-.047-.038-.11Zm-9.429.051c.053-.126.339-.376.34-.3a.821.821,0,0,1-.12.232c-.128.19-.292.238-.22.064Zm-2.819.028a.2.2,0,0,0,.055-.211.169.169,0,0,1,.02-.178c.039-.037.086.057.109.214.032.221.006.278-.124.274s-.14-.027-.06-.1Zm32.9-.6c.029-.04.1,0,.166.094s.1.193.069.236-.1,0-.166-.094-.1-.2-.069-.236Zm-30.425.414c0-.094.028-.163.071-.163s.056.068.031.163-.054.163-.071.163-.03-.068-.031-.163Zm31.823-.554c.08-.117.124.052.069.263s-.056.2-.083.005a.529.529,0,0,1,.014-.268Zm-1.029.317c0-.064.012-.111.031-.111s.054.047.082.11.013.11-.031.11-.082-.049-.082-.109Zm-25.666.17a.066.066,0,0,1,.068-.1c.059,0,.092.043.071.094s-.05.1-.068.1-.046-.038-.071-.094Zm25.943-.346c-.028-.1-.017-.15.027-.11a.25.25,0,0,1,.075.173c0,.159-.051.126-.1-.063Zm-2.76-.167c.055-.084.086-.09.087-.016,0,.147-.086.275-.138.2-.02-.029,0-.11.051-.184Zm-40.941.383c0-.063.013-.11.032-.11s.054.047.082.109.012.111-.032.111-.081-.05-.082-.11ZM189.055,460c-.036-.085-.012-.105.069-.058s.125.021.124-.053.017-.1.043-.064c.058.081-.025.305-.113.306-.037,0-.091-.058-.123-.131Zm-3.615-.062a.075.075,0,0,1,.075-.111.077.077,0,0,1,.079.11c-.027.063-.059.111-.076.111s-.05-.047-.078-.11Zm-1.953-.141c-.039-.27.114-.232.168.041.028.147.011.216-.047.19a.329.329,0,0,1-.121-.231Zm6.3,0c0-.063.012-.11.031-.111s.054.047.082.11.013.111-.031.111-.082-.05-.082-.11Zm-5.141-.326c-.007-.284,0-.315.052-.143.052.189.039.5-.022.505a1.509,1.509,0,0,1-.03-.362Zm-28.537.463a.138.138,0,0,1-.079-.16c.046-.114.261-.012.262.125,0,.12-.02.124-.183.035Zm-74.416.177c0-.065-.045-.079-.1-.031a.509.509,0,0,1-.2.112c-.089.018-.088-.009.006-.142a.248.248,0,0,1,.321-.09c.221.079.286.27.092.272a.12.12,0,0,1-.119-.121Zm2.332-.508a.737.737,0,0,0,.12-.358c0-.094.023-.138.054-.1a.624.624,0,0,1,.062.268c0,.105.065.182.138.173s.113.03.089.088-.127.085-.23.06-.207,0-.23.054-.059.079-.084.047.011-.131.081-.237Zm106.747-.637c0-.1.032-.169.075-.169s.059.074.036.168-.057.169-.075.169-.034-.073-.036-.168Zm-106.106.323a.2.2,0,0,1,.208-.038c.058.031.126-.016.147-.1.048-.188.365-.15.414.05.017.07-.009.126-.061.126s-.072.069-.045.163.015.163-.027.163-.075-.073-.076-.167c0-.234-.095-.21-.251.064-.12.211-.133.213-.268.028-.12-.163-.126-.208-.041-.289Zm1.33.2a.241.241,0,0,0-.094-.2.06.06,0,0,1-.02-.108c.1-.092.368.207.31.348-.073.173-.193.148-.2-.041Zm-.381-.334c.081-.126.11-.085.19.272l.062.273-.161-.22c-.1-.133-.133-.262-.091-.325Zm106.427-.363a.109.109,0,0,1,.157-.047c.159.09.142.156-.041.157-.088,0-.141-.049-.116-.11Zm-109.67.55c0-.147.035-.2.111-.158s.1.1.026.21c-.123.2-.134.2-.137-.052Zm107.3-.7c.024-.094.07-.138.109-.1.08.07.018.267-.085.267-.038,0-.048-.068-.024-.163Zm2.061-.175a.2.2,0,0,1,.179-.111c.107,0,.1.023-.021.1-.2.131-.209.131-.158.009Zm-1.019-.062a.114.114,0,0,1,.15-.011c.061.033.041.062-.047.068s-.128-.02-.1-.057Zm-104.371.592a.145.145,0,0,1,.081-.164c.152-.085.22-.022.151.141s-.17.158-.232.023Zm-1.661.062a.2.2,0,0,1,.075-.121c.04-.036.077-.011.078.052s-.036.121-.076.121-.077-.022-.077-.052Zm4.642-.595-.021-.389.142.246a.435.435,0,0,1,.06.446c-.1.253-.154.17-.181-.3Zm-1.106.238a.267.267,0,0,1,.192-.217.27.27,0,0,0,.191-.222.259.259,0,0,1,.115-.217c.151-.084.146.01-.012.243-.079.116-.091.194-.034.22.158.074.1.268-.063.208a.144.144,0,0,0-.2.1c-.047.18-.183.1-.186-.114Zm-.646.166c-.028-.062,0-.11.068-.11a.113.113,0,0,1,.119.109c0,.063-.029.111-.068.111s-.091-.047-.119-.11Zm-1.43-.27c-.085-.145-.079-.157.039-.094s.127.025.081-.216-.031-.289.092-.29c.212,0,.238.216.058.5-.085.137-.155.247-.162.253a.585.585,0,0,1-.108-.157Zm6.081-.5c-.013-.232.123-.158.173.094.062.315-.027.527-.1.253a2.01,2.01,0,0,1-.068-.347Zm.745.18c-.028-.147-.013-.211.045-.184.111.051.173.408.072.409-.041,0-.093-.1-.117-.225Zm-1.384-.113a.224.224,0,0,1,.232-.2c.2,0,.2,0,.054.2-.187.26-.33.261-.286,0Zm-1.737-.257c.024-.037.091.052.141.188.09.241.087.245-.046.069-.075-.1-.12-.221-.1-.257Zm-1.943.3c0-.063.014-.11.035-.11s.058.047.086.11.009.11-.035.11-.085-.052-.086-.11Zm-1.861-.125c.058-.085.091-.091.092-.017,0,.147-.091.276-.144.2-.021-.029,0-.11.052-.184Zm7.35-.1c-.073.018-.144-.047-.159-.147-.037-.239.278-.216.458.033s.181.345-.012.2a.392.392,0,0,0-.287-.085Zm-6.569.1c0-.136.306-.174.425-.052.1.1.067.123-.152.124-.147,0-.272-.032-.273-.072Zm8.312-.255c0-.057.032-.1.076-.1s.077.073.079.168-.032.138-.076.1a.255.255,0,0,1-.079-.168Zm-.449-.213c.11-.378.286-.45.29-.117,0,.158-.035.2-.129.153-.074-.037-.11-.03-.081.016a.25.25,0,0,1-.033.221c-.138.221-.158.107-.047-.273Zm2.757.1c0-.06.05-.078.117-.043s.118.081.119.1-.051.042-.117.043a.112.112,0,0,1-.119-.1Zm-.5,0c-.027-.06-.012-.11.032-.11s.081.049.082.109-.013.111-.032.111-.054-.047-.082-.11Zm-7.782-.379c.076-.114.266.114.269.325,0,.226,0,.225-.147-.026a.7.7,0,0,1-.122-.3Zm-.564.282c-.017-.115.02-.184.1-.184s.108-.046.081-.106c-.095-.212.1-.116.21.1.063.126.133.189.161.146s.051-.032.052.031c0,.2-.1.268-.341.23a.285.285,0,0,1-.264-.221Zm7.145-.058c0-.1.048-.169.112-.169s.1.062.072.167-.073.169-.112.169-.071-.073-.072-.167Zm.35-.223c.007-.358.094-.484.19-.275.115.252.1.419-.056.477a.8.8,0,0,0-.135.06c0,.006,0-.115,0-.262Zm-.517.029c.057-.084.09-.09.091-.016,0,.147-.09.275-.144.2-.021-.029,0-.11.053-.184Zm-.431.129c.012-.063.059-.121.1-.122s.088.058.1.121a.092.092,0,0,1-.1.121.1.1,0,0,1-.1-.12Zm-1.967-.13a.484.484,0,0,1,.109-.358.554.554,0,0,0,.1-.453c-.037-.2-.015-.252.107-.253.176,0,.14.252-.091.631-.083.138-.117.253-.073.253s.1.073.127.168c.031.111,0,.168-.1.168a.205.205,0,0,1-.185-.156Zm101.8-.681c0-.061.035-.111.079-.111s.06.049.034.11-.06.111-.079.111-.033-.047-.034-.11Zm-97.547.529a.143.143,0,0,1,.119-.158c.1,0,.106.023.023.157-.125.2-.139.2-.142,0Zm-.813.086c-.068-.062-.067-.11,0-.207.113-.153.315-.013.239.166-.058.139-.125.15-.244.041Zm2.242-.147c.023-.058.006-.105-.038-.105-.142,0-.09-.2.07-.277a.26.26,0,0,0,.151-.218.509.509,0,0,1,.113-.286.517.517,0,0,0-.068-.7l-.178-.174.168-.006c.1,0,.236.125.339.324.139.272.148.33.052.33s-.154.128-.128.359c0,.041-.043.045-.109.009-.126-.067-.154.136-.034.242s.1.274-.025.275c-.058,0-.145.075-.2.17-.106.189-.187.227-.115.053Zm-.968-.005a.088.088,0,0,1,.087-.1c.048,0,.134-.09.188-.2.091-.177.1-.168.108.1.006.231-.032.289-.187.29-.11,0-.195-.04-.2-.094Zm-3.407-.079c.021-.126.054-.2.075-.174.04.057-.024.4-.075.4-.021,0-.02-.1,0-.226Zm-3.588-.078c.016-.072.066-.081.133-.022a.216.216,0,0,1,.051.231c-.064.152-.225-.031-.184-.209Zm10.843.039a.194.194,0,0,1,.112-.153c.073-.037.1,0,.072.1-.047.179-.181.218-.184.053Zm-10.083-.049c0-.063.032-.111.076-.111s.077.047.078.11-.031.11-.075.111-.078-.047-.079-.11Zm-1.539.009c0-.063.031-.111.075-.111s.078.047.079.11-.032.111-.076.111-.078-.047-.078-.11Zm25.1-.3c0-.106.227-.16.269-.065.026.058-.023.1-.111.106s-.158-.018-.158-.041Zm-12.933-.185c0-.274.006-.282.068-.085.1.3.1.388.005.389-.04,0-.073-.136-.073-.3Zm-1.7.2c0-.063.012-.11.031-.11s.054.047.082.109.013.111-.031.111-.081-.049-.082-.11Zm-.543,0c0-.064.032-.111.076-.111s.077.047.078.11-.031.11-.075.11-.078-.046-.079-.109Zm-6.232-.194a.241.241,0,0,0,.076-.153c-.022-.2,0-.287.055-.238a.728.728,0,0,1,.038.395c-.023.274-.049.312-.14.206s-.09-.152-.029-.21Zm-1.05.18c-.075-.263,0-.3.109-.054.061.137.069.221.019.221s-.1-.073-.128-.167Zm14.518-.083a.214.214,0,0,1,.076-.116c.041-.037.076-.016.077.047s-.033.116-.075.116-.077-.02-.078-.047Zm-10.317,0c0-.064.032-.111.076-.111s.077.046.078.11-.031.11-.075.11-.078-.046-.079-.109Zm10.9-.166a.157.157,0,0,1,.029-.174c.043-.038.077.005.079.1,0,.189-.043.22-.108.074Zm16.293-.177a.114.114,0,0,1,.15-.011c.061.033.041.062-.047.068s-.128-.02-.1-.057Zm-26.12.178a.217.217,0,0,1,.075-.116c.042-.037.077-.016.078.047s-.034.116-.076.116-.077-.02-.077-.047Zm12.938-.3a.5.5,0,0,1-.056-.33c.024-.1,0-.168-.054-.173-.073-.008-.074-.023,0-.063a.169.169,0,0,0,.056-.185.538.538,0,0,1,.036-.3c.058-.138.09-.143.169-.028.064.094.067.142.009.142s-.083.148-.076.326.041.3.077.268.066.068.069.225c0,.316-.084.361-.226.117Zm19.238-.173c0-.063.032-.111.076-.111s.078.047.078.11-.031.11-.075.111-.078-.047-.079-.11Zm-26.638.108c0-.1.03-.163.075-.164s.06.068.035.163-.055.163-.074.163-.034-.068-.036-.162Zm-3.307-.033c0-.06.035-.111.079-.111s.06.05.035.11-.061.111-.08.111-.033-.047-.034-.11Zm-6.7.04c0-.063.015-.11.035-.11s.058.047.086.11.009.11-.035.11-.085-.052-.086-.11Zm21.679-.262c-.025-.035.036-.114.137-.179.16-.1.178-.093.148.083s-.188.232-.285.1Zm-13.61-.039c.056-.084.087-.09.088-.016,0,.147-.086.276-.138.2-.02-.03,0-.111.05-.185Zm-4.276.053a.568.568,0,0,1,.093-.343c.119-.145.134-.079.069.31-.051.3-.141.323-.162.033Zm-.817.067c-.032-.111,0-.168.107-.168.154,0,.2.113.1.256-.079.114-.158.08-.205-.088Zm43.771-.563c.017-.079.054-.026.082.121.037.189.028.229-.031.142a.409.409,0,0,1-.051-.263Zm-33.484.333c0-.126.047-.221.1-.221s.076.094.054.221-.064.22-.1.221-.058-.094-.054-.221Zm-3.925.077c0-.1.026-.169.063-.169.074,0,.085.155.018.252s-.079.106-.081-.083Zm-5.17-.042c.166-.155.249-.121.148.061-.053.1-.128.139-.172.1s-.042-.1.024-.162Zm22.774-.322c0-.158.012-.16.079-.016.1.209.1.354,0,.271a.373.373,0,0,1-.081-.255Zm11.628-.1c.047-.127.115-.192.16-.154s.02.132-.06.219c-.188.206-.2.2-.1-.065Zm-14.248.207a.109.109,0,0,0-.115-.11.112.112,0,0,1-.115-.115c0-.177.117-.127.273.114.081.125.1.22.05.22a.1.1,0,0,1-.093-.109Zm-6.107-.022c.045-.179.179-.234.181-.074,0,.115-.085.242-.165.242-.033,0-.04-.073-.016-.168Zm1.107-.322c.005-.189.014-.2.045-.047.022.105.075.194.117.194s.054.052.027.115c-.075.178-.195.012-.189-.262Zm-2.392.272a.1.1,0,0,1,.083-.111c.044,0,.062.053.038.111s-.062.11-.083.11-.037-.047-.038-.11Zm-.227,0c0-.063.031-.111.075-.111s.078.047.078.11-.031.11-.075.111-.078-.047-.078-.11Zm-10.778.065c0-.063.029-.111.071-.111s.1.047.123.109a.073.073,0,0,1-.072.111.116.116,0,0,1-.122-.109Zm23.555-.3c0-.189.1-.287.195-.189.132.131.107.3-.047.319a.13.13,0,0,1-.148-.13Zm-1.076.111a.751.751,0,0,1,.31-.409c.072-.041.117-.009.118.086s-.023.129-.054.1-.1.021-.149.116c-.093.169-.224.23-.225.106Zm-7.757-.21c.007-.179.04-.3.073-.27.086.075.074.589-.014.59-.041,0-.067-.142-.059-.32Zm-.639.214c0-.063.031-.111.075-.111s.078.047.079.11-.032.11-.076.111-.077-.047-.078-.11Zm-3.847-.04c.053-.1.113-.15.133-.122.055.08-.053.3-.149.3-.048,0-.042-.068.016-.173Zm14.658-.157a.269.269,0,0,1,.035-.242c.13-.19.1-.315-.07-.276-.087.02-.155-.007-.158-.064s.1-.1.229-.112c.169-.008.224.03.2.136a1.9,1.9,0,0,0-.035.41c0,.284-.1.363-.2.148Zm-9.917-.077c.024-.094.092-.179.145-.179s.115-.1.136-.222.077-.221.129-.221c.069,0,.071.036.006.152a.509.509,0,0,0-.074.248c.033.252-.015.361-.174.4-.219.053-.225.047-.168-.177Zm-.637.025c.022-.086.041-.058.045.068s-.015.184-.039.147a.321.321,0,0,1-.006-.215Zm-.485.2a.217.217,0,0,1,.075-.116c.042-.037.077-.016.078.047s-.034.116-.075.116-.078-.02-.078-.047Zm-4.546.028a.214.214,0,0,1,.075-.116c.042-.038.077-.016.078.047s-.033.115-.075.116-.078-.02-.078-.047Zm-1.849-.052c0-.063.032-.111.076-.111s.078.047.078.11-.031.111-.075.111-.078-.047-.079-.11Zm-4.9-.26c.024-.094.077-.138.121-.1s.047.152-.01.31c-.094.26-.187.085-.111-.21Zm26.605.093a.669.669,0,0,1,.133-.2c.123-.141.126-.137.032.037-.1.19-.164.25-.165.159Zm-.892-.258c.053-.08.2.072.2.209,0,.072-.043.065-.117-.02s-.1-.159-.085-.189Zm-2.063-.04a.171.171,0,0,1,.153-.085c.066,0,.093-.047.064-.111a.3.3,0,0,1-.005-.215c.05-.123.27-.023.272.124s-.193.422-.295.423c-.044,0-.08.063-.079.136,0,.1-.02.09-.074-.025a.35.35,0,0,1-.036-.247Zm33.128-.32c0-.062.051-.049.118.03a.5.5,0,0,1,.12.252c0,.062-.05.049-.117-.031a.5.5,0,0,1-.121-.251Zm-25.052.4a.171.171,0,0,1,.136-.106c.057,0,.048.041-.024.109-.145.136-.171.135-.112,0Zm-13.318.081c-.069-.158-.042-.187.243-.252.183-.041.249-.016.251.1,0,.089-.046.127-.113.09s-.113-.009-.112.064c0,.158-.2.159-.269,0Zm-3.138-.071c.008-.063-.012-.123-.042-.126s-.068-.157-.078-.346c-.018-.315,0-.336.187-.267.353.128.532.487.331.667-.04.037-.052-.009-.027-.1s.014-.169-.028-.168c-.124,0-.239.245-.193.411.033.115.014.15-.06.11a.185.185,0,0,1-.09-.178Zm-1.726.077a.471.471,0,0,1-.232-.317c-.009-.166.016-.169.26-.023.148.089.31.139.357.112.124-.069.31.213.188.286a.525.525,0,0,1-.573-.058Zm-11.319-.035c.023-.086.042-.058.045.068s-.014.184-.038.147a.321.321,0,0,1-.007-.215Zm58.371-.325c.027-.064.076-.111.116-.111s.07.046.071.11a.111.111,0,0,1-.116.111.072.072,0,0,1-.071-.11Zm-1.772-.116c.032-.158.02-.212-.035-.162s-.084.018-.085-.042c0-.129.02-.135.175-.051.121.065.1.491-.03.492-.039,0-.051-.11-.025-.237Zm-29.374.051c0-.044.05-.079.116-.08.129,0,.134.021.068.273-.039.148-.059.153-.115.033a.733.733,0,0,1-.069-.226Zm-2.407.156c.023-.126.082-.187.149-.153.088.046.092.089.02.216-.128.222-.214.19-.169-.063Zm-8.883-.251c.022-.035.1-.031.172.01.12.065.119.092-.01.273s-.146.19-.173-.01a.584.584,0,0,1,.011-.273Zm-6.853.47a.209.209,0,0,1-.031-.218c.062-.147.344-.129.445.029.033.05.017.058-.035.016s-.1-.016-.094.089c0,.187-.129.226-.285.084Zm-1.565-.235c0-.116.027-.216.063-.216s.067.126.069.273-.027.246-.063.215a.479.479,0,0,1-.069-.272Zm-.694.235a.112.112,0,0,1,.116-.111.114.114,0,0,1,.119.11.112.112,0,0,1-.116.111.114.114,0,0,1-.119-.11Zm-3.387.021c0-.058.039-.111.083-.111s.062.052.038.11-.062.111-.083.111-.037-.047-.038-.11Zm23.256-.429c.128-.229.375-.2.37.039,0,.116-.019.136-.043.053-.043-.147-.263-.2-.246-.062.024.189-.01.264-.088.2-.054-.046-.052-.122.007-.227Zm-.624.177c0-.064.015-.111.036-.111s.057.047.085.11.009.11-.035.111-.085-.053-.086-.11Zm-21.63.083a.359.359,0,0,1,.074-.227c.043-.038.078.031.079.157s-.031.226-.074.227-.078-.073-.079-.157Zm-5.314.147c0-.023.05-.07.116-.106s.117-.018.118.042a.11.11,0,0,1-.116.106c-.066,0-.118-.018-.118-.042Zm-.884-.063c-.027-.06-.013-.11.031-.11s.081.049.082.109-.012.111-.031.111-.054-.047-.082-.11Zm84.977-.575a.12.12,0,0,1,.147-.011c.06.034.041.062-.047.069s-.125-.02-.1-.058Zm-55.555.235c-.029-.1-.007-.136.067-.1a.224.224,0,0,1,.112.157c0,.162-.129.116-.179-.062Zm-9.533-.247c.1-.148.115.009.031.325-.052.2-.054.2-.082,0a.524.524,0,0,1,.051-.321Zm-1.1.311c-.026-.094-.017-.168.02-.168s.086.073.112.167.017.168-.02.169-.086-.073-.112-.168Zm-2.056.07c.046-.041.047-.131,0-.226-.114-.245-.1-.305.086-.453.152-.12.162-.115.078.037-.065.116-.07.2-.015.247a.2.2,0,0,1,.032.2c-.03.07-.014.087.037.041a.132.132,0,0,1,.213.141c-.019.047-.14.085-.273.086s-.2-.03-.162-.068Zm-.614-.159c-.04.035-.074-.015-.075-.11s-.037-.173-.079-.173-.079-.094-.08-.22.048-.221.118-.222a.074.074,0,0,1,.074.11c-.026.064-.017.111.02.111a1.432,1.432,0,0,1,.255.713c0,.062-.038.026-.081-.078s-.113-.165-.152-.131Zm-.659.109c.024-.1.008-.168-.035-.168s-.078-.078-.079-.173.038-.154.086-.132c.148.069.175.64.031.641-.025,0-.026-.073,0-.168Zm-1.435-.086c-.027-.189,0-.256.1-.268a.191.191,0,0,1,.185.088c.025.057-.01.1-.076.1s-.12.077-.118.169c0,.255-.051.2-.094-.094Zm19.266-.063a.246.246,0,0,1,.123-.175c.1-.056.107-.039.031.1-.11.2-.152.221-.154.075Zm-1.159-.056c0-.1.03-.169.071-.169.1,0,.166.174.106.262-.083.123-.175.075-.177-.093Zm-2.073.122a.211.211,0,0,1,.075-.116c.041-.037.077-.016.078.047s-.034.116-.076.116-.077-.02-.077-.047Zm-3.884-.034c-.022-.051.047-.087.15-.08s.191.054.192.1c0,.113-.291.1-.342-.019Zm-12.365.069c0-.063.014-.11.035-.11s.058.047.086.11.009.11-.035.11-.085-.052-.086-.11Zm-5.27.037a.2.2,0,0,1,.176-.116c.11,0,.112.015.013.111-.145.139-.246.143-.189,0Zm-3.426.016c0-.063.013-.111.031-.111s.055.047.083.11.012.11-.032.11-.081-.049-.082-.109Zm-6.656.045a.141.141,0,0,1,.018-.163c.035-.031.067.015.068.1,0,.189-.022.207-.086.064Zm-.971-.126c0-.063.032-.081.076-.042a.263.263,0,0,1,.08.178c0,.063-.032.081-.077.043a.269.269,0,0,1-.079-.179Zm37.188-.26c0-.1.01-.168.027-.169s.049.074.075.168.015.168-.027.168-.074-.073-.075-.167Zm-4.127.109c.1-.038.117-.079.049-.138-.153-.134.051-.617.348-.825.247-.172.266-.173.224-.008a1.476,1.476,0,0,0-.044.289c0,.06-.061.082-.135.048a.237.237,0,0,0-.248.06c-.1.1-.094.113.023.057s.123-.032.057.158c-.045.126-.059.221-.034.221s.024.047,0,.11a.216.216,0,0,1-.215.1c-.147-.013-.15-.022-.023-.068Zm-12.388.048c.026-.063.078-.111.119-.111s.074.047.075.11a.115.115,0,0,1-.119.111.075.075,0,0,1-.075-.11Zm-14.473-.141c.189-.1.344-.024.347.168,0,.119-.046.124-.245.028s-.228-.13-.1-.2Zm31.676-.078a.111.111,0,0,1,.116-.111.113.113,0,0,1,.119.109.111.111,0,0,1-.116.111.113.113,0,0,1-.119-.109Zm-3.692-.251c0-.064.03-.042.074.052a.781.781,0,0,1,.077.273c0,.064-.03.042-.074-.052a.81.81,0,0,1-.077-.273Zm-2.112.217c-.041-.146-.029-.154.069-.043.141.161.156.221.054.221-.039,0-.1-.083-.123-.178Zm-4.431.158a.214.214,0,0,1,.076-.116c.041-.037.077-.016.077.047s-.033.116-.075.116-.077-.02-.078-.047Zm-5.082-.09c0-.088.049-.158.115-.158.117,0,.149.132.062.257s-.175.069-.177-.1Zm-6.957.042c-.028-.1-.017-.15.026-.11a.247.247,0,0,1,.076.172c0,.16-.052.127-.1-.062Zm44.235-.679c.211-.122.247-.032.086.212-.119.18-.147.186-.189.044a.213.213,0,0,1,.1-.256Zm-34.109.166c.006-.147.052-.263.106-.263.132,0,.232.251.121.3-.094.047-.124.258-.033.237.153-.036.2.022.1.115-.153.141-.311-.068-.3-.394Zm-1.5.451a.334.334,0,0,1,0-.226c.033-.127.056-.133.1-.027s.083.11.184-.012.1-.169.022-.237c-.052-.046-.061-.089-.019-.089.205,0,.269.17.153.409s-.336.325-.439.182Zm-2.134-.135c-.069-.178-.063-.208.033-.157a.265.265,0,0,1,.12.219c0,.214-.056.19-.153-.062Zm40.413-.253c0-.158.23-.351.348-.289.1.05.1.1.031.213-.1.147-.377.2-.379.076Zm-4-.05c.162-.306.173-.317.125-.116-.029.119,0,.2.089.23s.034.057-.091.064c-.2.01-.212-.01-.123-.178Zm-2.7.158a.2.2,0,0,1,.075-.116c.041-.037.077-.016.078.047s-.034.116-.076.116-.077-.02-.077-.047Zm-23.519.079a.186.186,0,0,1,.16-.112c.066,0,.094.046.067.11a.181.181,0,0,1-.159.112c-.066,0-.1-.046-.068-.11Zm-1.8-.1a.567.567,0,0,1,.027-.557c.093-.232.15-.287.193-.19.1.209.076.3-.049.233-.067-.036-.118-.009-.117.062s.031.126.072.125.066.126.062.273c-.009.337-.054.35-.188.054Zm-1.561-.117c0-.273.221-.771.313-.691a.345.345,0,0,1,.069.221c0,.1-.026.139-.065.106s-.1.069-.151.216c-.068.221-.062.274.033.273.067,0,.148-.121.187-.279a.639.639,0,0,1,.244-.375c.153-.084.158-.105.042-.172-.187-.108-.18-.279.011-.28.1,0,.134.049.1.167-.024.1,0,.168.057.168s.052.073-.034.211a.45.45,0,0,0-.078.336c.087.2-.179.4-.466.353-.2-.033-.265-.1-.267-.254Zm-7.265.16c.025-.064.072-.08.117-.043a.146.146,0,0,1,.031.168c-.025.063-.072.08-.116.043a.145.145,0,0,1-.032-.168Zm-.588-.1c0-.252.092-.334.239-.2.1.085.1.1,0,.1-.114,0-.05.153.075.177.147.028.158.04.118.136-.073.174-.431,0-.434-.208Zm-.62.261c.088-.05.087-.071,0-.152s-.074-.094.028-.1a.15.15,0,0,1,.134.162c0,.091-.056.159-.13.153-.1-.007-.1-.025-.03-.068Zm-9.391-.127c.1-.187.037-.26-.212-.229-.11.013-.163-.03-.141-.116a.355.355,0,0,0-.055-.257.185.185,0,0,1,0-.257c.071-.108.091-.085.093.1,0,.305.13.414.193.167.041-.158.062-.162.125-.027s.075.136.073-.032c0-.1.034-.195.078-.195s.064.04.045.089a.36.36,0,0,0,.03.237c.065.146-.2.837-.281.727-.02-.028,0-.126.052-.211Zm23.529-.094c-.027-.06-.012-.111.032-.111s.081.05.082.11-.013.11-.032.111-.054-.047-.082-.11Zm-2.883-.251c.108-.358.253-.377.258-.033,0,.147-.035.242-.085.216s-.11.006-.141.08c-.1.233-.121.032-.032-.263Zm-.933.3a1.724,1.724,0,0,1,.476-.614c.136-.076.287.115.291.367,0,.137-.053.171-.229.144-.125-.019-.231,0-.23.049s-.065.091-.153.1-.154-.01-.155-.046Zm-.724-.153a.308.308,0,0,0-.044-.259c-.1-.089-.113-.382-.012-.382.046,0,.081.094.083.22,0,.242.084.273.214.083.065-.1.094-.1.1-.011a.286.286,0,0,1-.078.2.227.227,0,0,0-.045.2.1.1,0,0,1-.108.132c-.1,0-.132-.053-.1-.188Zm-1.56-.128c-.015-.283.011-.365.113-.356.128.01.229.207.242.47.006.115-.058.167-.3.243a.889.889,0,0,1-.056-.357Zm-.387.108c.175-.257.257-.212.1.052-.077.126-.151.2-.173.169s.013-.126.078-.221Zm-13.31.069c.127-.19.4-.215.475-.045.037.084,0,.1-.1.059a.188.188,0,0,0-.248.1c-.054.1-.123.139-.163.106s-.021-.131.035-.216Zm-1.753.022a.14.14,0,0,1,.2-.091c.154.054.155.063.024.2-.159.17-.28.109-.224-.113Zm-7.194.032c.021-.033.067.031.1.136.046.158.038.171-.039.064-.052-.074-.079-.166-.058-.2Zm71.271-.439c0-.1.034-.139.08-.1a.161.161,0,0,1,.037.173c-.067.157-.114.127-.117-.072Zm-18.353.058c.026-.064.073-.081.117-.043a.146.146,0,0,1,.032.168c-.026.063-.072.08-.117.043a.148.148,0,0,1-.032-.168Zm-9.823.18c0-.063.014-.111.035-.111s.058.047.086.11.009.11-.035.11-.085-.052-.086-.109Zm-21.475.124a.222.222,0,0,1,.107-.174.2.2,0,0,0,.066-.216c-.049-.174.038-.2.194-.063.085.076.08.135-.031.324-.147.254-.334.325-.336.129Zm-1.031-.278a.114.114,0,0,1,.164-.08c.112.05.111.035-.009-.1s-.127-.167-.014-.23c.2-.107.263-.074.216.108a.423.423,0,0,0,.1.336c.082.094.1.135.049.094s-.1,0-.094.09c0,.134-.039.141-.223.043-.126-.066-.21-.18-.191-.256Zm-17.657.285a.267.267,0,0,1,.133-.258c.094-.038.146,0,.148.1s-.032.133-.1.079c-.078-.067-.079-.052,0,.085s.072.169-.038.178c-.076.007-.138-.072-.146-.188Zm-4.295.136c-.027-.06-.012-.11.032-.11s.081.049.082.11-.013.11-.032.11-.054-.047-.082-.11Zm84.929-.674a.381.381,0,0,1,.064-.168.409.409,0,0,1,.068.167c.029.1,0,.168-.064.169s-.094-.063-.068-.168Zm-25.537.206c0-.077-.052-.076-.154,0-.167.129-.2.008-.061-.2.086-.127.364-.192.365-.086a1.586,1.586,0,0,0,.051.22c.032.115.006.179-.075.179a.124.124,0,0,1-.126-.115Zm-2.154.087c0-.1.467-.146.508-.056.023.053-.079.1-.233.1s-.275-.016-.275-.04Zm-6.351-.256c.072-.173.191-.022.14.178-.027.1-.071.127-.118.058a.262.262,0,0,1-.022-.236Zm-39.081.077a.521.521,0,0,0,.032-.326c-.035-.125-.01-.178.085-.179.074,0,.113-.034.085-.074-.06-.085.082-.368.184-.369.037,0,.067.073.069.168s-.035.168-.082.169c-.064,0-.063.037,0,.152a.253.253,0,0,1-.025.321.489.489,0,0,0-.061.368c.049.178.041.184-.076.053s-.137-.12-.182.059-.055.19-.085.006a.653.653,0,0,1,.051-.348Zm-6.965.358a1.761,1.761,0,0,0,.041-.232c0-.031.029-.026.073.013.093.082.028.4-.083.4-.038,0-.053-.084-.031-.178Zm-3.878.091c0-.06.035-.11.079-.111s.06.05.035.111-.061.11-.08.111-.033-.047-.034-.111Zm51.324-.734c-.009-.137-.035-.242-.06-.242a1.832,1.832,0,0,1-.2-.923c.059-.232.184-.128.188.156,0,.126.039.221.087.22s.067.068.042.163-.014.163.025.163c.092,0,.16.4.114.672s-.174.137-.2-.209Zm-.247.311c-.028-.063-.016-.11.028-.11a.168.168,0,0,1,.126.109c.028.063.016.11-.028.111a.169.169,0,0,1-.126-.11Zm-9.792-.235c.021-.032.077-.025.121.015s.055.115-.012.221c-.078.124-.1.121-.121-.015a.38.38,0,0,1,.012-.221Zm-7.985.269a.189.189,0,0,1,.092-.206c.119-.067.116-.082-.024-.157-.123-.066-.1-.093.13-.133.154-.026.286-.007.287.041s-.05.09-.116.09c-.125,0-.144.232-.032.389.047.066,0,.105-.112.106a.235.235,0,0,1-.225-.13Zm-.813.078c0-.063.012-.11.031-.11s.054.047.082.11.013.11-.031.11-.081-.05-.082-.11Zm-1.412-.023c-.053.047-.049.006.01-.1s.071-.2.018-.249c-.11-.1-.107-.306,0-.255a.707.707,0,0,1,.112.419c.013.211.006.318-.015.242s-.08-.1-.129-.057Zm-.436.034c0-.06.035-.11.079-.111s.06.05.035.111-.061.11-.079.11-.034-.047-.035-.11Zm-.926-.147c0-.378.374-.577.384-.2,0,.17.015.168.112-.022.059-.116.158-.183.221-.149a.1.1,0,0,0,.15-.069c.018-.069.039-.037.045.068.007.147-.027.183-.13.138-.087-.039-.193.022-.277.159-.144.232-.319.32-.234.117.024-.059-.007-.078-.073-.042a.139.139,0,0,0-.075.164c.023.054.005.1-.039.1s-.082-.115-.084-.263Zm-15.586.252a.159.159,0,0,1,.031-.174c.043-.038.077.005.078.1,0,.2-.041.23-.109.074Zm-.733,0c0-.063.013-.11.032-.11s.054.047.082.109.012.111-.032.111-.081-.05-.082-.11Zm-9.011.049c0-.116.379-.374.436-.3a.445.445,0,0,1-.016.22c-.051.2-.418.266-.42.076Zm78.348-.6c.05-.123.329-.107.331.019,0,.059-.079.1-.182.086s-.169-.058-.149-.1Zm-19.806-.054c.128-.183.131-.179.038.052-.055.137-.116.225-.137.2s.027-.145.1-.248Zm-20.026.184c.023-.085.042-.058.048.068s-.011.179-.038.142a.319.319,0,0,1-.01-.21Zm-5.089-.006c.021-.034.067.031.1.136.045.157.037.17-.04.063-.052-.073-.079-.165-.057-.2Zm-6.442.207c-.028-.066-.006-.1.053-.085s.092-.064.074-.221c-.026-.229.044-.3.235-.258a.411.411,0,0,0,.207-.1c.1-.08.15-.08.151,0a.106.106,0,0,1-.1.116c-.057,0-.192.149-.3.328-.221.369-.247.387-.319.223Zm-18.826.118a.1.1,0,0,1,.083-.111c.044,0,.062.053.038.11s-.062.111-.083.111-.037-.047-.038-.11Zm-10.295-.027c-.049-.2.109-.169.165.03.03.1.012.162-.042.137a.265.265,0,0,1-.123-.167Zm79.337-.53c-.057-.231.022-.526.142-.527.088,0,.1.038.031.152a.529.529,0,0,0-.036.332c.027.094.014.178-.027.179s-.092-.063-.11-.136Zm-27.523.13c-.1-.137-.1-.216-.028-.49a.477.477,0,0,0-.126-.588c-.216-.261-.216-.261-.069-.478.116-.169.168-.186.24-.08.113.167.127.3.023.214-.039-.033-.106.012-.16.107-.072.127-.069.167.017.176.242.025.276.044.4.226s.125.2.009.368a.892.892,0,0,0-.119.443c.005.315-.022.329-.189.1Zm-.946.015c0-.1.027-.163.068-.164a.533.533,0,0,0,.19-.069c.065-.038.12-.014.121.052a.112.112,0,0,1-.112.121.107.107,0,0,0-.112.111c0,.063-.031.111-.075.111s-.078-.068-.08-.162Zm-24.789.175c0-.047.069-.084.157-.085s.139-.043.115-.1c-.06-.135.293-.1.363.04a.123.123,0,0,1-.055.161c-.168.086-.579.071-.58-.021Zm-2.13-.124c.025-.094.1-.168.161-.169.1,0,.1.031-.014.2-.154.234-.213.222-.147-.031Zm-9.191.166c0-.1.042-.139.116-.1a.22.22,0,0,1,.12.162.107.107,0,0,1-.116.1c-.066,0-.119-.07-.12-.162Zm-2.27-.081c-.048-.054-.027-.066.054-.032a.13.13,0,0,0,.177-.048c.051-.125.189-.043.191.114,0,.061-.047.079-.113.043s-.114,0-.113.08-.027.091-.058.037a1.417,1.417,0,0,0-.138-.194Zm-2.386.062c.027-.063.083-.116.123-.117s.026.074-.027.158c-.1.167-.171.138-.1-.041Zm-3.043,0c0-.126.031-.2.074-.158a.358.358,0,0,1,.08.226c0,.084-.033.158-.074.158s-.079-.1-.08-.226Zm-1.136.033c-.019-.073,0-.126.053-.126a.1.1,0,0,1,.085.105c0,.056.053.076.111.044.17-.1.053-.4-.122-.321-.08.037-.146.02-.147-.038,0-.207.129-.238.344-.081l.207.152-.165.242c-.166.243-.31.252-.366.023Zm-1.7.126c.009-.168.131-.514.138-.389a.744.744,0,0,0,.13.3c.115.16.109.173-.074.174-.11,0-.2-.036-.194-.083ZM160.975,453c0,.074-.028.126-.071.127s-.051-.09-.025-.2c.042-.168.031-.174-.081-.041-.072.085-.131.1-.131.037a.224.224,0,0,1,.114-.179c.074-.04.1-.132.063-.248-.04-.136-.027-.16.05-.094s.092.025.049-.206c-.034-.178-.024-.294.025-.294.128,0,.176.283.089.525a.305.305,0,0,0,.037.357.469.469,0,0,1,.117.246c0,.062-.051.051-.118-.025-.082-.094-.119-.1-.118-.01Zm-1.078-.035c0-.1.012-.169.031-.169s.053.073.079.168.013.168-.031.168-.078-.073-.079-.167Zm-14.627.145c0-.063.03-.11.072-.11s.1.046.123.109a.073.073,0,0,1-.072.111.119.119,0,0,1-.123-.11Zm-1.391-.238c-.1-.262-.068-.345.1-.254a.493.493,0,0,1,.156.326c.046.312-.128.263-.258-.072Zm-3.739-.146c.087-.129.137.073.079.325l-.057.253-.033-.257a.755.755,0,0,1,.011-.321Zm-5.337.384c.053-.1.113-.15.133-.121.055.079-.054.294-.149.295-.049,0-.042-.068.016-.174Zm-6.6-.034c.023-.085.043-.058.049.068s-.012.18-.039.143a.322.322,0,0,1-.01-.211Zm-5.9.02c.024-.1.079-.179.116-.179s.029.094-.02.21c-.106.251-.163.232-.1-.031Zm-3.431.242a.628.628,0,0,1,.133-.2c.122-.14.125-.137.032.037-.1.19-.164.25-.165.159Zm-6.509-.03a.073.073,0,0,1,.072-.11.118.118,0,0,1,.123.109c0,.063-.03.111-.072.111s-.094-.047-.123-.11Zm47.815-.7c.123-.131.123-.143,0-.142s-.176-.168-.069-.267c.057-.053.249.066.276.171a.611.611,0,0,1-.087.232.4.4,0,0,0-.04.321c.042.1.019.094-.077-.016-.134-.152-.134-.16,0-.3Zm-2.969.359c0-.168.244-.39.362-.327s.111.09-.055.226c-.2.165-.306.2-.307.1Zm-1.081-.151c.064-.179.056-.221-.039-.22-.172,0-.141-.173.035-.194q.153-.018.156.2c0,.115.047.217.1.22s.029.046-.058.1c-.24.153-.277.132-.193-.105Zm-6.666.1c-.073-.256.1-.618.3-.6.158.012.157.016-.018.067-.146.042-.162.075-.075.152s.1.113,0,.211-.09.11-.013.11c.058,0,.083.045.057.105-.068.158-.193.138-.243-.041Zm-2.494-.069c-.006-.232.059-.244.244-.047s.18.269-.047.251a.192.192,0,0,1-.2-.2Zm-1.08.143c0-.262.1-.444.251-.434.132.009.139.023.033.065a.29.29,0,0,0-.132.263c0,.116-.031.211-.074.211s-.077-.045-.078-.105Zm-28.484.23a.207.207,0,0,1,.075-.117c.041-.037.077-.016.078.047s-.034.116-.076.116-.077-.019-.077-.046Zm56.536-.661c-.011-.158-.007-.161.026-.016s.062.145.147.041c.108-.131.156.012.054.162-.082.121-.213.012-.227-.187Zm-11.692.175c-.092-.133-.08-.165.081-.209.2-.055.2-.055.143.187-.056.221-.084.224-.224.022Zm-13.858.131a.082.082,0,1,1,.154,0c-.026.063-.059.111-.075.111s-.051-.047-.079-.11Zm-1.921.011c-.027-.06-.012-.11.032-.11s.081.05.082.11-.013.11-.032.11-.054-.047-.082-.11Zm-28.1-.014a.75.75,0,0,1-.01-.347c.025-.037.043-.011.044.063s.049.1.115.062.114,0,.116.147c.006.441-.185.495-.265.075Zm-6.621.139a2.976,2.976,0,0,0,.068-.468c.024-.41.031-.441.106-.442.125,0,.162.49.045.585a.441.441,0,0,0-.106.3c0,.115-.036.215-.082.216s-.063-.079-.031-.195Zm-1.807.1c0-.06.035-.11.079-.11s.06.049.035.11-.06.11-.079.111-.034-.048-.035-.111Zm84.45-.555c0-.024.051-.07.116-.106s.117-.018.118.041a.109.109,0,0,1-.116.106c-.066,0-.117-.018-.118-.041Zm-30.8.054c0-.1.033-.143.075-.106a.258.258,0,0,1,.08.173c0,.06-.032.105-.076.106s-.078-.079-.079-.173Zm-4.744.042c-.2.13-.289.131-.354,0-.037-.074-.087-.057-.14.048-.074.148-.079.148-.051,0a.4.4,0,0,1,.293-.233c.146-.039.221-.076.168-.084-.1-.015-.143-.352-.041-.347.127.007.4.433.406.622,0,.158-.014.168-.067.047a.13.13,0,0,0-.214-.058Zm-3.107-.1c.053-.1.114-.148.135-.117a.34.34,0,0,1-.056.232c-.051.1-.112.148-.134.116s0-.136.055-.231Zm-.69-.085a.7.7,0,0,0,.1-.458c-.038-.2-.032-.194.05.026.094.252.222.331.22.135,0-.145.211-.138.279.009.03.066.008.105-.051.092-.191-.044-.547.235-.5.395.028.1-.007.128-.1.09-.138-.055-.138-.068,0-.289Zm-16.451.225c.022-.086.041-.058.045.068s-.015.184-.039.147a.316.316,0,0,1-.006-.215Zm-23.01.259c-.038-.086-.072-.078-.117.027-.037.085-.065.1-.066.043,0-.221.117-.377.259-.339.089.024.183.045.221.05.083.01-.091.339-.179.339-.034,0-.091-.057-.118-.12Zm72.677-.532c-.026-.06-.012-.11.032-.111s.081.05.082.11-.013.111-.032.111-.054-.047-.082-.11Zm-.658-.243c0-.05.021-.079.056-.073.155.03.205-.033.1-.126s-.1-.123-.024-.2a.513.513,0,0,1,.608.107c.03.067-.016.077-.126.027s-.156-.038-.118.048c.06.133-.078.382-.26.471-.11.053-.232-.079-.237-.258Zm-24.792.07c0-.116.035-.1.155.047a.724.724,0,0,1,.158.293c0,.054-.066.034-.155-.046a.474.474,0,0,1-.158-.294Zm-1.353.277c.024-.1.011-.169-.028-.168s-.051-.074-.028-.168c.058-.235.174-.2.177.051s.085.286.207.111c.057-.082.1-.085.138-.008.042.094-.106.2-.478.339-.017.006-.011-.063.012-.157Zm-3.331-.156c.145-.132.183-.025.067.186-.07.126-.109.139-.134.043a.25.25,0,0,1,.067-.229Zm-5,.022c.018-.08.054-.027.082.12.037.189.029.229-.031.142a.412.412,0,0,1-.051-.262Zm-5.712.281a.577.577,0,0,1,.183-.269c.167-.157.2-.158.283-.012s.079.153-.014.105c-.063-.033-.175.014-.262.108-.181.2-.188.2-.19.068Zm-4.692.023c0-.06.035-.11.079-.111s.059.05.034.11-.06.111-.079.111-.034-.047-.034-.11Zm-11.535-.059a.3.3,0,0,0,.087-.3c-.036-.157-.028-.161.044-.021.124.241.1.419-.049.469-.19.062-.237-.023-.082-.15Zm-.657-.319c-.155,0-.157-.015-.031-.121.072-.061.147-.1.157-.075.237.493.275.629.188.67-.054.025-.106-.066-.12-.213-.018-.178-.077-.258-.194-.261Zm-13.017.251c.046-.179.257-.317.259-.169,0,.051.064.118.137.146.1.039.093.055-.039.063a.173.173,0,0,0-.173.19c0,.148-.018.156-.11.048a.364.364,0,0,1-.074-.278Zm71.089-.438c0-.084.045-.158.1-.158.139,0,.2.108.156.283s-.253.085-.256-.125Zm-2.9.08a.113.113,0,0,1-.111-.109.111.111,0,0,1,.116-.111c.066,0,.117.02.118.046a1.555,1.555,0,0,0,.028.194c.016.085.013.112-.007.064a.166.166,0,0,0-.144-.084Zm-1.8.19a.539.539,0,0,1,.115-.179c.1-.113.116-.106.118.041,0,.1-.053.179-.115.179s-.118-.017-.118-.041Zm-17.821.039c-.027-.06-.013-.11.031-.111s.081.05.082.11-.012.111-.031.111-.054-.047-.082-.11Zm-.267.065a.208.208,0,0,1,.075-.116c.042-.038.077-.017.078.046s-.034.116-.076.116-.077-.019-.077-.046Zm-8.053-.314c.025-.558.029-.567.119-.264.084.283.042.673-.072.673-.036,0-.057-.189-.047-.409Zm-7.233.253c.021-.034.084,0,.137.073.079.11.071.122-.04.063-.074-.039-.118-.1-.1-.136Zm-1.844-.02c.025-.063.072-.081.116-.043a.144.144,0,0,1,.032.168c-.025.063-.072.08-.117.043a.146.146,0,0,1-.031-.168Zm-13.975.1a.109.109,0,0,1,.116-.106c.117,0,.153.129.069.251-.06.088-.183-.009-.185-.145Zm-.461.118c0-.053.069-.121.156-.154.131-.049.142-.033.068.1-.1.179-.221.208-.224.054Zm-5.037-.028c-.09-.092-.125-.166-.083-.173s.135-.028.208-.048.136.036.138.172c0,.245-.063.257-.263.049Zm-.654-.043c-.082-.115-.131-.235-.11-.267s.089.008.156.1.144.13.184.093.07-.016.071.047a.21.21,0,0,0,.137.162c.085.032.056.056-.076.063a.478.478,0,0,1-.362-.2Zm-.468.034c0-.19.162-.158.211.041.018.075-.022.137-.088.137s-.122-.083-.123-.178Zm-5.777.1c0-.063.031-.11.075-.11s.078.046.079.11-.032.11-.076.11-.077-.047-.078-.11Zm-3.236-.164c0-.179.031-.234.115-.19a.267.267,0,0,1,.12.22c0,.189.092.2.213.02.05-.074.094-.094.1-.043s.051.033.109-.037c.09-.11.1-.1.071.084s-.1.214-.379.207c-.3-.008-.341-.038-.344-.261Zm-7.77.178c-.079-.132-.076-.162.02-.163.066,0,.137.071.163.162s.019.163-.02.163-.107-.068-.163-.162Zm71.447-.688c0-.1.022-.131.043-.058a.1.1,0,0,0,.148.073c.058-.031.11,0,.111.057,0,.126-.161.235-.247.165a.371.371,0,0,1-.055-.237Zm-5.762.13c-.056-.126-.087-.22-.072-.221a1,1,0,0,1,.168.22c.081.126.112.22.072.221s-.111-.1-.168-.22Zm-.74.046c-.026-.091,0-.157.068-.158s.185-.106.272-.233.178-.2.2-.169-.031.159-.125.279-.151.259-.128.311-.02.1-.1.111a.188.188,0,0,1-.189-.141Zm-7.078.074a.1.1,0,0,1,.146-.037.1.1,0,0,0,.15-.049.156.156,0,0,1,.13-.1c.049,0,.03.061-.042.138-.152.163-.446.2-.384.053Zm-4.088,0a.185.185,0,0,1-.178-.12c-.019-.075.058-.1.205-.075s.236.11.237.23-.023.137-.057.074a.254.254,0,0,0-.207-.109Zm-7.969.109c-.085-.073-.038-.1.16-.083.154.011.263.057.244.1-.046.112-.263.1-.4-.021Zm-14.833-.1c.036-.147.068-.16.143-.058s.076.15-.011.23c-.144.132-.191.07-.132-.172Zm-.73.089a.332.332,0,0,0-.016-.326c-.068-.094-.061-.126.027-.126.14,0,.181.45.052.568s-.148.115-.063-.116Zm-8.384.15c0-.063.032-.111.076-.111s.077.047.078.11-.031.111-.075.111-.078-.047-.079-.11Zm-1.592-.048c.028-.113,0-.168-.09-.168-.11,0-.113-.018-.016-.11a.345.345,0,0,1,.23-.1c.073.006.08.028.019.063s-.072.11-.011.268.055.215-.045.216c-.081,0-.113-.062-.087-.168Zm-3.864,0a.787.787,0,0,0-.041-.331c-.033-.074-.025-.137.016-.137s.058-.069.035-.152a.21.21,0,0,1,.081-.222c.211-.118.276.04.118.289-.094.147-.121.27-.074.336.086.123.029.41-.081.411-.04,0-.064-.089-.054-.194Zm-7.243.112c.116-.117.116-.117-.293-.52-.075-.074-.1-.108-.045-.072a.282.282,0,0,0,.253-.007c.153-.073.153-.078.015-.226s-.138-.152,0-.152c.081,0,.161.093.186.219s.093.22.161.22c.089,0,.1-.079.065-.331-.03-.19-.021-.332.021-.332s.075.115.077.252a.791.791,0,0,0,.093.376c.123.17.012.387-.165.322-.093-.035-.175.024-.225.161-.041.115-.12.213-.169.211s-.049-.049.024-.121Zm47.844-.388c-.027-.06-.013-.111.031-.111s.082.05.082.11-.012.111-.031.111-.054-.047-.082-.11Zm-5.276-.021c-.057-.094-.076-.162-.046-.163s.1.071.17.162.088.163.047.163-.115-.068-.171-.162Zm-3.848.139a.214.214,0,0,1,.075-.116c.042-.038.077-.016.078.047s-.033.115-.075.116-.078-.02-.078-.047Zm-29.537-.069c.077-.113.145.051.084.2-.044.1-.065.1-.092,0a.306.306,0,0,1,.008-.2Zm59.372-.321a.237.237,0,0,0-.1-.236c-.134-.079-.133-.087.012-.168.087-.049.174-.04.2.02.063.136,0,.536-.083.536-.037,0-.049-.068-.028-.152Zm-25.707.086a.384.384,0,0,1,.018-.278c.033-.032.08.067.1.215.048.325-.057.381-.12.063Zm-40.549.255c0-.129-.53-.05-.652.1-.065.078-.116.107-.117.065,0-.12.208-.39.3-.39.11,0,.321-.294.3-.412-.034-.167.221-.149.268.019.027.1.013.168-.033.169s-.007.142.085.32c.163.314.163.318.007.263-.088-.032-.158-.09-.158-.131Zm71.261-.587c-.029.046-.03-.015,0-.131s.067-.159.087-.079a.193.193,0,0,0,.181.135c.147,0,.194.12.1.254-.029.041-.106,0-.181-.1s-.153-.131-.184-.083Zm-7.933.069c.048-.114.186-.022.188.125,0,.055-.046.068-.113.032a.13.13,0,0,1-.075-.157Zm-49.853.426a.269.269,0,0,1,.078-.176c.111-.1.088-.576-.03-.636a.1.1,0,0,1-.042-.134c.028-.045.106-.023.165.047a1.279,1.279,0,0,1,.018.867c-.032.157-.187.184-.189.032Zm-1.367.045a.114.114,0,0,1,.15-.011c.061.033.042.062-.046.069s-.129-.021-.1-.058Zm-10.956-.359c0-.31.187-.127.219.209.027.283.018.3-.093.142a.756.756,0,0,1-.126-.351Zm-.229.385c0-.058.038-.111.082-.111s.063.052.039.11-.062.111-.083.111-.038-.047-.038-.11Zm-4.078-.034c.052-.094.11-.146.131-.118.056.077-.048.286-.143.287-.051,0-.046-.063.012-.169Zm37.455-.272a.082.082,0,1,1,.154,0c-.026.063-.058.11-.075.111s-.051-.047-.079-.11Zm-11.783-.024c.021-.031.084.005.136.078.079.11.072.121-.039.058-.074-.042-.119-.1-.1-.136Zm-12.513.049c0-.06.032-.1.075-.1s.079.078.08.172-.033.143-.076.106a.261.261,0,0,1-.079-.173Zm-5.954-.022c.043-.263.032-.278-.116-.162-.087.068-.164.1-.164.069l0-.142c0-.047.068-.091.156-.1s.2.094.275.3c.113.3.111.319-.039.32-.132,0-.15-.046-.11-.288Zm22.011-.064a.159.159,0,0,1,.031-.174c.043-.038.077.005.078.1,0,.2-.041.229-.109.074Zm-19.625.128c-.027-.059.026-.077.122-.042.132.048.157.022.115-.122-.03-.105-.019-.184.027-.184s.06-.046.036-.1.061-.09.185-.08.232.058.233.1c0,.294-.006.343-.043.221-.048-.156-.273-.062-.358.149-.068.169-.251.2-.317.054Zm-4.593.013c0-.064.015-.111.036-.111s.057.047.085.11.009.11-.035.11-.085-.052-.086-.109Zm67.518-.654c0-.189.009-.194.113-.043a.814.814,0,0,1,.117.21c0,.024-.047.042-.113.042s-.115-.093-.117-.209Zm-28.623.109c-.016-.136,0-.242.046-.242s.069.089.065.194c-.006.13.039.182.134.157s.122.011.09.089c-.085.2-.3.075-.335-.2Zm-1.5.051c.036-.311.166-.263.17.062,0,.116-.043.211-.1.211s-.091-.094-.07-.273Zm-.982.027c0-.057.054-.074.121-.037a.611.611,0,0,0,.158.067c.023,0,.02.042-.007.105-.055.13-.269.023-.272-.135Zm-17.426-.005c.03-.071.07-.059.113.036.109.241.087.362-.04.214a.279.279,0,0,1-.073-.25Zm-10.659.29c-.146-.208-.109-.343.075-.275a.274.274,0,0,0,.295-.1c.117-.152.124-.143.1.109-.027.236-.092.313-.326.388-.024.008-.088-.049-.139-.122Zm-.511.029c.026-.063.079-.111.123-.111s.057.047.031.11a.167.167,0,0,1-.123.112c-.044,0-.058-.048-.031-.111Zm-.276-.392c.138-.241.17-.127.068.241-.07.253-.094.276-.123.116a.657.657,0,0,1,.055-.357Zm-1.7.273a.218.218,0,0,1,.115-.169.312.312,0,0,0,.118-.243c0-.136.017-.126.067.042.085.283-.028.62-.18.538a.224.224,0,0,1-.12-.168Zm27.87-.152c0-.063.031-.111.075-.111s.078.047.079.11-.032.11-.076.111-.077-.047-.078-.11Zm-9.8-.052c-.025-.126-.031-.22-.014-.22a.6.6,0,0,1,.117.22c.049.125.055.22.014.22s-.092-.094-.117-.22Zm-10.533.032c.074-.108.083-.1.045.063-.026.105-.07.17-.094.137s0-.126.049-.2Zm-6.61.014c.052-.1.113-.15.134-.122.044.062-.156.4-.2.336-.016-.022.014-.119.067-.214Zm-4.159.193c0-.058.039-.111.083-.111s.062.053.038.11-.062.111-.083.111-.037-.047-.038-.11Zm-.969-.052a.2.2,0,0,0-.091-.24.976.976,0,0,1-.41-.5c0-.054.051-.022.118.072a.36.36,0,0,0,.428.183c.1-.014.118.056.1.319-.016.189-.062.337-.1.337s-.059-.073-.036-.168Zm-.4-.144c.117-.06.171.05.1.209-.039.09-.073.084-.119-.02-.036-.084-.03-.165.016-.189Zm66.893-.246c0-.115.145-.165.191-.064a.075.075,0,0,1-.07.116c-.066,0-.121-.023-.121-.052Zm-30.027.149a.726.726,0,0,1,.064-.231c.085-.2.249-.075.193.146-.043.168-.257.24-.257.085Zm-2.7.053c0-.026.05-.075.116-.111s.117-.015.118.047a.112.112,0,0,1-.116.111c-.066,0-.118-.02-.118-.047Zm-20.706.12a.218.218,0,0,1,.075-.122c.04-.035.077-.01.078.053s-.035.121-.075.121-.078-.022-.078-.052Zm-2.27-.055c-.041.1-.08.1-.169-.009s-.09-.156.063-.242c.1-.058.138-.121.086-.148a.185.185,0,0,1-.054-.21c.03-.132.06-.127.154.031.109.181.113.178.061-.064-.038-.178-.025-.244.042-.213.113.051.148.617.052.849-.048.115-.074.118-.122.011s-.072-.106-.113-.005Zm-1.66.089c0-.023.035-.2.079-.384.052-.221.118-.322.187-.285a.213.213,0,0,1,.062.231c-.033.126-.018.149.056.084s.082-.043.048.041a.231.231,0,0,1-.207.133c-.088,0-.133.048-.1.111s.009.11-.035.111-.085-.02-.085-.042Zm-.434-.344c.024-.1.086-.145.131-.106s.056.1-.009.158a.223.223,0,0,0-.03.236c.049.116.04.121-.036.022a.427.427,0,0,1-.056-.31Zm-1.26.034c0-.043.12-.08.266-.081s.272.044.273.1-.061.074-.142.042-.164.02-.2.144c-.045.168-.064.174-.125.037a.965.965,0,0,1-.076-.241Zm-1.953.206a.262.262,0,0,1,.028-.226c.039-.038.073.036.075.162,0,.263-.04.289-.1.064Zm-3.357.02c0-.091.046-.131.113-.1a.128.128,0,0,1,.074.157c-.065.156-.184.117-.187-.062Zm10.161-.177a.3.3,0,0,0,.041-.247c-.03-.045-.079-.015-.113.069-.043.105-.077.112-.117.022-.08-.178.168-.276.3-.12a.215.215,0,0,1,.033.291c-.048.085-.121.153-.163.153s-.036-.073.016-.168Zm50.655-.473c0-.06.031-.105.075-.105s.078.078.08.173-.033.142-.076.105a.261.261,0,0,1-.079-.173Zm-12.624.255c0-.023.055-.071.12-.106s.1-.016.075.042c-.045.1-.193.154-.2.064Zm-15.889-.262a.249.249,0,0,0-.161-.253c-.2-.107-.287-.333-.13-.334.044,0,.074.038.075.094a.112.112,0,0,0,.122.094c.074,0,.1-.065.075-.163-.037-.132-.024-.137.073-.024a1.074,1.074,0,0,1,.081.827c-.035.137-.06.147-.109.043a.468.468,0,0,1-.026-.284ZM140,451.29c-.092-.168-.088-.172.031-.037a.639.639,0,0,1,.134.194c0,.091-.061.032-.165-.157Zm-.914.079c0-.063.034-.085.077-.048s.077.015.076-.048-.033-.115-.071-.115-.051-.1-.029-.231a.37.37,0,0,0-.067-.325.145.145,0,0,1-.05-.176c.08-.114.219.112.236.385.008.137.04.241.073.241.079,0,.041.259-.053.359-.109.115-.19.1-.192-.042Zm-7.928-.11c0-.084.034-.158.075-.158s.078.1.08.225-.031.2-.075.159a.366.366,0,0,1-.08-.226Zm57.741-.29c0-.06.035-.11.079-.111s.06.05.035.111-.061.11-.079.11-.034-.047-.035-.11Zm-25.049-.064c.041-.337-.039-.427-.186-.21-.058.085-.094.085-.131,0-.061-.136.214-.368.3-.256.033.041.039.023.013-.04-.081-.2.041-.389.174-.27.081.073.084.1.012.106-.051,0-.075.059-.05.116a.086.086,0,0,0,.14.036c.067-.055.067-.037,0,.068a.4.4,0,0,0-.048.29c.062.22-.02.483-.15.484-.088,0-.107-.083-.078-.325Zm-3.958.139c.049-.1.1-.192.1-.206s.064.063.13.168c.114.178.106.195-.1.2s-.21-.014-.131-.167Zm-4.023.192a.55.55,0,0,1,.115-.179c.1-.113.116-.106.118.041,0,.1-.053.179-.115.18s-.118-.018-.118-.042Zm-15.374-.065c.073-.023.114-.088.09-.142s-.009-.1.035-.1c.115,0,.107.3-.009.361a.177.177,0,0,1-.173-.013c-.042-.034-.016-.083.057-.106Zm-8.524.136a.17.17,0,0,1,.136-.106c.057,0,.048.04-.024.108-.145.136-.171.135-.112,0Zm27.4-.281a.367.367,0,0,1,.063-.3c.065-.1.119-.119.12-.053a1.493,1.493,0,0,0,.052.3c.056.2-.15.247-.235.054Zm-.761.036c-.023-.052.023-.175.1-.274.161-.2.263-.106.189.178-.048.189-.223.247-.291.1Zm-15.454-.006c-.005-.106-.02-.311-.032-.447-.033-.362.084-.148.153.283.037.231.028.357-.027.357s-.089-.089-.094-.193Zm-5.381.1c0-.063.034-.085.077-.048s.076-.005.075-.1.048-.168.112-.169c.1,0,.1.031-.015.221-.141.243-.246.284-.249.1Zm-8.994.033c-.086-.146-.05-.63.048-.631.118,0,.153.147.082.347-.052.147-.051.21.006.21a.1.1,0,0,1,.082.1c0,.155-.119.138-.218-.03Zm-.807-.005c-.029-.113,0-.142.114-.1s.13.08.053.153c-.123.116-.123.116-.167-.052Zm34.664-.214a.208.208,0,0,1,.075-.116c.042-.038.077-.017.078.046s-.034.116-.076.116-.077-.019-.077-.046Zm-5.5-.514c-.119-.152-.131-.2-.042-.152.07.035.205-.017.306-.117.152-.152.166-.153.088-.012a.238.238,0,0,0,0,.3c.071.1.071.131,0,.131-.172,0-.093.221.083.231s.166.014-.017.09c-.138.057-.2.032-.221-.088a1.114,1.114,0,0,0-.2-.383Zm-4.7.423c.013-.106.024-.211.026-.237s.04,0,.092.073a.259.259,0,0,1,.042.236c-.081.2-.186.149-.16-.072Zm-4.2.114c0-.063.013-.11.032-.11s.054.047.082.11.012.11-.032.11-.081-.05-.082-.11Zm-.615-.043c-.056-.1-.121-.147-.15-.12s-.1,0-.166-.057c-.092-.084-.085-.105.032-.106s.131-.025.045-.163c-.058-.094-.073-.161-.035-.161.088,0,.321.206.238.209-.137,0,.129.334.268.333a.136.136,0,0,1,.149.115c0,.174-.27.138-.381-.05Zm-1.929.059c0-.058.039-.111.083-.111s.062.052.038.11-.062.111-.083.111-.037-.047-.038-.11Zm-.871-.042c-.027-.1-.036-.168-.019-.168a.619.619,0,0,0,.145-.07c.09-.053.108-.016.078.163-.046.273-.137.307-.2.075Zm-2.437-.007c0-.024.047-.042.113-.043a.108.108,0,0,1,.115.105c0,.061-.046.079-.113.043s-.115-.08-.115-.105Zm-2.211-.05c.022-.086.042-.058.048.068s-.012.184-.038.148a.3.3,0,0,1-.01-.216Zm-17.732.186c0-.1.03-.163.075-.163s.059.068.035.162-.055.164-.075.164-.034-.068-.035-.163Zm54.044-.378c0-.063.032-.11.076-.111s.077.047.078.11-.031.111-.075.111-.078-.047-.079-.11Zm-13.59.092a.134.134,0,0,0-.075-.162.309.309,0,0,1-.117-.252c0-.164.018-.157.156.052.167.251.2.461.078.462-.044,0-.063-.045-.042-.1Zm-.747-.169c.029-.242.243-.508.246-.306a1.928,1.928,0,0,1-.256.58.893.893,0,0,1,.01-.274Zm-2.411.068c0-.211.118-.3.218-.159.046.064-.09.364-.171.374-.025,0-.045-.089-.047-.215Zm-3.958.139a.46.46,0,0,1,.111-.232c.094-.115.112-.111.114.026a.485.485,0,0,1-.048.236c-.071.1-.175.086-.177-.03Zm-.812-.006c-.062-.14.041-.141.2,0,.106.094.1.106-.013.112a.2.2,0,0,1-.183-.11Zm-8.988.018a1.113,1.113,0,0,0,.016-.232c0-.1.042-.139.116-.1.167.089.153.461-.017.426-.073-.015-.124-.057-.115-.1Zm-2.11.1a.117.117,0,0,1,.146-.012c.06.034.042.062-.046.069s-.126-.02-.1-.057Zm-17.27.119c0-.023.054-.071.119-.106s.1-.016.075.042c-.045.105-.193.154-.194.064Zm39.5-.411c0-.062.068-.111.156-.111s.137.048.112.109a.2.2,0,0,1-.157.112.115.115,0,0,1-.111-.11Zm-1.061-.209c-.009-.126.016-.221.058-.221s.074.052.075.115.033.087.07.052.053.031.034.147c-.044.269-.216.2-.237-.093Zm-15.834.243c-.088-.315-.048-.433.071-.211a.959.959,0,0,1,.115.3c0,.154-.136.085-.186-.093Zm-.929.071c-.128-.079-.112-.1.094-.1.139,0,.25.044.25.108,0,.13-.13.128-.344-.005Zm-8.586.059a.252.252,0,0,1,.075-.174c.041-.037.077.01.078.105s-.033.174-.075.174-.077-.045-.078-.1Zm-15.624.152a.211.211,0,0,1,.076-.116c.041-.038.076-.016.077.047s-.033.116-.075.116-.078-.02-.078-.047Zm57.811-.532c0-.118.158-.25.326-.27.125-.015.127,0,.021.173-.118.19-.345.254-.347.1Zm-6.2-.015c.116-.088.24-.133.277-.1.142.125.061.215-.21.237l-.278.022.211-.159Zm-13.8-.075a.537.537,0,0,1,.084-.326c.074-.089.1-.027.11.267.008.263-.018.366-.084.327a.386.386,0,0,1-.11-.268Zm-1.789.295a.215.215,0,0,1,.076-.122c.039-.035.077-.01.077.053s-.035.121-.075.121-.077-.022-.078-.052Zm-3.7-.1c0-.1.032-.138.076-.1a.157.157,0,0,1,.034.173c-.061.147-.107.116-.11-.073Zm-2.052.043c-.028-.039.043-.073.153-.074s.206.043.206.094c0,.108-.277.093-.359-.02Zm31.479-.541c0-.294.035-.384.145-.384s.133.051.1.241c-.045.231-.169.526-.22.527a1.717,1.717,0,0,1-.02-.384Zm-2.82.238c-.027-.1-.015-.163.027-.163s.074.068.076.162-.01.163-.027.163-.049-.068-.076-.162Zm-1.511-.285c.087-.242.091-.243.2-.038.151.283.134.4-.046.329-.1-.043-.157-.018-.161.077s-.015.108-.044.01a.791.791,0,0,1,.05-.378Zm-8.239.459a.217.217,0,0,1,.075-.116c.042-.037.077-.016.078.047s-.033.116-.075.116-.078-.02-.078-.047Zm-3.964-.039c.026-.063.079-.111.123-.111s.057.047.031.11-.079.111-.123.111-.057-.047-.031-.11Zm-8.121,0c0-.094.03-.163.075-.163s.078.068.079.162-.03.164-.075.164-.078-.068-.079-.163Zm-12.651.129c-.055,0-.048-.044.017-.1a.186.186,0,0,1,.317.127c0,.058-.054.077-.12.043a.677.677,0,0,0-.214-.067Zm31.857-.3c-.027-.06-.013-.11.031-.11s.082.049.082.11-.012.11-.031.11-.054-.047-.082-.11Zm-4.2,0c0-.05.05-.089.116-.09s.118.039.119.089-.051.09-.117.09-.117-.038-.118-.089Zm-4.077.046c0-.063.013-.11.032-.11s.054.046.082.109.013.111-.031.111-.082-.05-.083-.11Zm-17.244.162c0-.116.146-.165.191-.065.028.063,0,.116-.069.116s-.121-.023-.122-.051Zm-4.579-.031c-.029-.063,0-.11.064-.11a.186.186,0,0,1,.163.109c.028.064,0,.11-.065.111a.186.186,0,0,1-.162-.11Zm-15.9.1c0-.063.013-.11.032-.11s.054.047.082.109.012.111-.032.111-.081-.05-.082-.11Zm59.882-.839c.036-.053.139-.04.235.03.133.1.152.159.084.279s-.108.125-.235-.031c-.089-.109-.123-.221-.084-.278Zm-1.379-.012c.042-.169.1-.277.125-.243a.423.423,0,0,1-.009.263,3.814,3.814,0,0,0-.107.442c-.008.044-.033.027-.051-.036a1.171,1.171,0,0,1,.042-.426Zm-1.8.384a.2.2,0,0,0-.055-.216.143.143,0,0,1-.046-.178c.08-.118.314.251.253.4-.026.063-.083.116-.125.116s-.053-.057-.027-.12Zm-.838-.4c.017-.074.065-.137.1-.137s.054.047.027.11.005.083.078.043c.109-.06.126.108.05.477,0,.016-.074-.061-.148-.163a.528.528,0,0,1-.111-.33Zm-2.788.406c-.033.045-.037.021-.009-.053.056-.146.275-.065.277.1,0,.074-.036.07-.1-.01s-.13-.089-.165-.041Zm-.706-.1c.023-.087.041-.058.045.068s-.014.184-.038.147a.315.315,0,0,1-.007-.215Zm-2.414.146c0-.063.014-.111.035-.111s.058.047.086.11.009.11-.035.111-.085-.053-.086-.11Zm-5.234.094a.214.214,0,0,1,.075-.116c.042-.037.077-.016.078.047s-.034.116-.075.116-.078-.02-.078-.047Zm-19.321.054c0-.063.032-.111.076-.111s.077.047.078.11-.031.11-.075.111-.078-.047-.079-.11Zm-7.966.048c-.027-.061-.013-.111.031-.111s.082.05.082.11-.012.11-.031.111-.054-.048-.082-.11Zm35.988-.322c0-.063.031-.111.075-.111s.078.047.079.11-.032.11-.076.111-.077-.047-.078-.11Zm-29.443.109c-.084-.3-.058-.417.066-.275a.264.264,0,0,1,.08.227.128.128,0,0,0,.061.146c.062.036.052.062-.029.069s-.149-.065-.178-.167Zm-18.216.178c0-.063.032-.111.076-.111s.078.047.078.11-.031.11-.075.111-.078-.047-.079-.11Zm51.606-.385a.12.12,0,0,1,.147-.011c.059.034.041.062-.047.069s-.126-.02-.1-.058Zm-30.74.149c0-.061.047-.079.113-.043s.115.08.115.105-.047.042-.113.042a.106.106,0,0,1-.115-.1Zm-12.567.107a.294.294,0,0,0,.092-.232c0-.126.024-.142.088-.053.11.155.027.359-.142.347-.081-.005-.1-.03-.038-.062Zm-1.6-.027c0-.063.013-.111.032-.111s.054.047.082.11.013.11-.031.111-.082-.05-.083-.11Zm45.474-.5c-.024-.126-.013-.194.028-.158a.363.363,0,0,1,.072.22c0,.233-.049.2-.1-.062Zm-21.1.253a.155.155,0,0,1,.029-.173c.043-.039.077,0,.079.1,0,.189-.043.22-.108.074Zm-8.324-.065a.129.129,0,0,0-.058-.152c-.054-.031-.019-.062.076-.066.184-.009.235.158.077.249-.138.08-.143.079-.1-.031Zm-7.2-.2c0-.06.032-.076.076-.037s.077,0,.076-.074c0-.105.022-.109.088-.016a.266.266,0,0,1,.04.241c-.057.134-.278.044-.28-.114Zm-6.115.048c.026-.064.072-.081.117-.043a.147.147,0,0,1,.032.168c-.026.063-.073.08-.117.043a.146.146,0,0,1-.032-.168Zm32.71-.607c.05-.074.274.2.276.334,0,.067-.065.031-.155-.083s-.141-.221-.121-.251Zm-16.022.27c.023-.086.041-.058.045.068s-.013.179-.038.142a.343.343,0,0,1-.007-.21Zm22.529-.047c0-.023.054-.073.12-.111s.1-.021.076.037c-.045.105-.194.162-.2.074Zm-4.469-.267c0-.063.036-.085.08-.048s.129.013.194-.064c.092-.11.112-.1.114.083a.69.69,0,0,1-.047.29c-.065.1-.339-.114-.341-.261Zm-17.553.111a.116.116,0,0,1,.12-.111.074.074,0,0,1,.075.11c-.027.063-.078.111-.12.111s-.074-.047-.075-.11Z" fill="#71887f"/>
      <path id="Path_762" data-name="Path 762" d="M142.188,461.83c-.025-.057-.071-.068-.114-.029-.1.09-.086.124.046.124.058,0,.09-.045.068-.1Z" fill="#71887f"/>
      <path id="Path_763" data-name="Path 763" d="M183.762,461.154c-.028-.063-.063-.11-.082-.11s-.032.047-.031.11.038.11.082.11.058-.05.031-.11Z" fill="#71887f"/>
      <path id="Path_764" data-name="Path 764" d="M175.488,461.2c0-.06-.038-.11-.082-.109s-.058.05-.032.11.064.11.083.11.032-.048.031-.111Z" fill="#71887f"/>
      <path id="Path_765" data-name="Path 765" d="M191.865,459.838c0-.094-.031-.168-.068-.167s-.084.074-.108.168,0,.168.069.168.109-.074.107-.169Z" fill="#71887f"/>
      <path id="Path_766" data-name="Path 766" d="M83.679,458.724c0-.1-.05-.168-.112-.168a.14.14,0,0,0-.07.268c.17.091.184.084.182-.1Z" fill="#71887f"/>
      <path id="Path_767" data-name="Path 767" d="M83.291,458.784c0-.063-.067-.11-.155-.109s-.154.048-.153.111.068.11.156.109.153-.048.152-.111Z" fill="#71887f"/>
      <path id="Path_768" data-name="Path 768" d="M87.535,457.576c-.022-.084-.048-.147-.061-.147s-.038.063-.06.148,0,.147.061.147.082-.064.06-.148Z" fill="#71887f"/>
      <path id="Path_769" data-name="Path 769" d="M91.651,456.353c-.1-.163-.233-.125-.231.064,0,.056.079.105.167.105.139,0,.149-.027.064-.169Z" fill="#71887f"/>
      <path id="Path_770" data-name="Path 770" d="M195.111,451.815c-.028-.063-.065-.11-.086-.11s-.036.047-.035.11.042.11.086.11.061-.053.035-.11Z" fill="#71887f"/>
      <path id="Path_771" data-name="Path 771" d="M121.849,451.93c0-.063-.035-.11-.079-.11s-.076.048-.075.111.034.11.078.11.076-.048.076-.111Z" fill="#71887f"/>
      <path id="Path_772" data-name="Path 772" d="M117.016,451.6a.3.3,0,0,1-.041-.246c.031-.051,0-.067-.062-.036a.22.22,0,0,0,.042.4c.125.034.136.012.061-.116Z" fill="#71887f"/>
      <path id="Path_773" data-name="Path 773" d="M195.508,450.956a.282.282,0,0,0-.2-.224c-.2-.04-.216.043-.056.267s.291.188.258-.043Z" fill="#71887f"/>
      <path id="Path_774" data-name="Path 774" d="M115.256,451.334c.038-.158.029-.171-.045-.063-.05.074-.073.166-.049.2s.068-.032.094-.137Z" fill="#71887f"/>
      <path id="Path_775" data-name="Path 775" d="M195.641,450.556c.075-.3-.024-.47-.118-.21-.057.158-.059.266-.006.31s.1-.006.124-.1Z" fill="#71887f"/>
      <path id="Path_776" data-name="Path 776" d="M121.1,450.968c.04-.158.031-.169-.045-.058-.05.074-.072.164-.048.2s.067-.032.093-.137Z" fill="#71887f"/>
      <path id="Path_777" data-name="Path 777" d="M121.8,450.932c-.028-.063-.08-.083-.122-.047-.107.094-.085.158.054.157.066,0,.1-.048.068-.11Z" fill="#71887f"/>
      <path id="Path_778" data-name="Path 778" d="M128.1,450.594c-.089-.336-.126-.384-.185-.24a.345.345,0,0,0,.02.283c.121.2.223.178.165-.043Z" fill="#71887f"/>
      <path id="Path_779" data-name="Path 779" d="M124.837,450.588c0-.06-.038-.11-.082-.11s-.059.05-.032.11.063.11.082.11.033-.047.032-.11Z" fill="#71887f"/>
      <path id="Path_780" data-name="Path 780" d="M127.135,450.463c-.036-.146-.143-.175-.153-.041a.159.159,0,0,0,.091.131c.051.025.08-.016.062-.09Z" fill="#71887f"/>
      <path id="Path_781" data-name="Path 781" d="M131.6,450.258c-.006-.126-.025-.153-.048-.068a.318.318,0,0,0,.01.21c.027.038.044-.027.038-.142Z" fill="#71887f"/>
      <path id="Path_782" data-name="Path 782" d="M126.752,450.135c0-.064-.049-.084-.115-.047s-.112.084-.112.111.049.047.115.047a.107.107,0,0,0,.112-.111Z" fill="#71887f"/>
      <path id="Path_783" data-name="Path 783" d="M137.649,449.953c-.028-.062-.065-.11-.086-.109s-.036.047-.035.11.042.11.086.11.061-.053.035-.111Z" fill="#71887f"/>
      <path id="Path_784" data-name="Path 784" d="M195.223,449.528c.075-.11.055-.274-.025-.2-.037.034-.09,0-.11-.076s-.04-.068-.043.048c0,.2.1.339.178.23Z" fill="#71887f"/>
      <path id="Path_785" data-name="Path 785" d="M194.883,449.283c0-.063-.035-.11-.079-.11s-.076.048-.075.111.034.11.078.11.076-.048.076-.111Z" fill="#71887f"/>
      <path id="Path_786" data-name="Path 786" d="M164.3,449.341a.334.334,0,0,0-.262-.182c-.259-.046-.182.122.113.246.133.056.175.038.149-.064Z" fill="#71887f"/>
      <path id="Path_787" data-name="Path 787" d="M140.14,449.492c0-.063-.036-.085-.078-.047a.208.208,0,0,0-.075.116c0,.027.033.047.077.047s.077-.053.076-.116Z" fill="#71887f"/>
      <path id="Path_788" data-name="Path 788" d="M161.459,449.2c-.006-.126-.025-.153-.048-.068a.318.318,0,0,0,.01.21c.026.038.044-.026.038-.142Z" fill="#71887f"/>
      <path id="Path_789" data-name="Path 789" d="M142.448,449.367c0-.062-.038-.087-.078-.052a.213.213,0,0,0-.075.122c0,.03.034.052.078.052s.076-.058.075-.122Z" fill="#71887f"/>
      <path id="Path_790" data-name="Path 790" d="M156.733,449.176c.027-.065-.005-.082-.078-.041-.131.073-.153.153-.041.152.041,0,.093-.047.119-.111Z" fill="#71887f"/>
      <path id="Path_791" data-name="Path 791" d="M153.991,448.92c0-.1-.035-.163-.079-.163s-.076.069-.075.164.034.162.079.162.076-.069.075-.163Z" fill="#71887f"/>
      <path id="Path_792" data-name="Path 792" d="M179.784,448.7c0-.063-.038-.088-.078-.052a.213.213,0,0,0-.075.121c0,.03.034.053.078.053s.076-.059.075-.122Z" fill="#71887f"/>
      <path id="Path_793" data-name="Path 793" d="M174.006,448.736c0-.063-.038-.088-.077-.052a.21.21,0,0,0-.076.121c0,.03.034.053.078.052s.076-.058.075-.121Z" fill="#71887f"/>
      <path id="Path_794" data-name="Path 794" d="M151.915,448.869c0-.063-.038-.088-.078-.052a.208.208,0,0,0-.075.121c0,.03.034.053.078.052s.076-.058.075-.121Z" fill="#71887f"/>
      <path id="Path_795" data-name="Path 795" d="M159.665,452.638c0-.1-.014-.163-.031-.163s-.047.069-.071.164-.011.162.031.162.073-.069.071-.163Z" fill="#71887f"/>
    </g>
    <g id="Group_103" data-name="Group 103" transform="matrix(0.719, 0.695, -0.695, 0.719, -898.816, 7153.896)">
      <path id="Path_180" data-name="Path 180" d="M177.516,360.762a4.207,4.207,0,0,1,.793-.131,16.044,16.044,0,0,0,4.526-1.36.739.739,0,0,0-.251-1.076,4.521,4.521,0,0,0-2.489-.163c-.316.05-1.109.155-1.781.237a24.953,24.953,0,0,0-4.152.932,1.15,1.15,0,0,0-.617,1.05,1.019,1.019,0,0,0,.413.515c.375.266.381.267,1.945.155a15.032,15.032,0,0,0,1.612-.16Z" transform="translate(0 6.208)" fill="#71887f"/>
      <path id="Path_181" data-name="Path 181" d="M198.669,359.175a18.2,18.2,0,0,0,3.909-.693,2.174,2.174,0,0,0,1.088-1.207,1.2,1.2,0,0,0-.638-1.264,2.054,2.054,0,0,0-1.219-.424,21.142,21.142,0,0,0-4,.239,15.817,15.817,0,0,0-3.087.948c-.8.347-1.03.5-1.2.805a1.246,1.246,0,0,0,.188,1.451c.533.612.807.622,4.96.144Z" transform="translate(10.305 4.97)" fill="#71887f"/>
      <path id="Path_182" data-name="Path 182" d="M206.985,356.6a11.059,11.059,0,0,1,1.307-.249,8.408,8.408,0,0,0,2.991-.915.821.821,0,0,0,.237-1.143c-.274-.43-.653-.515-1.6-.36-1.881.308-4.649,1.21-4.98,1.623a.815.815,0,0,0,.226,1.141c.343.2.711.182,1.824-.1Z" transform="translate(16.243 4.084)" fill="#71887f"/>
      <path id="Path_183" data-name="Path 183" d="M215.963,355.457a1.82,1.82,0,0,1,.562-.137c2.865-.407,3.359-.523,4.527-1.058.691-.316.965-.546,1.058-.888s-.15-.687-.655-.91c-.391-.172-.553-.176-1.7-.047a20,20,0,0,0-1.991.322,7.222,7.222,0,0,0-3.143,1.445.971.971,0,0,0,.95,1.362.9.9,0,0,0,.391-.09Z" transform="translate(21.298 3.287)" fill="#71887f"/>
      <path id="Path_184" data-name="Path 184" d="M228.318,353.452a56.055,56.055,0,0,0,7.135-1.31.546.546,0,0,0,.056-.933c-.354-.281-1.16-.3-4.786-.112a15.648,15.648,0,0,0-3.518.377,2.857,2.857,0,0,0-1.748.977.89.89,0,0,0,.97,1.246c.211-.026,1.067-.137,1.891-.245Z" transform="translate(26.929 2.583)" fill="#71887f"/>
      <path id="Path_185" data-name="Path 185" d="M180.891,357.051c.316-.074,1.295-.263,2.179-.419,2.959-.524,5.12-1.381,5.378-2.134a.647.647,0,0,0-.422-.777,29.416,29.416,0,0,0-5.132.6c-.152.039-.465.117-.681.169a12.558,12.558,0,0,0-2.871,1.041c-.538.377-.695.845-.427,1.268.319.5.7.55,1.976.249Z" transform="translate(2.728 4.003)" fill="#71887f"/>
      <path id="Path_186" data-name="Path 186" d="M196.424,354.773c.313-.068,1.409-.214,2.424-.324,3.419-.366,4.843-1.038,4.669-2.2-.191-1.283-2.237-1.617-5.848-.956a7.251,7.251,0,0,0-2.483.854,3.676,3.676,0,0,1-.479.322c-1.214.7-.67,2.345.8,2.415a4.514,4.514,0,0,0,.919-.108Z" transform="translate(10.654 2.576)" fill="#71887f"/>
      <path id="Path_187" data-name="Path 187" d="M221.041,350.564c.88-.178,1.2-.348,1.354-.72a.921.921,0,0,0-.146-1.043c-.167-.22-.412-.328-1.108-.486a11.385,11.385,0,0,0-3.737-.106c-1.606.128-2.267.353-2.7.916-.609.792-.117,1.526,1.143,1.71a28.4,28.4,0,0,0,5.194-.271Z" transform="translate(21.26 1.098)" fill="#71887f"/>
      <path id="Path_188" data-name="Path 188" d="M227.795,350.1c.027-.026.72-.129,1.546-.229s2.144-.277,2.939-.394,1.86-.27,2.365-.34c1.295-.181,1.761-.356,2.134-.8.7-.831.315-1.871-.833-2.269a21.084,21.084,0,0,0-2.809.109c-2.725.208-6.07.375-6.953.348a6.8,6.8,0,0,0-1.3.146c-2.359.5-2.585,2.728-.359,3.527a4.181,4.181,0,0,0,1.84.059,12.017,12.017,0,0,0,1.429-.157Z" transform="translate(25.696 0.024)" fill="#71887f"/>
      <path id="Path_189" data-name="Path 189" d="M209.754,351.12c1.538-.211,2.243-.476,2.638-.992.54-.7.181-1.6-.78-1.945a9.8,9.8,0,0,0-3.954.156c-2.1.631-2.881,1.2-2.758,2.018a.96.96,0,0,0,.511.754,1.326,1.326,0,0,0,1.137.293,29.418,29.418,0,0,0,3.207-.284Z" transform="translate(16.293 1.061)" fill="#71887f"/>
      <path id="Path_190" data-name="Path 190" d="M189.691,352.487c.172-.052.594-.144.944-.208a1.906,1.906,0,0,0,1.5-.935,1.938,1.938,0,0,0-.888-2.3,7.5,7.5,0,0,0-2.834-.515,4.665,4.665,0,0,0-2.86.962,3.155,3.155,0,0,0-.8,2.053,1.73,1.73,0,0,0,1.012,1.155c.346.149.6.153,2,.026a18.978,18.978,0,0,0,1.921-.239Z" transform="translate(5.824 1.313)" fill="#71887f"/>
      <path id="Path_191" data-name="Path 191" d="M196.052,349.672a16.663,16.663,0,0,1,1.79-.248c2.278-.2,4.368-.8,5.018-1.439.679-.667.415-1.5-.591-1.856-.489-.173-.637-.172-2.433.024a18.886,18.886,0,0,0-2.588.421,6.48,6.48,0,0,1-.979.242,4.3,4.3,0,0,0-1.079.465c-.62.35-.81.521-.948.862a1.077,1.077,0,0,0,.585,1.582c.4.146.413.144,1.225-.053Z" transform="translate(10.691)" fill="#71887f"/>
    </g>
  </g>
</svg>
