<svg xmlns="http://www.w3.org/2000/svg" width="1141.93" height="499.845" viewBox="0 0 1141.93 499.845">
  <g id="Group_97" data-name="Group 97" transform="translate(2858.922 -7020.98)">
    <path id="Path_958" data-name="Path 958" d="M318.22,19.745c-.118,1.194-.592,4.047-1.059,6.371a28.671,28.671,0,0,0-.7,5.422,15.543,15.543,0,0,1,.085,2.234,47.085,47.085,0,0,0,1.069,14.693,36.012,36.012,0,0,0,2.893,9.082C321.168,59,322,60.925,322.338,61.8c.836,2.16,3.42,5.82,8.542,12.108a85.955,85.955,0,0,0,13.36,13.66c1.157.972,2.427,2.11,2.787,2.493a35.659,35.659,0,0,0,3.486,2.682c1.542,1.078,3.9,2.738,5.18,3.654a46.982,46.982,0,0,0,4.1,2.606c.964.513,2.763,1.588,4.028,2.406A21.769,21.769,0,0,0,366.525,103a104.1,104.1,0,0,1,9.806,5.78c1.683,1.1,4.6,2.851,6.513,3.912s4.36,2.458,5.464,3.12A44.636,44.636,0,0,0,392.6,118c2.208.954,3.863,2.14,7.139,5.111.83.754,2.406,2.036,3.49,2.837a78.651,78.651,0,0,1,12.527,13.1,10.068,10.068,0,0,0,1.667,2.086,10.746,10.746,0,0,1,1.513,3.072,48.569,48.569,0,0,0,2.443,5.343,22.113,22.113,0,0,1,1.87,4.574,15.107,15.107,0,0,0,1.708,3.96,10.572,10.572,0,0,1,1.444,3.42c.234,1.655,2.748,6.608,4.866,9.589a32.232,32.232,0,0,1,1.991,3.146,45.145,45.145,0,0,0,4.442,5.338c2.126,2.3,4.413,4.8,5.111,5.585a22.555,22.555,0,0,0,3.809,3.069c1.4.9,2.919,1.931,3.37,2.281,1.325,1.028,6.091,4.147,8.518,5.574a64,64,0,0,0,10.344,4.334c.9.3,3.209,1.238,5.167,2.1a52.53,52.53,0,0,0,9.435,3.072c12.935,3.32,20.267,4.808,25.131,5.1.941.056,3.072.34,4.713.627,3.8.664,7.656.875,17.851.978,2.474.026,5.059.1,5.793.171a26.858,26.858,0,0,0,3.1.037c.978-.047,3.591-.087,5.812-.089a38.243,38.243,0,0,0,5.822-.38,13.173,13.173,0,0,1,2.842-.3,17.45,17.45,0,0,0,5.582-.471,34.694,34.694,0,0,1,8.053-.772,10.188,10.188,0,0,0,2.785-.379,47.8,47.8,0,0,1,4.766-.806,20.939,20.939,0,0,0,4.279-.949,37.628,37.628,0,0,1,7.8-1.8,35.756,35.756,0,0,0,4.863-1.252c1.6-.53,3.461-1.112,4.192-1.309a36.828,36.828,0,0,0,3.894-1.48c1.433-.625,3.248-1.325,4.083-1.575a97.619,97.619,0,0,0,12.437-6.2,27.358,27.358,0,0,0,3.183-2.437,17.033,17.033,0,0,1,3.415-2.268c2.413-1.18,3.747-2.081,4.341-2.925a7.494,7.494,0,0,1,1.854-1.457,61.989,61.989,0,0,0,7.83-5.778,38.26,38.26,0,0,1,6.823-4.566,28.337,28.337,0,0,0,2.763-1.754,31.868,31.868,0,0,1,4.154-2.242c1.7-.793,3.241-1.515,3.4-1.6,1.7-.9,12.5-5.267,13.32-5.382a13.123,13.123,0,0,0,2.469-.708,12.346,12.346,0,0,1,2.687-.693,22.306,22.306,0,0,0,3.775-1.017c1.365-.484,3.414-1.1,4.537-1.365s3.823-1.069,6.017-1.791a44.061,44.061,0,0,1,6.367-1.612,33.373,33.373,0,0,0,7.791-1.846,12.877,12.877,0,0,1,3.282-.717,17.1,17.1,0,0,0,3.9-.895,33.157,33.157,0,0,1,7.7-1.891,18.674,18.674,0,0,0,3.346-.745,40.658,40.658,0,0,1,5.959-1.517c.716-.145,2.147-.513,3.136-.806s3.233-.825,4.939-1.169,3.788-.861,4.6-1.14a55.678,55.678,0,0,1,6.41-1.723,25.939,25.939,0,0,0,3.386-1.015c1.049-.4,2.763-.99,3.784-1.309s2.819-.874,3.97-1.223a48.474,48.474,0,0,0,12.527-6.544,25.358,25.358,0,0,1,2.218-1.621c1.386-.874,5.032-5.448,7.506-9.416,1.728-2.771,2.508-5.166,4.044-12.416,1.436-6.77,1.62-9.734.83-13.42-.21-.978-.612-2.993-.9-4.492a17.6,17.6,0,0,0-1.2-3.978,9.436,9.436,0,0,1-.827-1.981,12.425,12.425,0,0,0-.911-2.266c-.43-.862-.995-2.061-1.273-2.706-.77-1.784-6.309-8.588-7.841-9.632a23.5,23.5,0,0,1-2.634-2.181,37.093,37.093,0,0,0-6.647-5.164,24.92,24.92,0,0,1-2.937-1.723,27,27,0,0,0-3.994-2.132c-1.183-.488-3.7-1.72-5.619-2.751a71.481,71.481,0,0,0-18.076-6.56l-6.433-1.562-4.947.019c-2.7.01-5.312.089-5.756.172a16.453,16.453,0,0,1-2.542.111c-2.516-.063-7.019.783-11.888,2.234-8.036,2.39-10.485,3.191-12.19,3.988a13.957,13.957,0,0,1-3.8,1.011,17.712,17.712,0,0,0-3.925.932,33.272,33.272,0,0,1-7.954,2.02,21.852,21.852,0,0,0-3.933.891,18.666,18.666,0,0,1-4.445.77,32.718,32.718,0,0,0-4.3.469,17.373,17.373,0,0,1-2.8.358,14.308,14.308,0,0,0-2.532.321c-1.7.366-3.636.716-6.128,1.109a20.592,20.592,0,0,1-3.9.076,28.006,28.006,0,0,0-4.5.073c-1.215.137-2.814.282-3.568.324a21.623,21.623,0,0,0-3.087.484,8.539,8.539,0,0,1-2.1.316c-.366-.089-6.128.606-9.618,1.16-.785.124-2.208.277-3.185.343a22.4,22.4,0,0,0-3.174.463c-1.9.466-6.589,1.188-11.3,1.741A58.177,58.177,0,0,0,589.852,72.8c-2.229.712-4.586,1.373-5.224,1.465a23.7,23.7,0,0,0-4.613,1.963c-10.928,5.7-11.376,6.01-15.31,10.578-1.157,1.344-2.618,2.966-3.262,3.622a24.752,24.752,0,0,0-2.414,3.1,48.869,48.869,0,0,1-4.339,5.841,17.194,17.194,0,0,0-2.1,3.024,11.761,11.761,0,0,1-1.464,2.294c-.553.672-1.554,2.018-2.215,2.979-2.431,3.531-5.775,6.255-8.362,6.811a12.553,12.553,0,0,0-2.974,1.073,12.985,12.985,0,0,1-3.615,1.043l-3.8.55a43.526,43.526,0,0,1-12.419-.928c-7.735-1.876-10.4-2.806-13.312-4.647a42.457,42.457,0,0,1-3.852-2.7,6.636,6.636,0,0,0-1.644-1.114,2.062,2.062,0,0,1-.943-.943c-.413-.758-.367-.945.537-2.3a76.535,76.535,0,0,1,5.7-7.922,11.234,11.234,0,0,0,1.5-1.85,47.023,47.023,0,0,1,5.172-5.977c.671-.654,2.057-2.176,3.085-3.385s2.294-2.621,2.814-3.143,1.533-1.673,2.268-2.589a15.585,15.585,0,0,1,2.047-2.166,19.265,19.265,0,0,0,2.393-2.74,31.6,31.6,0,0,1,2.2-2.69,14.153,14.153,0,0,0,1.578-2.139c.582-.924,1.531-2.273,2.131-3.029,1.246-1.565,4.184-5.654,5.764-8.017,2.693-4.029,4.731-11.268,4.639-16.476a16.769,16.769,0,0,0-2.585-9.2c-.716-1.212-1.581-2.776-1.9-3.432-1.207-2.5-8.571-9.091-13.724-12.279a39.436,39.436,0,0,1-4.252-3.156,40.819,40.819,0,0,0-4.183-3.141A50.7,50.7,0,0,1,505.607,5.3c-.975-.92-2.95-2.769-4.365-4.086-4.861-4.524-7.082-6.724-10.2-10.1a54.436,54.436,0,0,0-3.9-3.944,29.338,29.338,0,0,1-2.8-2.851,40.188,40.188,0,0,0-6.466-6.328,25.5,25.5,0,0,1-3.24-2.961,48.07,48.07,0,0,0-7.176-6.47,26.527,26.527,0,0,1-2.9-2.316c-1.905-1.786-11.871-8.3-13.183-8.621a23.957,23.957,0,0,1-2.982-1.434,47.906,47.906,0,0,0-11.134-4.616,42.909,42.909,0,0,1-4.992-1.549c-2.579-1.078-14.8-3.759-17.38-3.812-1.069-.023-2.664-.142-3.607-.268-6.724-.9-25.449.037-30.24,1.515a13.846,13.846,0,0,1-2.461.258,16.524,16.524,0,0,0-4.137.886c-1.269.455-3.38,1.16-4.69,1.568-5.878,1.828-9.954,3.622-13.218,5.814a52.617,52.617,0,0,0-6.948,5.574,19.4,19.4,0,0,1-2.584,2.189,24.764,24.764,0,0,0-2.845,2.379,54.031,54.031,0,0,0-5.761,7.627c-.342.638-1.56,2.535-2.692,4.2a57.849,57.849,0,0,0-5.172,8.61c-.5,1.083-1.346,2.825-1.857,3.823a34.756,34.756,0,0,0-1.621,3.867A25.3,25.3,0,0,1,325.5-2.17a15.835,15.835,0,0,0-1.32,3.506,9.781,9.781,0,0,1-1.3,3.075,15.176,15.176,0,0,0-1.686,4.16,33.74,33.74,0,0,1-1.522,4.465c-.737,1.525-1.114,3.262-1.454,6.71Z" transform="translate(-2942.817 7262.312)" fill="#fff"/>
    <path id="Path_959" data-name="Path 959" d="M661.24-25.734c-.255-1.051-.629-2.721-.822-3.665a12.181,12.181,0,0,0-.856-2.663,4.131,4.131,0,0,1-.5-1.393,13.014,13.014,0,0,0-1.164-2.711,89.446,89.446,0,0,1-4.06-9.186,18.651,18.651,0,0,0-1.633-3.214,11.724,11.724,0,0,1-1.436-3.175,25.5,25.5,0,0,0-1.386-3.957,16.841,16.841,0,0,1-1.162-3.324,7.535,7.535,0,0,0-.8-2.21c-1.62-3.2-2.584-5.881-2.584-7.184a13.79,13.79,0,0,0-.532-3.114,31.536,31.536,0,0,1-.824-3.909,15.7,15.7,0,0,0-.822-3.335,7.578,7.578,0,0,1-.485-2.761c.027-.845-.158-3.567-.411-6.035-.5-4.935-.487-17.67.027-19.348.4-1.294.425-7.1.04-7.891a7.125,7.125,0,0,1,.053-2.748,53.644,53.644,0,0,0-.048-9.234c-.213-3.884-.426-9.551-.474-12.57-.1-6.694-.192-6.9-4.834-11.555a4.7,4.7,0,0,1-1.168-1.563,6.329,6.329,0,0,0-1.781-2.956c-.426-.4-1.177-1.2-1.662-1.758a25.43,25.43,0,0,0-6.568-4.947,21.916,21.916,0,0,0-8.905-1.235,31.378,31.378,0,0,0-4.26.513,29.257,29.257,0,0,1-3.936.509c-5.324.35-8.333,1.373-11.874,4.044a17.159,17.159,0,0,1-4.84,2.724c-2.218.79-3.323,1.48-8.518,5.324a35.958,35.958,0,0,0-6.105,5.624,18.314,18.314,0,0,1-2.347,2.443,25.89,25.89,0,0,0-2.55,2.516c-.774.88-2.068,2.223-2.848,2.956a72.575,72.575,0,0,0-10.889,13.755,47.469,47.469,0,0,1-2.756,3.981,17.527,17.527,0,0,0-1.672,3.726,21.194,21.194,0,0,1-1.512,3.6c-.791,1.177-1.275,3.324-1.5,6.67a16.5,16.5,0,0,1-.7,3.959c-.695,1.7-.388,8.062.532,11.042.35,1.133.945,3.2,1.328,4.616a40.866,40.866,0,0,0,1.338,4.105,18.525,18.525,0,0,1,.938,3.1c.585,3.127-.788,10.336-2.419,12.7a24.251,24.251,0,0,0-1.858,3.97,34.08,34.08,0,0,1-2.7,5.362c-3.332,5.18-7.427,12.09-7.917,13.363a15.843,15.843,0,0,1-1.549,2.774,9.086,9.086,0,0,0-1.257,2.418c-.116.517-.493,1.723-.84,2.676a18.824,18.824,0,0,0-.838,3.591,22.808,22.808,0,0,1-.566,3.079c-.53,1.82.182,5.715,1.464,8.012a27.626,27.626,0,0,0,10.636,9.929,23.188,23.188,0,0,1,2.614,1.505,18.153,18.153,0,0,0,2.194,1.294c.9.466,2.281,1.265,3.13,1.82,1.936,1.26,6.13,4.831,6.13,5.216a4.023,4.023,0,0,0,.87,1.27c.912,1.023,1.149,1.539,2.651,5.767.477,1.343,1.012,2.843,1.189,3.333s.65,1.87,1.048,3.067c2.771,8.306,5.754,13.781,8.987,16.49a7.533,7.533,0,0,1,1.517,1.489c0,.582,9.034,5.375,10.132,5.375a3.472,3.472,0,0,1,1.128.355,8.733,8.733,0,0,0,1.936.537c.664.1,1.839.343,2.646.543,3.4.841,11.906.163,16.261-1.3a30.313,30.313,0,0,0,6-2.46,10.8,10.8,0,0,1,1.646-.811,51.75,51.75,0,0,0,8.313-5.462c9.237-7.427,11.345-9.308,14.674-13.1,1.612-1.831,3.71-4.012,4.681-4.861a14.862,14.862,0,0,0,2.307-2.443,21.412,21.412,0,0,1,1.775-2.308c.68-.779,2.06-2.6,3.1-4.092s2.116-3.035,2.419-3.469c.59-.838,3.612-6.278,4.41-7.94.271-.563.722-1.491,1-2.052a26.625,26.625,0,0,0,1.921-7.208c.158-1.27.358-2.695.447-3.188a9.387,9.387,0,0,0-.306-2.821Z" transform="translate(-2721.414 7043.599) rotate(34)" fill="#fff"/>
    <g id="Group_96" data-name="Group 96" transform="translate(-2552.839 7250)">
      <path id="Path_931" data-name="Path 931" d="M504.639-31.97a2.524,2.524,0,0,0-2.424,1.257c-.479.7-.521.92-.5,2.606a20.1,20.1,0,0,0,1.22,6.666c.809,2.21,1.48,2.624,2.68,1.654a3.245,3.245,0,0,0,1.215-2.537c0-.453-.153-1.974-.345-3.406a30.97,30.97,0,0,1-.313-3.2c.068-1.248-.719-2.811-1.53-3.045Z" transform="translate(-452.607 32.015)" fill="#202a45"/>
      <path id="Path_932" data-name="Path 932" d="M494.166-28.036c-1.528.338-2.942,2.856-3.2,5.7a26.138,26.138,0,0,0,.124,5.989c.145.682.3,1.464.359,1.765a20.626,20.626,0,0,0,1.107,3.354c.187.422.534,1.3.771,1.952.5,1.373.795,1.649,1.675,1.578,1.017-.082,1.592-.508,2.323-1.723a3.454,3.454,0,0,0,.65-2.306,15.485,15.485,0,0,0-.741-4.553,14.438,14.438,0,0,1-.406-1.892c-.042-.393-.26-1.621-.482-2.717a29.5,29.5,0,0,1-.463-4.22c-.052-2.082-.089-2.248-.6-2.635a1.337,1.337,0,0,0-1.117-.287Z" transform="translate(-459.245 34.432)" fill="#202a45"/>
      <path id="Path_933" data-name="Path 933" d="M512.575-13.181a2.366,2.366,0,0,0-1.207.443c-1.462,1.091-1.557,1.929-.6,5.322.838,2.983,1.733,6.763,1.96,8.293a2.384,2.384,0,0,0,.442,1.2c.379.287,1.433-.069,1.8-.612.388-.567.3-2.735-.218-5.656a51.021,51.021,0,0,1-.851-6.89,2.791,2.791,0,0,0-.59-1.979,2.1,2.1,0,0,0-.737-.118Z" transform="translate(-447.447 43.538)" fill="#202a45"/>
      <path id="Path_934" data-name="Path 934" d="M505.194-18.158a3.392,3.392,0,0,0-2.079,2.34,2.037,2.037,0,0,0,.6,2.189,10.764,10.764,0,0,1,1.246,2.6c.388,1.091.827,2.319.969,2.716s.372,1.114.513,1.592c.35,1.2.986,1.67,1.755,1.294a2.43,2.43,0,0,0,1.283-2.79c-.076-.4-.24-1.335-.371-2.09a10.84,10.84,0,0,0-.295-1.414,5.651,5.651,0,0,1-.253-.932c-.1-.485-.472-1.768-.808-2.83-.751-2.376-1.37-3.022-2.563-2.674Z" transform="translate(-451.809 40.44)" fill="#202a45"/>
      <path id="Path_935" data-name="Path 935" d="M512.37,4.333c-1.128-.023-2.616,1.412-3.441,3.32a10.074,10.074,0,0,0-.036,5.478c.242.99.476,1.944.517,2.113s.2.64.355,1.048a11.6,11.6,0,0,1,.453,1.85,17.511,17.511,0,0,0,.4,1.863c.126.421.3,1.082.4,1.505s.393,1.6.659,2.627.529,2.132.583,2.452a1.736,1.736,0,0,0,.662,1,1.114,1.114,0,0,0,1.322.16,3.233,3.233,0,0,0,1.91-1.876c.447-1.26-.482-12.638-1.286-15.754-.137-.534-.422-1.723-.629-2.63-.654-2.861-.819-3.14-1.871-3.161Z" transform="translate(-448.429 54.253)" fill="#202a45"/>
      <path id="Path_936" data-name="Path 936" d="M495.834-7.12c-.907-.1-2.021.851-2.474,2.12a2.417,2.417,0,0,0,.377,2.108,3.039,3.039,0,0,1,.335,1.43,16.881,16.881,0,0,0,1.808,6.753c.59,1.164.7,1.289,1.22,1.346a2.286,2.286,0,0,0,2.018-1.373,6.352,6.352,0,0,0,.035-3.791A21.514,21.514,0,0,1,498.8-.852a11.667,11.667,0,0,0-.754-3.846c-.5-1.425-1.318-2.319-2.213-2.423Z" transform="translate(-457.77 47.241)" fill="#202a45"/>
      <path id="Path_937" data-name="Path 937" d="M479.756-12.183a2.858,2.858,0,0,0-2.493,1.148c-.576.841-.859,2.332-.867,4.544a25.247,25.247,0,0,0,.285,3.8c.163.893.31,1.844.329,2.136.118,1.72,1.918,5.8,2.887,6.544s2.413.206,3.435-1.289c.891-1.3.983-2.648.355-5.23-.15-.617-.377-1.91-.5-2.859s-.306-2.176-.4-2.716a26.431,26.431,0,0,0-1.979-5.764,3.217,3.217,0,0,0-1.048-.309Z" transform="translate(-468.093 44.137)" fill="#202a45"/>
      <path id="Path_938" data-name="Path 938" d="M502.247,10.164A2.625,2.625,0,0,0,500.155,12c-.364.877-.39,1.22-.239,3.156.047.595.124,1.662.171,2.356a28.134,28.134,0,0,0,1.073,5.88c.519,1.452,1.947,2.759,2.909,2.666a3.8,3.8,0,0,0,2.2-1.457c.94-1.394,1.088-4.257.351-6.787a18.126,18.126,0,0,0-1.694-4.573,10.967,10.967,0,0,1-.73-1.354c-.45-1.078-1.252-1.786-1.955-1.721Z" transform="translate(-453.756 57.818)" fill="#202a45"/>
      <path id="Path_939" data-name="Path 939" d="M488.82,2.5c-1.492-.187-3.443,1.513-3.8,3.311-.369,1.86-.14,5.285.422,6.318a3.434,3.434,0,0,1,.329.78,8.186,8.186,0,0,0,1.683,2.619c1,1.093,1.7,1.277,2.7.706a3.711,3.711,0,0,0,1.578-4.46c-.174-.561-.421-1.515-.538-2.094s-.3-1.467-.413-1.965a17.487,17.487,0,0,1-.256-2.334,7.472,7.472,0,0,0-.255-1.839A2.043,2.043,0,0,0,488.82,2.5Z" transform="translate(-462.927 53.121)" fill="#202a45"/>
      <path id="Path_940" data-name="Path 940" d="M473.956-6.563a2.93,2.93,0,0,0-1.833,1.18,6.518,6.518,0,0,0-.87,3.488,21,21,0,0,0,3.132,9.735c1.2,1.749,2.519,1.965,3.7.6a2.317,2.317,0,0,0,.274-2.7c-.6-.762-1.4-3.435-2.579-8.65-.18-.791-.353-1.71-.388-2.066-.071-.714-.857-1.588-1.433-1.588Z" transform="translate(-471.244 47.587)" fill="#202a45"/>
      <path id="Path_941" data-name="Path 941" d="M518.183,32.4c-.832-.1-2.032,1.31-2.011,2.364a24.445,24.445,0,0,0,.479,4.221,30.48,30.48,0,0,1,.883,3.393c.2.994.767,1.381,1.594,1.09a2.822,2.822,0,0,0,1.626-2.145,15.84,15.84,0,0,0-.466-5.5,11.563,11.563,0,0,0-.53-1.671,2.05,2.05,0,0,1-.263-.614,1.651,1.651,0,0,0-1.312-1.133Z" transform="translate(-443.759 71.42)" fill="#202a45"/>
      <path id="Path_942" data-name="Path 942" d="M509.076,26.973c-1.546.04-2.406,1.47-2.451,4.076a16.062,16.062,0,0,0,.907,5.209c.09.239.271.738.392,1.086a16.6,16.6,0,0,0,.946,1.934c.4.709.9,1.618,1.117,2.023.714,1.323,2.184,1.165,3.211-.347a3.875,3.875,0,0,0,.6-3.2c-.119-.543-.348-1.6-.514-2.379a7.1,7.1,0,0,0-.419-1.494.927.927,0,0,1-.14-.5,20.671,20.671,0,0,0-1.283-4.1c-.59-1.323-1.617-2.329-2.361-2.31Z" transform="translate(-449.6 68.104)" fill="#202a45"/>
      <path id="Path_943" data-name="Path 943" d="M480.159,10.412a2.317,2.317,0,0,0-2.316.524c-2.11,1.626-2.687,3.98-1.778,7.256a16.023,16.023,0,0,0,1.984,4.756c.264.376.629.927.806,1.217.619,1.014,1.891,1.149,3.058.322a4.944,4.944,0,0,0,1.779-2.821,9.634,9.634,0,0,0-.936-4.026,26.02,26.02,0,0,1-.972-4.342c-.242-1.568-.817-2.59-1.625-2.887Z" transform="translate(-468.549 57.894)" fill="#202a45"/>
      <path id="Path_944" data-name="Path 944" d="M518.373,47.326a3,3,0,0,0-1.721,2.706,23.229,23.229,0,0,0,.172,4.523c.3,2.324,1.486,5.013,2.371,5.375,1.138.466,2.793-1.036,3.082-2.8.19-1.165-.256-3.494-1.227-6.392-1-3-1.623-3.793-2.677-3.414Z" transform="translate(-443.494 80.502)" fill="#202a45"/>
      <path id="Path_945" data-name="Path 945" d="M492.954,28.311a2.779,2.779,0,0,0-2.089,1.665c-.759,1.778.063,5.325,1.675,7.23a3.772,3.772,0,0,1,.627,1.056c.445,1.4,1.879,1.522,2.946.245a2.238,2.238,0,0,0,.635-1.842c.09-1.908-1.984-7.319-3.145-8.2a1.421,1.421,0,0,0-.65-.153Z" transform="translate(-459.415 68.922)" fill="#202a45"/>
      <path id="Path_946" data-name="Path 946" d="M498.417,42.518a2.627,2.627,0,0,0-.875.577c-.612.9-.885,3.137-.719,5.92.05.822.1,1.67.113,1.875a8.869,8.869,0,0,0,.16,1.006,4.617,4.617,0,0,1,.111.956,38.127,38.127,0,0,0,1.575,6.118c.393,1.188.745,2.344.783,2.59a1.1,1.1,0,0,0,1.515.838,2.582,2.582,0,0,0,1.534-2.268,19.164,19.164,0,0,0-.6-4.1c-.089-.066-.93-4.877-1.2-6.852-.14-1.032-.377-2.608-.522-3.475a17.053,17.053,0,0,1-.247-2.21c.024-.946-.716-1.389-1.63-.974Z" transform="translate(-455.625 77.519)" fill="#202a45"/>
      <path id="Path_947" data-name="Path 947" d="M507.913,55.457a2.358,2.358,0,0,0-1.667,1.791,1.519,1.519,0,0,0-.082.783,11.007,11.007,0,0,1,.413,1.8c.606,3.351,1.841,6.33,3.011,7.256.7.556,1.53.314,2.176-.632.556-.812.556-1.339,0-3.185-.226-.748-.422-1.457-.442-1.591-.031-.208-.969-3.348-1.378-4.616a3.445,3.445,0,0,0-.808-1.149c-.513-.487-.737-.571-1.223-.461Z" transform="translate(-449.897 85.504)" fill="#202a45"/>
    </g>
    <path id="Path_960" data-name="Path 960" d="M730.891-184.442c-2.353-5.523-16.755-6.752-25.093-2.14-13.022,7.2-18.307,10.365-21.14,12.659-.989.8-8.829,6.139-17.371,11.83s-20.14,13.589-25.7,17.5c-5.586,3.931-19.366,13.477-30.725,21.285s-25.466,17.578-31.45,21.781c-5.968,4.192-16.892,11.853-24.279,17.028-15.843,11.1-19.944,14.08-31.746,23.049-4.951,3.762-9.159,6.821-9.387,6.821a55.753,55.753,0,0,0-5.856,4.491c-3.021,2.494-7.544,5.979-10.165,7.832-7.783,5.5-18.527,13.483-20.267,15.052-.919.827-3.966,3.2-6.772,5.267C456.915-11.64,453.485-9.019,452.422-7.83a34.615,34.615,0,0,1-4.966,3.785A27.7,27.7,0,0,0,442.7-.328a42.68,42.68,0,0,1-6.129,4.7,79.815,79.815,0,0,0-8.37,6.467,20.02,20.02,0,0,1-4.237,3.292,28.864,28.864,0,0,0-5.1,3.9c-2.244,2-6.823,5.832-10.229,8.56s-7.474,6.043-9.093,7.407-5.171,4.139-7.955,6.208-5.737,4.411-6.614,5.244-4.052,3.457-7.025,5.809-6.707,5.572-8.232,7.1a80.156,80.156,0,0,1-8.093,6.583,42.634,42.634,0,0,0-6.509,5.432c-.664.907-5.153,4.8-9.985,8.654-8.425,6.725-10.468,8.52-13.272,11.662a68.05,68.05,0,0,1-5.674,4.963c-2.406,1.927-5.458,4.613-6.784,5.972a62.338,62.338,0,0,1-5.39,4.773c-3.953,3.057-7.915,6.712-9.328,8.606a9.416,9.416,0,0,1-2.364,2.21c-1.631.928-6.678,5.549-8.987,8.23-2.389,2.773-12.743,13.214-15.573,15.7-2.887,2.538-10.091,10.453-11.258,12.365-.49.8-2.439,3.714-4.346,6.487-3.942,5.734-6.687,13.561-6.2,17.67a22.717,22.717,0,0,0,4.966,11.176c2.283,2.462,8.177,6.157,11.9,7.458,4.2,1.47,17.1,3.394,23.1,3.448,6.067.055,17.314-.547,19.164-1.026,1.081-.279,2.343-.423,16.338-1.85,8.616-.877,14.7-1.685,15.578-2.066.339-.147,4.309-.484,8.788-.745s11.282-.728,15.063-1.034a102.186,102.186,0,0,1,18.476-.317c10.963.669,20.918,2.963,26.618,6.134,2.077,1.156,7.553,4.22,12.106,6.776a100.072,100.072,0,0,0,13.519,6.4c2.879.96,7.827,2.813,11.069,4.147A44.206,44.206,0,0,0,461.3,218.9a46.4,46.4,0,0,1,7.276,1.756,36.05,36.05,0,0,0,5.412,1.452c.514,0,4.311.661,8.447,1.472a91.625,91.625,0,0,0,9.2,1.472,44.466,44.466,0,0,1,7.794,1.942c3.336,1.062,10.62,2.983,16.066,4.236s10.809,2.59,11.827,2.946c2.351.824,13.308,2.761,23.444,4.144a82.451,82.451,0,0,0,17.1.824c8.478-.248,9.623-.408,16.784-2.34,7.03-1.9,8.254-2.431,14.367-6.263,3.652-2.287,7.232-4.677,7.891-5.268C611.9,220.805,619.2,207.6,619.2,203.04a26.97,26.97,0,0,1,1.147-6.109c2.622-8.692.321-24.514-4.336-29.825-.881-1-3.12-3.567-4.96-5.68-8.093-9.285-23.346-16.555-43.136-20.562-3.518-.712-8.219-1.837-10.552-2.525-2.294-.677-6.274-1.627-8.757-2.091q-8.481-1.581-11.3-6c-1.252-1.962-1.417-3.052-1.121-7.42.663-9.772,1.929-14.045,7-23.589.791-1.493,2.754-5.406,4.336-8.648a69.417,69.417,0,0,1,3.887-7.193,62.615,62.615,0,0,0,3.545-6.134,37.614,37.614,0,0,1,3.2-5.406,40.608,40.608,0,0,0,3.3-4.723c1.459-2.3,3.3-5.123,4.1-6.276a41.349,41.349,0,0,0,3.125-6.18c1.872-4.558,8.012-13.8,10.867-16.359A17.532,17.532,0,0,0,582.724,34a38.7,38.7,0,0,1,2.787-4.631,31.111,31.111,0,0,0,2.685-4.677,40.263,40.263,0,0,1,3.621-5.922,36.79,36.79,0,0,0,5.439-11.609A34.756,34.756,0,0,0,597.57-.5c-.259-5.731-.947-7.668-4.336-12.21-2.595-3.477-2.332-4.978,1.887-10.806a70.085,70.085,0,0,1,5.428-6.795,51.65,51.65,0,0,0,4.784-6.182,57.535,57.535,0,0,1,5.749-7.169,22.853,22.853,0,0,0,3.065-3.455c.286-.547,2.226-3.08,4.338-5.665,2.092-2.562,6.7-8.251,10.19-12.577s7.709-8.93,9.33-10.18a33.2,33.2,0,0,0,5.441-5.688,36.931,36.931,0,0,1,4.213-4.913,58.026,58.026,0,0,0,8.047-8.745,92.959,92.959,0,0,1,7.159-7.9c3.035-3.057,6.507-6.816,7.731-8.37,7-8.884,13.009-15.871,15.254-17.725a35.535,35.535,0,0,0,4.938-5.359,49.126,49.126,0,0,1,4.648-5.407,14.982,14.982,0,0,0,3.03-4.043,24.144,24.144,0,0,1,3.441-4.96c2.384-2.733,2.712-3.526,2.923-7.049.163-2.725-.1-4.507-.833-5.683l-1.07-1.714,8.335-5.528c6.616-4.385,8.95-5.633,11.3-6.043a11.711,11.711,0,0,0,8.014-5.131c1.25-2.04,1.275-2.4.314-4.651Z" transform="translate(-3114.826 7210.397)" fill="#202a45"/>
    <g id="Group_98" data-name="Group 98" transform="matrix(0.259, -0.966, 0.966, 0.259, -2336.738, 7274.617)">
      <path id="Path_931-2" data-name="Path 931" d="M505.675-31.953c-1-.288-2.428.454-3.281,1.7-.648.947-.7,1.246-.683,3.528a27.2,27.2,0,0,0,1.651,9.023c1.1,2.991,2,3.552,3.628,2.238a4.392,4.392,0,0,0,1.645-3.434c0-.613-.207-2.672-.467-4.61a41.918,41.918,0,0,1-.423-4.326c.092-1.688-.973-3.8-2.07-4.121Z" transform="translate(-435.252 32.015)" fill="#202a45"/>
      <path id="Path_932-2" data-name="Path 932" d="M495.335-28.026c-2.068.458-3.981,3.866-4.33,7.709a35.373,35.373,0,0,0,.168,8.106c.2.923.412,1.981.486,2.389a27.912,27.912,0,0,0,1.5,4.54c.253.572.722,1.758,1.043,2.642.678,1.859,1.075,2.232,2.266,2.136,1.377-.111,2.155-.687,3.144-2.332a4.675,4.675,0,0,0,.879-3.122,20.956,20.956,0,0,0-1-6.163,19.545,19.545,0,0,1-.55-2.561c-.057-.532-.351-2.195-.652-3.678a39.935,39.935,0,0,1-.626-5.711c-.07-2.819-.12-3.043-.811-3.567a1.81,1.81,0,0,0-1.512-.388Z" transform="translate(-448.071 36.683)" fill="#202a45"/>
      <path id="Path_933-2" data-name="Path 933" d="M513.435-13.181a3.2,3.2,0,0,0-1.634.6c-1.979,1.477-2.107,2.611-.814,7.2,1.134,4.038,2.345,9.154,2.653,11.224a3.225,3.225,0,0,0,.6,1.621c.513.388,1.939-.094,2.439-.829.526-.768.412-3.7-.294-7.655a69.049,69.049,0,0,1-1.152-9.326,3.778,3.778,0,0,0-.8-2.679,2.84,2.84,0,0,0-1-.159Z" transform="translate(-425.287 54.268)" fill="#202a45"/>
      <path id="Path_934-2" data-name="Path 934" d="M505.965-18.127a4.59,4.59,0,0,0-2.814,3.168A2.757,2.757,0,0,0,503.967-12a14.571,14.571,0,0,1,1.686,3.517c.526,1.477,1.119,3.139,1.311,3.676s.5,1.507.694,2.155c.473,1.625,1.335,2.26,2.376,1.752a3.289,3.289,0,0,0,1.737-3.776c-.1-.543-.325-1.806-.5-2.829a14.673,14.673,0,0,0-.4-1.913,7.649,7.649,0,0,1-.342-1.261c-.142-.657-.639-2.393-1.093-3.831-1.017-3.216-1.854-4.09-3.469-3.619Z" transform="translate(-433.71 48.285)" fill="#202a45"/>
      <path id="Path_935-2" data-name="Path 935" d="M513.724,4.333c-1.527-.031-3.541,1.911-4.658,4.494-.687,1.588-.707,4.712-.048,7.415.327,1.339.644,2.631.7,2.86s.273.866.48,1.418a15.7,15.7,0,0,1,.613,2.5,23.691,23.691,0,0,0,.543,2.522c.17.569.408,1.464.541,2.038s.532,2.16.892,3.556.715,2.886.79,3.318a2.351,2.351,0,0,0,.9,1.359,1.507,1.507,0,0,0,1.789.216,4.376,4.376,0,0,0,2.585-2.539c.6-1.706-.652-17.105-1.741-21.322-.186-.722-.572-2.332-.851-3.56-.886-3.872-1.108-4.25-2.533-4.278Z" transform="translate(-427.182 74.961)" fill="#202a45"/>
      <path id="Path_936-2" data-name="Path 936" d="M496.741-7.117c-1.228-.14-2.736,1.152-3.349,2.869A3.272,3.272,0,0,0,493.9-1.4,4.113,4.113,0,0,1,494.356.54,22.848,22.848,0,0,0,496.8,9.68c.8,1.575.953,1.745,1.651,1.822a3.1,3.1,0,0,0,2.731-1.859c.517-1.025.534-2.921.048-5.131a29.132,29.132,0,0,1-.478-3.146,15.789,15.789,0,0,0-1.021-5.205c-.678-1.928-1.784-3.139-3-3.279Z" transform="translate(-445.223 61.42)" fill="#202a45"/>
      <path id="Path_937-2" data-name="Path 937" d="M480.944-12.177a3.869,3.869,0,0,0-3.375,1.553c-.779,1.139-1.163,3.157-1.174,6.15a34.168,34.168,0,0,0,.386,5.14c.22,1.209.419,2.5.445,2.891.159,2.328,2.6,7.853,3.907,8.857s3.266.279,4.649-1.745c1.206-1.765,1.331-3.584.48-7.079-.2-.836-.51-2.585-.678-3.87s-.415-2.945-.543-3.676c-.343-1.957-2.245-7.5-2.679-7.8a4.354,4.354,0,0,0-1.418-.419Z" transform="translate(-465.159 55.426)" fill="#202a45"/>
      <path id="Path_938-2" data-name="Path 938" d="M503.1,10.165a3.553,3.553,0,0,0-2.832,2.483c-.493,1.187-.528,1.651-.323,4.271.063.8.168,2.249.231,3.189a38.079,38.079,0,0,0,1.453,7.958c.7,1.966,2.635,3.735,3.938,3.608a5.137,5.137,0,0,0,2.984-1.972c1.272-1.887,1.473-5.761.476-9.186-1.06-3.647-1.6-5.107-2.293-6.189a14.84,14.84,0,0,1-.988-1.832c-.609-1.459-1.7-2.417-2.646-2.33Z" transform="translate(-437.471 81.845)" fill="#202a45"/>
      <path id="Path_939-2" data-name="Path 939" d="M490.227,2.5c-2.02-.253-4.66,2.048-5.144,4.481-.5,2.517-.19,7.153.572,8.552a4.644,4.644,0,0,1,.445,1.056,11.08,11.08,0,0,0,2.278,3.545c1.35,1.479,2.3,1.728,3.65.956a5.023,5.023,0,0,0,2.136-6.036c-.236-.759-.569-2.051-.729-2.834s-.412-1.985-.558-2.659a23.671,23.671,0,0,1-.347-3.159,10.116,10.116,0,0,0-.345-2.489A2.765,2.765,0,0,0,490.227,2.5Z" transform="translate(-455.181 72.775)" fill="#202a45"/>
      <path id="Path_940-2" data-name="Path 940" d="M474.915-6.563a3.966,3.966,0,0,0-2.48,1.6,8.822,8.822,0,0,0-1.178,4.721A28.418,28.418,0,0,0,475.5,12.931c1.621,2.367,3.41,2.659,5,.814a3.136,3.136,0,0,0,.371-3.654c-.809-1.032-1.889-4.649-3.49-11.708-.244-1.071-.478-2.315-.526-2.8-.1-.966-1.161-2.149-1.939-2.149Z" transform="translate(-471.244 62.088)" fill="#202a45"/>
      <path id="Path_941-2" data-name="Path 941" d="M518.894,32.4c-1.126-.135-2.751,1.774-2.722,3.2a33.075,33.075,0,0,0,.648,5.713,41.237,41.237,0,0,1,1.2,4.592c.273,1.346,1.038,1.87,2.158,1.475a3.819,3.819,0,0,0,2.2-2.9,21.438,21.438,0,0,0-.63-7.45,15.66,15.66,0,0,0-.718-2.262,2.776,2.776,0,0,1-.356-.831,2.234,2.234,0,0,0-1.776-1.534Z" transform="translate(-418.163 108.114)" fill="#202a45"/>
      <path id="Path_942-2" data-name="Path 942" d="M509.943,26.973c-2.092.055-3.257,1.99-3.318,5.517a21.739,21.739,0,0,0,1.228,7.051c.122.323.366,1,.53,1.47a22.463,22.463,0,0,0,1.281,2.618c.537.96,1.217,2.19,1.512,2.738.966,1.791,2.956,1.577,4.346-.469a5.244,5.244,0,0,0,.807-4.328c-.162-.735-.471-2.162-.7-3.22a9.605,9.605,0,0,0-.567-2.022,1.255,1.255,0,0,1-.19-.683,27.984,27.984,0,0,0-1.737-5.545c-.8-1.791-2.188-3.152-3.2-3.126Z" transform="translate(-429.444 101.711)" fill="#202a45"/>
      <path id="Path_943-2" data-name="Path 943" d="M481.753,10.457a3.136,3.136,0,0,0-3.135.709c-2.856,2.2-3.637,5.386-2.406,9.821a21.686,21.686,0,0,0,2.685,6.438c.358.508.851,1.254,1.091,1.647.838,1.372,2.559,1.555,4.138.436a6.692,6.692,0,0,0,2.408-3.818,13.04,13.04,0,0,0-1.268-5.449,35.217,35.217,0,0,1-1.315-5.877c-.327-2.123-1.106-3.506-2.2-3.907Z" transform="translate(-466.04 81.994)" fill="#202a45"/>
      <path id="Path_944-2" data-name="Path 944" d="M519,47.358a4.053,4.053,0,0,0-2.33,3.663,31.437,31.437,0,0,0,.233,6.121c.408,3.146,2.011,6.785,3.209,7.275,1.54.63,3.781-1.4,4.171-3.787.258-1.577-.347-4.73-1.66-8.652-1.359-4.066-2.2-5.133-3.624-4.62Z" transform="translate(-417.652 125.654)" fill="#202a45"/>
      <path id="Path_945-2" data-name="Path 945" d="M493.794,28.311a3.761,3.761,0,0,0-2.827,2.253c-1.027,2.406.085,7.208,2.267,9.786a5.105,5.105,0,0,1,.849,1.429c.6,1.9,2.544,2.059,3.988.332a3.029,3.029,0,0,0,.86-2.493c.122-2.583-2.686-9.906-4.256-11.1a1.923,1.923,0,0,0-.879-.207Z" transform="translate(-448.399 103.291)" fill="#202a45"/>
      <path id="Path_946-2" data-name="Path 946" d="M499,42.574a3.556,3.556,0,0,0-1.185.781c-.829,1.213-1.2,4.245-.973,8.013.068,1.113.135,2.26.153,2.537a12,12,0,0,0,.216,1.361,6.251,6.251,0,0,1,.151,1.294,51.607,51.607,0,0,0,2.131,8.281c.532,1.608,1.008,3.172,1.06,3.506A1.492,1.492,0,0,0,502.6,69.48a3.5,3.5,0,0,0,2.077-3.069,25.937,25.937,0,0,0-.811-5.552c-.12-.089-1.259-6.6-1.623-9.274-.19-1.4-.51-3.53-.707-4.7a23.076,23.076,0,0,1-.334-2.991c.033-1.281-.969-1.88-2.206-1.318Z" transform="translate(-441.079 119.893)" fill="#202a45"/>
      <path id="Path_947-2" data-name="Path 947" d="M508.541,55.472a3.192,3.192,0,0,0-2.256,2.424,2.055,2.055,0,0,0-.111,1.06,14.9,14.9,0,0,1,.559,2.441c.82,4.535,2.491,8.567,4.075,9.821.947.753,2.07.425,2.945-.855.753-1.1.753-1.813,0-4.311-.305-1.012-.572-1.972-.6-2.153-.041-.281-1.311-4.531-1.865-6.248A4.663,4.663,0,0,0,510.2,56.1c-.694-.659-1-.772-1.656-.624Z" transform="translate(-430.018 135.315)" fill="#202a45"/>
    </g>
    <g id="Group_99" data-name="Group 99" transform="translate(-2673.924 7253.8) rotate(-120)">
      <path id="Path_931-3" data-name="Path 931" d="M505.675-31.953c-1-.288-2.428.454-3.281,1.7-.648.947-.7,1.246-.683,3.528a27.2,27.2,0,0,0,1.651,9.023c1.1,2.991,2,3.552,3.628,2.238a4.392,4.392,0,0,0,1.645-3.434c0-.613-.207-2.672-.467-4.61a41.918,41.918,0,0,1-.423-4.326c.092-1.688-.973-3.8-2.07-4.121Z" transform="translate(-435.252 32.015)" fill="#fff"/>
      <path id="Path_932-3" data-name="Path 932" d="M495.335-28.026c-2.068.458-3.981,3.866-4.33,7.709a35.373,35.373,0,0,0,.168,8.106c.2.923.412,1.981.486,2.389a27.912,27.912,0,0,0,1.5,4.54c.253.572.722,1.758,1.043,2.642.678,1.859,1.075,2.232,2.266,2.136,1.377-.111,2.155-.687,3.144-2.332a4.675,4.675,0,0,0,.879-3.122,20.956,20.956,0,0,0-1-6.163,19.545,19.545,0,0,1-.55-2.561c-.057-.532-.351-2.195-.652-3.678a39.935,39.935,0,0,1-.626-5.711c-.07-2.819-.12-3.043-.811-3.567a1.81,1.81,0,0,0-1.512-.388Z" transform="translate(-448.071 36.683)" fill="#fff"/>
      <path id="Path_933-3" data-name="Path 933" d="M513.435-13.181a3.2,3.2,0,0,0-1.634.6c-1.979,1.477-2.107,2.611-.814,7.2,1.134,4.038,2.345,9.154,2.653,11.224a3.225,3.225,0,0,0,.6,1.621c.513.388,1.939-.094,2.439-.829.526-.768.412-3.7-.294-7.655a69.049,69.049,0,0,1-1.152-9.326,3.778,3.778,0,0,0-.8-2.679,2.84,2.84,0,0,0-1-.159Z" transform="translate(-425.287 54.268)" fill="#fff"/>
      <path id="Path_934-3" data-name="Path 934" d="M505.965-18.127a4.59,4.59,0,0,0-2.814,3.168A2.757,2.757,0,0,0,503.967-12a14.571,14.571,0,0,1,1.686,3.517c.526,1.477,1.119,3.139,1.311,3.676s.5,1.507.694,2.155c.473,1.625,1.335,2.26,2.376,1.752a3.289,3.289,0,0,0,1.737-3.776c-.1-.543-.325-1.806-.5-2.829a14.673,14.673,0,0,0-.4-1.913,7.649,7.649,0,0,1-.342-1.261c-.142-.657-.639-2.393-1.093-3.831-1.017-3.216-1.854-4.09-3.469-3.619Z" transform="translate(-433.71 48.285)" fill="#fff"/>
      <path id="Path_935-3" data-name="Path 935" d="M513.724,4.333c-1.527-.031-3.541,1.911-4.658,4.494-.687,1.588-.707,4.712-.048,7.415.327,1.339.644,2.631.7,2.86s.273.866.48,1.418a15.7,15.7,0,0,1,.613,2.5,23.691,23.691,0,0,0,.543,2.522c.17.569.408,1.464.541,2.038s.532,2.16.892,3.556.715,2.886.79,3.318a2.351,2.351,0,0,0,.9,1.359,1.507,1.507,0,0,0,1.789.216,4.376,4.376,0,0,0,2.585-2.539c.6-1.706-.652-17.105-1.741-21.322-.186-.722-.572-2.332-.851-3.56-.886-3.872-1.108-4.25-2.533-4.278Z" transform="translate(-427.182 74.961)" fill="#fff"/>
      <path id="Path_936-3" data-name="Path 936" d="M496.741-7.117c-1.228-.14-2.736,1.152-3.349,2.869A3.272,3.272,0,0,0,493.9-1.4,4.113,4.113,0,0,1,494.356.54,22.848,22.848,0,0,0,496.8,9.68c.8,1.575.953,1.745,1.651,1.822a3.1,3.1,0,0,0,2.731-1.859c.517-1.025.534-2.921.048-5.131a29.132,29.132,0,0,1-.478-3.146,15.789,15.789,0,0,0-1.021-5.205c-.678-1.928-1.784-3.139-3-3.279Z" transform="translate(-445.223 61.42)" fill="#fff"/>
      <path id="Path_937-3" data-name="Path 937" d="M480.944-12.177a3.869,3.869,0,0,0-3.375,1.553c-.779,1.139-1.163,3.157-1.174,6.15a34.168,34.168,0,0,0,.386,5.14c.22,1.209.419,2.5.445,2.891.159,2.328,2.6,7.853,3.907,8.857s3.266.279,4.649-1.745c1.206-1.765,1.331-3.584.48-7.079-.2-.836-.51-2.585-.678-3.87s-.415-2.945-.543-3.676c-.343-1.957-2.245-7.5-2.679-7.8a4.354,4.354,0,0,0-1.418-.419Z" transform="translate(-465.159 55.426)" fill="#fff"/>
      <path id="Path_938-3" data-name="Path 938" d="M503.1,10.165a3.553,3.553,0,0,0-2.832,2.483c-.493,1.187-.528,1.651-.323,4.271.063.8.168,2.249.231,3.189a38.079,38.079,0,0,0,1.453,7.958c.7,1.966,2.635,3.735,3.938,3.608a5.137,5.137,0,0,0,2.984-1.972c1.272-1.887,1.473-5.761.476-9.186-1.06-3.647-1.6-5.107-2.293-6.189a14.84,14.84,0,0,1-.988-1.832c-.609-1.459-1.7-2.417-2.646-2.33Z" transform="translate(-437.471 81.845)" fill="#fff"/>
      <path id="Path_939-3" data-name="Path 939" d="M490.227,2.5c-2.02-.253-4.66,2.048-5.144,4.481-.5,2.517-.19,7.153.572,8.552a4.644,4.644,0,0,1,.445,1.056,11.08,11.08,0,0,0,2.278,3.545c1.35,1.479,2.3,1.728,3.65.956a5.023,5.023,0,0,0,2.136-6.036c-.236-.759-.569-2.051-.729-2.834s-.412-1.985-.558-2.659a23.671,23.671,0,0,1-.347-3.159,10.116,10.116,0,0,0-.345-2.489A2.765,2.765,0,0,0,490.227,2.5Z" transform="translate(-455.181 72.775)" fill="#fff"/>
      <path id="Path_940-3" data-name="Path 940" d="M474.915-6.563a3.966,3.966,0,0,0-2.48,1.6,8.822,8.822,0,0,0-1.178,4.721A28.418,28.418,0,0,0,475.5,12.931c1.621,2.367,3.41,2.659,5,.814a3.136,3.136,0,0,0,.371-3.654c-.809-1.032-1.889-4.649-3.49-11.708-.244-1.071-.478-2.315-.526-2.8-.1-.966-1.161-2.149-1.939-2.149Z" transform="translate(-471.244 62.088)" fill="#fff"/>
      <path id="Path_941-3" data-name="Path 941" d="M518.894,32.4c-1.126-.135-2.751,1.774-2.722,3.2a33.075,33.075,0,0,0,.648,5.713,41.237,41.237,0,0,1,1.2,4.592c.273,1.346,1.038,1.87,2.158,1.475a3.819,3.819,0,0,0,2.2-2.9,21.438,21.438,0,0,0-.63-7.45,15.66,15.66,0,0,0-.718-2.262,2.776,2.776,0,0,1-.356-.831,2.234,2.234,0,0,0-1.776-1.534Z" transform="translate(-418.163 108.114)" fill="#fff"/>
      <path id="Path_942-3" data-name="Path 942" d="M509.943,26.973c-2.092.055-3.257,1.99-3.318,5.517a21.739,21.739,0,0,0,1.228,7.051c.122.323.366,1,.53,1.47a22.463,22.463,0,0,0,1.281,2.618c.537.96,1.217,2.19,1.512,2.738.966,1.791,2.956,1.577,4.346-.469a5.244,5.244,0,0,0,.807-4.328c-.162-.735-.471-2.162-.7-3.22a9.605,9.605,0,0,0-.567-2.022,1.255,1.255,0,0,1-.19-.683,27.984,27.984,0,0,0-1.737-5.545c-.8-1.791-2.188-3.152-3.2-3.126Z" transform="translate(-429.444 101.711)" fill="#fff"/>
      <path id="Path_943-3" data-name="Path 943" d="M481.753,10.457a3.136,3.136,0,0,0-3.135.709c-2.856,2.2-3.637,5.386-2.406,9.821a21.686,21.686,0,0,0,2.685,6.438c.358.508.851,1.254,1.091,1.647.838,1.372,2.559,1.555,4.138.436a6.692,6.692,0,0,0,2.408-3.818,13.04,13.04,0,0,0-1.268-5.449,35.217,35.217,0,0,1-1.315-5.877c-.327-2.123-1.106-3.506-2.2-3.907Z" transform="translate(-466.04 81.994)" fill="#fff"/>
      <path id="Path_944-3" data-name="Path 944" d="M519,47.358a4.053,4.053,0,0,0-2.33,3.663,31.437,31.437,0,0,0,.233,6.121c.408,3.146,2.011,6.785,3.209,7.275,1.54.63,3.781-1.4,4.171-3.787.258-1.577-.347-4.73-1.66-8.652-1.359-4.066-2.2-5.133-3.624-4.62Z" transform="translate(-417.652 125.654)" fill="#fff"/>
      <path id="Path_945-3" data-name="Path 945" d="M493.794,28.311a3.761,3.761,0,0,0-2.827,2.253c-1.027,2.406.085,7.208,2.267,9.786a5.105,5.105,0,0,1,.849,1.429c.6,1.9,2.544,2.059,3.988.332a3.029,3.029,0,0,0,.86-2.493c.122-2.583-2.686-9.906-4.256-11.1a1.923,1.923,0,0,0-.879-.207Z" transform="translate(-448.399 103.291)" fill="#fff"/>
      <path id="Path_946-3" data-name="Path 946" d="M499,42.574a3.556,3.556,0,0,0-1.185.781c-.829,1.213-1.2,4.245-.973,8.013.068,1.113.135,2.26.153,2.537a12,12,0,0,0,.216,1.361,6.251,6.251,0,0,1,.151,1.294,51.607,51.607,0,0,0,2.131,8.281c.532,1.608,1.008,3.172,1.06,3.506A1.492,1.492,0,0,0,502.6,69.48a3.5,3.5,0,0,0,2.077-3.069,25.937,25.937,0,0,0-.811-5.552c-.12-.089-1.259-6.6-1.623-9.274-.19-1.4-.51-3.53-.707-4.7a23.076,23.076,0,0,1-.334-2.991c.033-1.281-.969-1.88-2.206-1.318Z" transform="translate(-441.079 119.893)" fill="#fff"/>
      <path id="Path_947-3" data-name="Path 947" d="M508.541,55.472a3.192,3.192,0,0,0-2.256,2.424,2.055,2.055,0,0,0-.111,1.06,14.9,14.9,0,0,1,.559,2.441c.82,4.535,2.491,8.567,4.075,9.821.947.753,2.07.425,2.945-.855.753-1.1.753-1.813,0-4.311-.305-1.012-.572-1.972-.6-2.153-.041-.281-1.311-4.531-1.865-6.248A4.663,4.663,0,0,0,510.2,56.1c-.694-.659-1-.772-1.656-.624Z" transform="translate(-430.018 135.315)" fill="#fff"/>
    </g>
    <path id="Path_961" data-name="Path 961" d="M318.22,19.745c-.118,1.194-.592,4.047-1.059,6.371a28.671,28.671,0,0,0-.7,5.422,15.543,15.543,0,0,1,.085,2.234,47.085,47.085,0,0,0,1.069,14.693,36.012,36.012,0,0,0,2.893,9.082C321.168,59,322,60.925,322.338,61.8c.836,2.16,3.42,5.82,8.542,12.108a85.955,85.955,0,0,0,13.36,13.66c1.157.972,2.427,2.11,2.787,2.493a35.659,35.659,0,0,0,3.486,2.682c1.542,1.078,3.9,2.738,5.18,3.654a46.982,46.982,0,0,0,4.1,2.606c.964.513,2.763,1.588,4.028,2.406A21.769,21.769,0,0,0,366.525,103a104.1,104.1,0,0,1,9.806,5.78c1.683,1.1,4.6,2.851,6.513,3.912s4.36,2.458,5.464,3.12A44.636,44.636,0,0,0,392.6,118c2.208.954,3.863,2.14,7.139,5.111.83.754,2.406,2.036,3.49,2.837a78.651,78.651,0,0,1,12.527,13.1,10.068,10.068,0,0,0,1.667,2.086,10.746,10.746,0,0,1,1.513,3.072,48.569,48.569,0,0,0,2.443,5.343,22.113,22.113,0,0,1,1.87,4.574,15.107,15.107,0,0,0,1.708,3.96,10.572,10.572,0,0,1,1.444,3.42c.234,1.655,2.748,6.608,4.866,9.589a32.232,32.232,0,0,1,1.991,3.146,45.145,45.145,0,0,0,4.442,5.338c2.126,2.3,4.413,4.8,5.111,5.585a22.555,22.555,0,0,0,3.809,3.069c1.4.9,2.919,1.931,3.37,2.281,1.325,1.028,6.091,4.147,8.518,5.574a64,64,0,0,0,10.344,4.334c.9.3,3.209,1.238,5.167,2.1a52.53,52.53,0,0,0,9.435,3.072c12.935,3.32,20.267,4.808,25.131,5.1.941.056,3.072.34,4.713.627,3.8.664,7.656.875,17.851.978,2.474.026,5.059.1,5.793.171a26.858,26.858,0,0,0,3.1.037c.978-.047,3.591-.087,5.812-.089a38.243,38.243,0,0,0,5.822-.38,13.173,13.173,0,0,1,2.842-.3,17.45,17.45,0,0,0,5.582-.471,34.694,34.694,0,0,1,8.053-.772,10.188,10.188,0,0,0,2.785-.379,47.8,47.8,0,0,1,4.766-.806,20.939,20.939,0,0,0,4.279-.949,37.628,37.628,0,0,1,7.8-1.8,35.756,35.756,0,0,0,4.863-1.252c1.6-.53,3.461-1.112,4.192-1.309a36.828,36.828,0,0,0,3.894-1.48c1.433-.625,3.248-1.325,4.083-1.575a97.619,97.619,0,0,0,12.437-6.2,27.358,27.358,0,0,0,3.183-2.437,17.033,17.033,0,0,1,3.415-2.268c2.413-1.18,3.747-2.081,4.341-2.925a7.494,7.494,0,0,1,1.854-1.457,61.989,61.989,0,0,0,7.83-5.778,38.26,38.26,0,0,1,6.823-4.566,28.337,28.337,0,0,0,2.763-1.754,31.868,31.868,0,0,1,4.154-2.242c1.7-.793,3.241-1.515,3.4-1.6,1.7-.9,12.5-5.267,13.32-5.382a13.123,13.123,0,0,0,2.469-.708,12.346,12.346,0,0,1,2.687-.693,22.306,22.306,0,0,0,3.775-1.017c1.365-.484,3.414-1.1,4.537-1.365s3.823-1.069,6.017-1.791a44.061,44.061,0,0,1,6.367-1.612,33.373,33.373,0,0,0,7.791-1.846,12.877,12.877,0,0,1,3.282-.717,17.1,17.1,0,0,0,3.9-.895,33.157,33.157,0,0,1,7.7-1.891,18.674,18.674,0,0,0,3.346-.745,40.658,40.658,0,0,1,5.959-1.517c.716-.145,2.147-.513,3.136-.806s3.233-.825,4.939-1.169,3.788-.861,4.6-1.14a55.678,55.678,0,0,1,6.41-1.723,25.939,25.939,0,0,0,3.386-1.015c1.049-.4,2.763-.99,3.784-1.309s2.819-.874,3.97-1.223a48.474,48.474,0,0,0,12.527-6.544,25.358,25.358,0,0,1,2.218-1.621c1.386-.874,5.032-5.448,7.506-9.416,1.728-2.771,2.508-5.166,4.044-12.416,1.436-6.77,1.62-9.734.83-13.42-.21-.978-.612-2.993-.9-4.492a17.6,17.6,0,0,0-1.2-3.978,9.436,9.436,0,0,1-.827-1.981,12.425,12.425,0,0,0-.911-2.266c-.43-.862-.995-2.061-1.273-2.706-.77-1.784-6.309-8.588-7.841-9.632a23.5,23.5,0,0,1-2.634-2.181,37.093,37.093,0,0,0-6.647-5.164,24.92,24.92,0,0,1-2.937-1.723,27,27,0,0,0-3.994-2.132c-1.183-.488-3.7-1.72-5.619-2.751a71.481,71.481,0,0,0-18.076-6.56l-6.433-1.562-4.947.019c-2.7.01-5.312.089-5.756.172a16.453,16.453,0,0,1-2.542.111c-2.516-.063-7.019.783-11.888,2.234-8.036,2.39-10.485,3.191-12.19,3.988a13.957,13.957,0,0,1-3.8,1.011,17.712,17.712,0,0,0-3.925.932,33.272,33.272,0,0,1-7.954,2.02,21.852,21.852,0,0,0-3.933.891,18.666,18.666,0,0,1-4.445.77,32.718,32.718,0,0,0-4.3.469,17.373,17.373,0,0,1-2.8.358,14.308,14.308,0,0,0-2.532.321c-1.7.366-3.636.716-6.128,1.109a20.592,20.592,0,0,1-3.9.076,28.006,28.006,0,0,0-4.5.073c-1.215.137-2.814.282-3.568.324a21.623,21.623,0,0,0-3.087.484,8.539,8.539,0,0,1-2.1.316c-.366-.089-6.128.606-9.618,1.16-.785.124-2.208.277-3.185.343a22.4,22.4,0,0,0-3.174.463c-1.9.466-6.589,1.188-11.3,1.741A58.177,58.177,0,0,0,589.852,72.8c-2.229.712-4.586,1.373-5.224,1.465a23.7,23.7,0,0,0-4.613,1.963c-10.928,5.7-11.376,6.01-15.31,10.578-1.157,1.344-2.618,2.966-3.262,3.622a24.752,24.752,0,0,0-2.414,3.1,48.869,48.869,0,0,1-4.339,5.841,17.194,17.194,0,0,0-2.1,3.024,11.761,11.761,0,0,1-1.464,2.294c-.553.672-1.554,2.018-2.215,2.979-2.431,3.531-5.775,6.255-8.362,6.811a12.553,12.553,0,0,0-2.974,1.073,12.985,12.985,0,0,1-3.615,1.043l-3.8.55a43.526,43.526,0,0,1-12.419-.928c-7.735-1.876-10.4-2.806-13.312-4.647a42.457,42.457,0,0,1-3.852-2.7,6.636,6.636,0,0,0-1.644-1.114,2.062,2.062,0,0,1-.943-.943c-.413-.758-.367-.945.537-2.3a76.535,76.535,0,0,1,5.7-7.922,11.234,11.234,0,0,0,1.5-1.85,47.023,47.023,0,0,1,5.172-5.977c.671-.654,2.057-2.176,3.085-3.385s2.294-2.621,2.814-3.143,1.533-1.673,2.268-2.589a15.585,15.585,0,0,1,2.047-2.166,19.265,19.265,0,0,0,2.393-2.74,31.6,31.6,0,0,1,2.2-2.69,14.153,14.153,0,0,0,1.578-2.139c.582-.924,1.531-2.273,2.131-3.029,1.246-1.565,4.184-5.654,5.764-8.017,2.693-4.029,4.731-11.268,4.639-16.476a16.769,16.769,0,0,0-2.585-9.2c-.716-1.212-1.581-2.776-1.9-3.432-1.207-2.5-8.571-9.091-13.724-12.279a39.436,39.436,0,0,1-4.252-3.156,40.819,40.819,0,0,0-4.183-3.141A50.7,50.7,0,0,1,505.607,5.3c-.975-.92-2.95-2.769-4.365-4.086-4.861-4.524-7.082-6.724-10.2-10.1a54.436,54.436,0,0,0-3.9-3.944,29.338,29.338,0,0,1-2.8-2.851,40.188,40.188,0,0,0-6.466-6.328,25.5,25.5,0,0,1-3.24-2.961,48.07,48.07,0,0,0-7.176-6.47,26.527,26.527,0,0,1-2.9-2.316c-1.905-1.786-11.871-8.3-13.183-8.621a23.957,23.957,0,0,1-2.982-1.434,47.906,47.906,0,0,0-11.134-4.616,42.909,42.909,0,0,1-4.992-1.549c-2.579-1.078-14.8-3.759-17.38-3.812-1.069-.023-2.664-.142-3.607-.268-6.724-.9-25.449.037-30.24,1.515a13.846,13.846,0,0,1-2.461.258,16.524,16.524,0,0,0-4.137.886c-1.269.455-3.38,1.16-4.69,1.568-5.878,1.828-9.954,3.622-13.218,5.814a52.617,52.617,0,0,0-6.948,5.574,19.4,19.4,0,0,1-2.584,2.189,24.764,24.764,0,0,0-2.845,2.379,54.031,54.031,0,0,0-5.761,7.627c-.342.638-1.56,2.535-2.692,4.2a57.849,57.849,0,0,0-5.172,8.61c-.5,1.083-1.346,2.825-1.857,3.823a34.756,34.756,0,0,0-1.621,3.867A25.3,25.3,0,0,1,325.5-2.17a15.835,15.835,0,0,0-1.32,3.506,9.781,9.781,0,0,1-1.3,3.075,15.176,15.176,0,0,0-1.686,4.16,33.74,33.74,0,0,1-1.522,4.465c-.737,1.525-1.114,3.262-1.454,6.71Z" transform="matrix(-0.899, 0.438, -0.438, -0.899, -1456.47, 7128.245)" fill="#fff"/>
  </g>
</svg>
