<svg width="21" height="14" viewBox="0 0 21 14" fill="none" xmlns="http://www.w3.org/2000/svg">
<path d="M20.6242 2.13316L14.1916 0.0331579C14.081 -0.0110526 13.9705 -0.0110526 13.8379 0.0331579L7.40524 2.13316C7.18419 2.19947 7.02945 2.42053 7.02945 2.66368V11.1079C7.02945 11.3511 7.18419 11.55 7.40524 11.6384L13.8379 13.7384C13.9042 13.7605 13.9484 13.7605 14.0147 13.7605C14.081 13.7605 14.1252 13.7605 14.1916 13.7384L20.6242 11.6163C20.8452 11.55 21 11.3289 21 11.0858V2.66368C21 2.42053 20.8452 2.22158 20.6242 2.13316ZM13.4621 12.4563L8.13471 10.71V3.41526L10.2568 4.10053V8.23421C10.2568 8.54368 10.5 8.78684 10.8094 8.78684C11.1189 8.78684 11.3621 8.54368 11.3621 8.23421V4.47632L13.4842 5.16158V12.4563H13.4621ZM14.0147 4.18895L12.5116 3.70263L13.5726 3.32684C13.86 3.21632 14.0147 2.90684 13.9042 2.61947C13.7937 2.33211 13.4842 2.19947 13.1968 2.28789L10.8316 3.15L9.3505 2.66368L14.0147 1.13842L18.6789 2.66368L14.0147 4.18895ZM19.8947 10.71L17.7726 11.3953V9.00789C17.7726 8.69842 17.5294 8.45526 17.22 8.45526C16.9105 8.45526 16.6894 8.69842 16.6894 9.00789V11.7711L14.5673 12.4563V5.16158L19.8947 3.41526V10.71Z" fill="white"/>
<path d="M4.46526 3.26052H0.552632C0.243158 3.26052 0 3.50368 0 3.81316C0 4.12263 0.243158 4.36579 0.552632 4.36579H4.46526C4.77474 4.36579 5.01789 4.12263 5.01789 3.81316C4.99579 3.50368 4.75263 3.26052 4.46526 3.26052Z" fill="white"/>
<path d="M4.46526 6.33316H0.552632C0.243158 6.33316 0 6.57631 0 6.88579C0 7.19526 0.243158 7.43842 0.552632 7.43842H4.46526C4.77474 7.43842 5.01789 7.19526 5.01789 6.88579C5.01789 6.57631 4.75263 6.33316 4.46526 6.33316Z" fill="white"/>
<path d="M4.46526 9.40579H0.552632C0.243158 9.40579 0 9.64895 0 9.95842C0 10.2679 0.243158 10.5111 0.552632 10.5111H4.46526C4.77474 10.5111 5.01789 10.2679 5.01789 9.95842C5.01789 9.64895 4.75263 9.40579 4.46526 9.40579Z" fill="white"/>
</svg>
